<svg xmlns="http://www.w3.org/2000/svg" viewBox="0 0 433.73 253.73"><defs><style>.cls-1{fill:#d9463a;}.cls-2{fill:#fdf9f9;}.cls-3{fill:#f9e066;}.cls-4{fill:#edaf57;}.cls-5{font-size:70px;font-family:SigmarOne-Regular, Sigmar One;}</style></defs><title>PizzillaLogo</title><g id="Layer_2" data-name="Layer 2"><g id="Layer_1-2" data-name="Layer 1"><path class="cls-1" d="M171.88,198.1c-.32,2.92.59,5.75-1,8.27-.56.89-.84,2.29-2.19,1.95s-.72-1.66-.78-2.59c-.1-1.56.16-3.15-.7-4.62-.71-1.21-1.32-1.46-2,0a9.57,9.57,0,0,1-3.13,4.12c-.61.42-1.26,1.12-2,.57s-.48-1.4-.11-2.07c1.75-3.13,1.58-6.37.74-9.69-.57-2.23-5.27-3.87-7-2.45-.74.6-.43,1.35-.34,2.07.79,7.2,1.85,14.39.91,21.65a47.45,47.45,0,0,1-1.19,7.63,7.47,7.47,0,0,1-5,5.14c-7.15,2.68-14.65,3.68-22.18,4.46a308.74,308.74,0,0,1-53.62.8c-7.9-.54-15.78-1.14-23.59-2.31-6.48-1-13-2-19.08-4.61-4.79-2.06-6.67-6.29-6.68-10.8s-1.66-6.89-5.54-9A54.15,54.15,0,0,1,3,195.19c-4.52-5-4-8,1.92-11.3,5.43-3.06,11.37-4.55,17.38-5.86a9.58,9.58,0,0,0,3.77-1.33C23,175,20.14,173.57,17.37,172a38.75,38.75,0,0,1-8.26-6c-4-3.89-3.85-6.48.7-9.7,4.84-3.44,10.36-5.51,16-7.29l3.1-.94c.59-.18,1.56.06,1.54-.85,0-.68-.79-.93-1.44-1.18a60.26,60.26,0,0,1-12-5.89c-5.29-3.55-5.36-6.29-.09-9.87,4.23-2.87,9-4.5,13.83-6.12.51-.17,1.35.08,1.44-.68s-.67-1.06-1.21-1.44a46,46,0,0,1-7-5.62c-3.19-3.37-3.06-5.44.75-8.09a35.61,35.61,0,0,1,12.53-5.25c2.29-.53,1.89-1.27.72-2.55a41.5,41.5,0,0,1-5.54-7c-1.44-2.46-1.17-4,1.27-5.41a53.21,53.21,0,0,1,12.7-5c2-.58,2.21-1.15.74-2.53a25.74,25.74,0,0,1-4.45-5c-1.74-2.82-1.31-4.82,1.59-6.39a39.51,39.51,0,0,1,9.37-3.23c1.83-.45,3.72-.38,4.31-3.39A75.63,75.63,0,0,1,71.39,32.09c3.43-4.68,8.45-6.68,13.73-7.94a229.53,229.53,0,0,0,32.65-10.51c5.76-2.32,11.67-4.33,18-4.86a10.26,10.26,0,0,1,7.47,2,31.75,31.75,0,0,1,8.83,9.7,7.31,7.31,0,0,1,.58,6.68c-1.4,3.46-2.81,6.94-5.13,9.91a3.28,3.28,0,0,0-.45,3c1.43,6.54.89,7.13-5.43,5.94-2.87-.55-2.85-.55-2.77,2.51,0,1.75,0,3.5,0,5.25s-.83,2.41-2.49,2.31a14.57,14.57,0,0,1-3.95-.45c-1.51-.52-1.79.27-1.57,1.51.14.81.38,1.62.54,2.43.7,3.51-.4,5-4,5.33a13.24,13.24,0,0,1-2,.07c-1.68-.09-2.06.55-1.84,2.25.77,6,0,6.7-5.9,6.65-3.1,0-5.42,2.62-5.86,6.69-.68,6.18,2.06,10.45,7.94,12.41a7.8,7.8,0,0,1,1.18.4c2.29,1.25,4,.88,5.83-1.18,4.34-4.8,5.65-4.59,8.77,1.13,1,1.76,1.6,1.91,2.76.38a3.82,3.82,0,0,1,.34-.36c3.92-4.14,4.54-4.18,7.88.3,1.21,1.62,1.65,1.22,2.62-.14,3.46-4.87,4.3-4.91,7.77.08,1.36,2,2.75,2.57,5,2,1.43-.38,3-.28,4.45-.53,2.12-.37,3.38.72,4.11,2.45,1.8,4.29,1.78,8.35-1.55,12.07-3.52,3.94-7.67,7.13-11.66,10.53-4.17,3.55-8.7,6.92-10.12,12.62a44.43,44.43,0,0,0-.83,13.42c.18,3.32.45,6.64.65,10,.11,1.81,1,2.34,2.67,1.73a46.83,46.83,0,0,1,7.15-2.09c1.79-.36,2.83-1.64,3.85-3,2.21-2.92,4.89-5.18,8.57-6,.73-.17,1.59-.48,2.08.25.62.93-.55,1.19-.92,1.75s-.84,1-1.22,1.58c-.27.39-.66.87-.23,1.33s.88,0,1.32-.21c2-.78,4-1.65,6.25-1.43.91.09,1.8.37,2,1.22.24,1.1-1,1.29-1.65,1.47a9.27,9.27,0,0,0-4,1.91c-.42.37-1,.72-.79,1.42s.82.41,1.28.54c1.18.33,2.51.23,3.51,1.13.29.26.84.47.62.94a1.52,1.52,0,0,1-1,.66,6.74,6.74,0,0,1-1.74.08,7.86,7.86,0,0,0-7.15,3.29,8.89,8.89,0,0,1-5.73,3.52c-3.64.74-6.42,3.37-9.22,5.71-1.16,1-3.36,1.6-3,3.31s2.58,1.4,4,1.88c4.1,1.36,8.19,2.72,12.27,4.13a4.45,4.45,0,0,1,1.89,1.17c3.87,4.56,7.94,9,9.56,15a10.28,10.28,0,0,1,.25,2.22c.05,1.29-.17,2.79-1.43,3.14s-1.19-1.31-1.76-2.05S173.41,198.63,171.88,198.1Z"/><path class="cls-1" d="M189.32,88.63a86.24,86.24,0,0,1-20.79-2.94,50.44,50.44,0,0,1-14.43-5.93c-7.32-4.53-9.1-9.69-6.23-17.8a38.93,38.93,0,0,1,9.72-14.6,8.83,8.83,0,0,1,1.58-1.21,1,1,0,0,1,1.17,0c.4.34.19.73,0,1.1-.5.84-.84,1.82,0,2.48s1.87.27,2.82-.23c4.73-2.5,8.21-6.46,11.72-10.32,5.18-5.68,7.62-13,10.9-19.73A25.85,25.85,0,0,1,197.2,7.34c.71-.37,1.51-1.07,2.26-.26s-.15,1.32-.42,2a12.57,12.57,0,0,0-1.29,3.74c-.13,1.85.05,3.53,2,4.42s3.37.23,4.77-1.05c2.22-2,4.52-3.94,6.69-6,4.48-4.23,10-6.35,15.77-8.11C235.09-.42,243.32-.48,251.65.9a40.63,40.63,0,0,0,9.48-.06c.58,0,1.21-.23,1.52.45a1.39,1.39,0,0,1-.44,1.57,14.76,14.76,0,0,1-6.63,4.22A12.4,12.4,0,0,0,251.3,9a1.25,1.25,0,0,0-.54,1.5c.21.58.75.59,1.24.63a5.53,5.53,0,0,0,4.66-1.29c5-5,11.09-6.32,17.86-5.84,2.68.19,5.21-1,7.83-1.4a9.36,9.36,0,0,1,1.2-.33c1.25,0,3.07-.95,3.53.65.41,1.43-1.59,1.54-2.58,2.09-3.21,1.77-6.4,3.53-8.66,6.55-5,6.74-12.4,9.76-20,12.45-1.23.43-3.1.68-3,2.14.16,1.62,2.18,1.5,3.47,1.69,4.38.65,7.86-1.48,11.2-3.91,2.2-1.6,4.23-3.51,7-4.13.66-.15,1.33-.42,1.8.28s-.24,1-.51,1.52a84.67,84.67,0,0,1-15,20.07,34.29,34.29,0,0,1-14.75,8.38c-4.05,1.17-8,2.6-12,4a8.64,8.64,0,0,0-1.53.81c-1.84,1.09-3.31,2.59-2.69,4.83.58,2.08,2.57,2.25,4.48,2.4,3.49.27,6.73-1.08,10.13-1.31,1.76-.11,4.18-1.15,5.07.65s-1.82,2.17-2.87,3.17c-4.45,4.25-8.83,8.6-13.92,12.12-7,4.84-14.84,7.57-23.07,9.48C202.54,87.85,195.24,88.12,189.32,88.63Z"/><path class="cls-2" d="M91.87,53.23c-1.06-.1-2.34.11-3.38-.84-1.25-1.12-2.11-2.45-1.62-4.17a4.43,4.43,0,0,1,3.67-3c3.82-.77,7.68-1.41,11.53-2,2.24-.35,2.55.1,1.78,2.23C102.37,49.53,96.82,53.2,91.87,53.23Z"/><path class="cls-3" d="M203,75.93a53.65,53.65,0,0,1-6.59,1.28c-1.73.11-1.88,0-1.13-1.61,1.74-3.75.33-7.52-3.15-8.24-2.76-.57-4.88,1.08-6.75,3a9.51,9.51,0,0,0-.64.76,7.07,7.07,0,0,0-1.28,5.14c.18,1.27-.39,1.83-1.66,1.84a55,55,0,0,1-13.1-1.28c-1.36-.32-1.42-1.12-.88-2.24A12.88,12.88,0,0,0,169,68.27a6.44,6.44,0,0,0-6.25-6.48c-.55,0-1.34.26-1.53-.44s.51-1,1-1.28c7.68-4.68,15-9.85,20.93-16.7,4-4.57,7.76-9.3,11.66-13.93a19.4,19.4,0,0,1,7.54-5.88c3.41-1.37,8.69.81,10.32,5.09a3.67,3.67,0,0,1-.43,2.63c-1.4,3.57-.57,8.22,4.88,8.18a3.13,3.13,0,0,1,3.11,1.9c2.11,3.81,4.49,7.46,5.88,11.67,1.12,3.4-.35,10.4-3,13-1.26,1.23-1.82,1-2.33-.6A6.07,6.07,0,0,0,214.41,61c-.93.12-.26.09-1.36.45a21.73,21.73,0,0,0-3.56,1.67c-1.89.77-1.16,3.93-.51,5.92s3.32,4.71,3.32,4.71"/><path class="cls-4" d="M162.24,60.07c-.48.79-1.23,1.49.62,1.53,3.88.08,6.32,2.71,6.39,6.53a12.37,12.37,0,0,1-1,6.29c-.66,1.26-.26,1.87,1.23,2.18a56.09,56.09,0,0,0,11.85,1c1.57,0,2.06-.62,1.92-2.07-.16-1.71,0-3.32,1.53-4.47-.69,2-1.38,4-.77,6.25.27,1-.63,1.23-1.45,1.23A61.59,61.59,0,0,1,168,77c-1.39-.32-1.27-1.12-.69-2.25,1.55-3,2.41-6.26.54-9.47-2.27-3.93-5.17-4.27-8.48-1.13-.54.51-1,1.11-1.58,1.59s-1,1.59-1.72.91a2,2,0,0,1,.08-2.56,8.65,8.65,0,0,1,3.89-3C160.78,60.78,161.3,60,162.24,60.07Z"/><path class="cls-1" d="M201.83,41.27c0,4.76-1.42,8.07-4.85,10.27a5.28,5.28,0,0,1-8.18-3,11.73,11.73,0,0,1,2.67-11.33c1.82-2.08,5.12-3.08,7.23-2A6.15,6.15,0,0,1,201.83,41.27Z"/><text class="cls-5" transform="translate(199.16 171.5)">PIZ</text><text class="cls-5" transform="translate(199.16 227.48)">ZILLA</text></g></g></svg>