<svg xmlns="http://www.w3.org/2000/svg" viewBox="0 0 299.64 299.64"><title>Pizza-pepperoni_1</title><g style="isolation:isolate"><g id="Layer_2" data-name="Layer 2"><g id="Layer_1-2" data-name="Layer 1"><path d="M33.61,193.51A13.49,13.49,0,1,1,47.09,207,13.49,13.49,0,0,1,33.61,193.51Z" style="fill:#9d2b25"/><path d="M34.54,193.62a12.56,12.56,0,1,1,12.55,12.55A12.56,12.56,0,0,1,34.54,193.62Z" style="fill:#ca3633"/><path d="M51.36,199.74a2,2,0,1,1,2,2A2,2,0,0,1,51.36,199.74Z" style="fill:#7c1f16"/><path d="M54.88,190.92a.94.94,0,1,1,1.87,0,.94.94,0,0,1-1.87,0Z" style="fill:#7c1f16"/><path d="M48,195.17a.94.94,0,1,1,.93.93A.93.93,0,0,1,48,195.17Z" style="fill:#7c1f16"/><path d="M43.43,186.06a2,2,0,1,1-2-2A2,2,0,0,1,43.43,186.06Z" style="fill:#7c1f16"/><path d="M39.76,194.82a.94.94,0,1,1-.92-.95A.94.94,0,0,1,39.76,194.82Z" style="fill:#7c1f16"/><path d="M44.53,201.87a.94.94,0,0,1-1,.92.92.92,0,0,1-.92-.95.94.94,0,0,1,1.87,0Z" style="fill:#7c1f16"/><path d="M46.67,190.68a.94.94,0,1,1-.92-1A.93.93,0,0,1,46.67,190.68Z" style="fill:#7c1f16"/><path d="M46.16,198.31c-5.22-1.19-9.56-5.95-10-10.87a12.55,12.55,0,1,0,23.48,6.18c0-.06,0-.12,0-.18C56.4,197.17,50.92,199.39,46.16,198.31Z" style="fill:#ca3633;opacity:0.5;mix-blend-mode:multiply"/><path d="M50.39,184.63c5,1.72,8,5,9.25,9.16,0-.06,0-.11,0-.17a12.55,12.55,0,0,0-24.48-3.9C38.68,185.14,44.22,182.5,50.39,184.63Z" style="fill:#ca3633;mix-blend-mode:screen"/><path d="M113.84,224.39a13.49,13.49,0,1,1,13.49,13.49A13.49,13.49,0,0,1,113.84,224.39Z" style="fill:#9d2b25"/><path d="M114.78,224.49a12.56,12.56,0,1,1,12.55,12.56A12.55,12.55,0,0,1,114.78,224.49Z" style="fill:#ca3633"/><path d="M131.59,230.62a2,2,0,1,1,2,2A2,2,0,0,1,131.59,230.62Z" style="fill:#7c1f16"/><path d="M135.12,221.79a.93.93,0,1,1,.93.94A.93.93,0,0,1,135.12,221.79Z" style="fill:#7c1f16"/><path d="M128.27,226.05a.93.93,0,1,1,.93.93A.93.93,0,0,1,128.27,226.05Z" style="fill:#7c1f16"/><path d="M123.67,216.93a2,2,0,1,1-2-2A2,2,0,0,1,123.67,216.93Z" style="fill:#7c1f16"/><path d="M120,225.7a.94.94,0,0,1-.94.92,1,1,0,0,1-.93-1,.94.94,0,0,1,1.87,0Z" style="fill:#7c1f16"/><path d="M124.76,232.75a.93.93,0,0,1-1,.92.94.94,0,0,1-.92-.95,1,1,0,0,1,1-.92A.93.93,0,0,1,124.76,232.75Z" style="fill:#7c1f16"/><path d="M126.91,221.55a.94.94,0,0,1-1.87,0,.92.92,0,0,1,.94-.92A1,1,0,0,1,126.91,221.55Z" style="fill:#7c1f16"/><path d="M126.4,229.18c-5.23-1.18-9.57-6-10-10.86a12.4,12.4,0,0,0-1.63,6.17,12.56,12.56,0,1,0,25.11,0c0-.06,0-.12,0-.18C136.64,228.05,131.16,230.27,126.4,229.18Z" style="fill:#ca3633;opacity:0.5;mix-blend-mode:multiply"/><path d="M130.62,215.51c5,1.72,8,5,9.26,9.16,0-.06,0-.12,0-.18a12.55,12.55,0,0,0-24.49-3.89C118.91,216,124.46,213.38,130.62,215.51Z" style="fill:#ca3633;mix-blend-mode:screen"/><path d="M160.2,252.92a13.49,13.49,0,1,1,13.48,13.49A13.48,13.48,0,0,1,160.2,252.92Z" style="fill:#9d2b25"/><path d="M161.13,253a12.56,12.56,0,1,1,12.55,12.56A12.55,12.55,0,0,1,161.13,253Z" style="fill:#ca3633"/><path d="M177.94,259.14a2,2,0,1,1,2,2A2,2,0,0,1,177.94,259.14Z" style="fill:#7c1f16"/><path d="M181.47,250.32a.94.94,0,1,1,.93.94A.93.93,0,0,1,181.47,250.32Z" style="fill:#7c1f16"/><path d="M174.62,254.58a.93.93,0,1,1,1.86,0,.93.93,0,0,1-1.86,0Z" style="fill:#7c1f16"/><path d="M170,245.46a2,2,0,1,1-2-2A2,2,0,0,1,170,245.46Z" style="fill:#7c1f16"/><path d="M166.35,254.23a1,1,0,0,1-.95.92,1,1,0,0,1-.92-1,.93.93,0,0,1,.94-.92A1,1,0,0,1,166.35,254.23Z" style="fill:#7c1f16"/><path d="M171.11,261.28a.93.93,0,1,1-1.86,0,.94.94,0,0,1,.95-.92A.92.92,0,0,1,171.11,261.28Z" style="fill:#7c1f16"/><path d="M173.26,250.08a.94.94,0,1,1-.92-1A.94.94,0,0,1,173.26,250.08Z" style="fill:#7c1f16"/><path d="M172.75,257.71c-5.22-1.18-9.56-5.95-10-10.86A12.55,12.55,0,1,0,186.24,253c0-.06,0-.12,0-.18C183,256.58,177.51,258.79,172.75,257.71Z" style="fill:#ca3633;opacity:0.5;mix-blend-mode:multiply"/><path d="M177,244c5,1.72,8,5,9.25,9.16,0-.06,0-.12,0-.18a12.55,12.55,0,0,0-24.49-3.89C165.27,244.55,170.81,241.91,177,244Z" style="fill:#ca3633;mix-blend-mode:screen"/><path d="M232.7,175.62a13.49,13.49,0,1,1,13.49,13.49A13.49,13.49,0,0,1,232.7,175.62Z" style="fill:#9d2b25"/><path d="M233.63,175.72a12.56,12.56,0,1,1,12.56,12.56A12.56,12.56,0,0,1,233.63,175.72Z" style="fill:#ca3633"/><path d="M250.45,181.85a2,2,0,1,1,2,2A2,2,0,0,1,250.45,181.85Z" style="fill:#7c1f16"/><path d="M254,173a.94.94,0,1,1,.94.93A.94.94,0,0,1,254,173Z" style="fill:#7c1f16"/><path d="M247.12,177.28a.94.94,0,1,1,1.87,0,.94.94,0,0,1-1.87,0Z" style="fill:#7c1f16"/><path d="M242.52,168.16a2,2,0,1,1-2-2A2,2,0,0,1,242.52,168.16Z" style="fill:#7c1f16"/><path d="M238.85,176.93a.94.94,0,1,1-1.87,0,.94.94,0,0,1,1.87,0Z" style="fill:#7c1f16"/><path d="M243.62,184a.94.94,0,1,1-1.87,0,1,1,0,0,1,1-.92A.93.93,0,0,1,243.62,184Z" style="fill:#7c1f16"/><path d="M245.76,172.79a.93.93,0,1,1-.92-.95A.92.92,0,0,1,245.76,172.79Z" style="fill:#7c1f16"/><path d="M245.25,180.41c-5.22-1.18-9.56-5.95-10-10.86a12.41,12.41,0,0,0-1.64,6.17,12.56,12.56,0,0,0,25.12,0c0-.06,0-.11,0-.17C255.49,179.28,250,181.5,245.25,180.41Z" style="fill:#ca3633;opacity:0.5;mix-blend-mode:multiply"/><path d="M249.48,166.74c5,1.72,8,5,9.26,9.16,0-.06,0-.12,0-.18a12.55,12.55,0,0,0-24.49-3.89C237.77,167.25,243.31,164.61,249.48,166.74Z" style="fill:#ca3633;mix-blend-mode:screen"/><path d="M189,125.53A13.49,13.49,0,1,1,202.44,139,13.49,13.49,0,0,1,189,125.53Z" style="fill:#9d2b25"/><path d="M189.89,125.63a12.56,12.56,0,1,1,12.55,12.56A12.56,12.56,0,0,1,189.89,125.63Z" style="fill:#ca3633"/><path d="M206.71,131.75a2,2,0,1,1,2,2A2,2,0,0,1,206.71,131.75Z" style="fill:#7c1f16"/><path d="M210.23,122.93a.94.94,0,1,1,.94.94A.94.94,0,0,1,210.23,122.93Z" style="fill:#7c1f16"/><path d="M203.38,127.19a.94.94,0,1,1,.93.93A.94.94,0,0,1,203.38,127.19Z" style="fill:#7c1f16"/><path d="M198.78,118.07a2,2,0,1,1-1.95-2A2,2,0,0,1,198.78,118.07Z" style="fill:#7c1f16"/><path d="M195.11,126.83a.94.94,0,1,1-.92-1A.94.94,0,0,1,195.11,126.83Z" style="fill:#7c1f16"/><path d="M199.88,133.89a.94.94,0,1,1-.92-.95A.94.94,0,0,1,199.88,133.89Z" style="fill:#7c1f16"/><path d="M202,122.69a.93.93,0,1,1-.92-1A.93.93,0,0,1,202,122.69Z" style="fill:#7c1f16"/><path d="M201.51,130.32c-5.22-1.18-9.56-5.95-10-10.86A12.55,12.55,0,1,0,215,125.63a1.09,1.09,0,0,0,0-.18C211.75,129.19,206.28,131.4,201.51,130.32Z" style="fill:#ca3633;opacity:0.5;mix-blend-mode:multiply"/><path d="M205.74,116.65c5,1.72,8,5,9.25,9.16a1.09,1.09,0,0,0,0-.18,12.55,12.55,0,0,0-24.48-3.89C194,117.16,199.57,114.52,205.74,116.65Z" style="fill:#ca3633;mix-blend-mode:screen"/><path d="M153.83,53.78a13.49,13.49,0,1,1,13.48,13.49A13.48,13.48,0,0,1,153.83,53.78Z" style="fill:#9d2b25"/><path d="M154.76,53.89a12.56,12.56,0,1,1,12.55,12.55A12.55,12.55,0,0,1,154.76,53.89Z" style="fill:#ca3633"/><path d="M171.57,60a2,2,0,1,1,2,2A2,2,0,0,1,171.57,60Z" style="fill:#7c1f16"/><path d="M175.1,51.19a.94.94,0,1,1,.93.93A.94.94,0,0,1,175.1,51.19Z" style="fill:#7c1f16"/><path d="M168.25,55.44a.93.93,0,1,1,.93.93A.93.93,0,0,1,168.25,55.44Z" style="fill:#7c1f16"/><path d="M163.65,46.33a2,2,0,0,1-4-.06,2,2,0,0,1,2-1.94A2,2,0,0,1,163.65,46.33Z" style="fill:#7c1f16"/><path d="M160,55.09A.93.93,0,0,1,159,56a.94.94,0,1,1,0-1.87A.94.94,0,0,1,160,55.09Z" style="fill:#7c1f16"/><path d="M164.74,62.15a.93.93,0,0,1-1.86,0,.93.93,0,1,1,1.86,0Z" style="fill:#7c1f16"/><path d="M166.89,51a1,1,0,0,1-.95.92A.94.94,0,1,1,166,50,.94.94,0,0,1,166.89,51Z" style="fill:#7c1f16"/><path d="M166.38,58.58c-5.22-1.19-9.57-5.95-10-10.87a12.55,12.55,0,1,0,23.48,6.18c0-.06,0-.12,0-.18C176.62,57.45,171.14,59.66,166.38,58.58Z" style="fill:#ca3633;opacity:0.5;mix-blend-mode:multiply"/><path d="M170.61,44.9c5,1.72,8,5,9.25,9.16,0-.06,0-.11,0-.17A12.55,12.55,0,0,0,155.38,50C158.9,45.41,164.44,42.77,170.61,44.9Z" style="fill:#ca3633;mix-blend-mode:screen"/><path d="M240.9,101.1a13.49,13.49,0,1,1,13.48,13.49A13.49,13.49,0,0,1,240.9,101.1Z" style="fill:#9d2b25"/><path d="M241.83,101.21a12.56,12.56,0,1,1,12.55,12.55A12.56,12.56,0,0,1,241.83,101.21Z" style="fill:#ca3633"/><path d="M258.65,107.33a2,2,0,1,1,2,2A2,2,0,0,1,258.65,107.33Z" style="fill:#7c1f16"/><path d="M262.17,98.51a.94.94,0,1,1,1.87,0,.94.94,0,0,1-1.87,0Z" style="fill:#7c1f16"/><path d="M255.32,102.76a.94.94,0,1,1,.93.93A.93.93,0,0,1,255.32,102.76Z" style="fill:#7c1f16"/><path d="M250.72,93.65a2,2,0,1,1-1.95-2A2,2,0,0,1,250.72,93.65Z" style="fill:#7c1f16"/><path d="M247.05,102.41a1,1,0,0,1-1,.92.94.94,0,1,1,1-.92Z" style="fill:#7c1f16"/><path d="M251.82,109.46a.94.94,0,1,1-.92-.95A.94.94,0,0,1,251.82,109.46Z" style="fill:#7c1f16"/><path d="M254,98.27a.93.93,0,0,1-1,.91.94.94,0,0,1-.92-.94.94.94,0,0,1,1.87,0Z" style="fill:#7c1f16"/><path d="M253.45,105.9c-5.22-1.19-9.56-6-10-10.87a12.55,12.55,0,1,0,23.48,6.18c0-.06,0-.12,0-.18C263.69,104.76,258.21,107,253.45,105.9Z" style="fill:#ca3633;opacity:0.5;mix-blend-mode:multiply"/><path d="M257.68,92.22c5,1.72,8,5,9.25,9.16,0-.06,0-.11,0-.17a12.55,12.55,0,0,0-24.48-3.9C246,92.73,251.51,90.09,257.68,92.22Z" style="fill:#ca3633;mix-blend-mode:screen"/><path d="M22.54,127.53A13.49,13.49,0,1,1,36,141,13.48,13.48,0,0,1,22.54,127.53Z" style="fill:#9d2b25"/><path d="M23.47,127.64A12.56,12.56,0,1,1,36,140.2,12.55,12.55,0,0,1,23.47,127.64Z" style="fill:#ca3633"/><path d="M40.28,133.76a2,2,0,1,1,2,2A2,2,0,0,1,40.28,133.76Z" style="fill:#7c1f16"/><path d="M43.81,124.94a.94.94,0,0,1,1.87,0,.94.94,0,1,1-1.87,0Z" style="fill:#7c1f16"/><path d="M37,129.19a.93.93,0,1,1,.93.94A.93.93,0,0,1,37,129.19Z" style="fill:#7c1f16"/><path d="M32.36,120.08a2,2,0,1,1-1.95-2A2,2,0,0,1,32.36,120.08Z" style="fill:#7c1f16"/><path d="M28.68,128.84a.93.93,0,0,1-.94.92.94.94,0,1,1,.94-.92Z" style="fill:#7c1f16"/><path d="M33.45,135.9a.93.93,0,1,1-.91-1A.94.94,0,0,1,33.45,135.9Z" style="fill:#7c1f16"/><path d="M35.6,124.7a1,1,0,0,1-1,.92.94.94,0,1,1,0-1.87A1,1,0,0,1,35.6,124.7Z" style="fill:#7c1f16"/><path d="M35.09,132.33c-5.22-1.18-9.57-6-10-10.86a12.38,12.38,0,0,0-1.63,6.17,12.56,12.56,0,1,0,25.11,0c0-.06,0-.12,0-.18C45.33,131.2,39.85,133.41,35.09,132.33Z" style="fill:#ca3633;opacity:0.5;mix-blend-mode:multiply"/><path d="M39.32,118.66c5,1.71,8,5,9.25,9.15,0,0,0-.11,0-.17a12.55,12.55,0,0,0-24.49-3.89C27.61,119.17,33.15,116.52,39.32,118.66Z" style="fill:#ca3633;mix-blend-mode:screen"/><path d="M107.4,127.79a13.49,13.49,0,1,1,13.48,13.49A13.49,13.49,0,0,1,107.4,127.79Z" style="fill:#9d2b25"/><path d="M108.33,127.9a12.56,12.56,0,1,1,12.55,12.55A12.56,12.56,0,0,1,108.33,127.9Z" style="fill:#ca3633"/><path d="M125.15,134a2,2,0,1,1,2,2A2,2,0,0,1,125.15,134Z" style="fill:#7c1f16"/><path d="M128.67,125.2a.94.94,0,1,1,1.87,0,.94.94,0,0,1-1.87,0Z" style="fill:#7c1f16"/><path d="M121.82,129.45a.94.94,0,1,1,.94.93A.93.93,0,0,1,121.82,129.45Z" style="fill:#7c1f16"/><path d="M117.22,120.34a2,2,0,1,1-1.94-2A2,2,0,0,1,117.22,120.34Z" style="fill:#7c1f16"/><path d="M113.55,129.1a.94.94,0,1,1-.92-.95A.93.93,0,0,1,113.55,129.1Z" style="fill:#7c1f16"/><path d="M118.32,136.15a.94.94,0,1,1-1.87,0,1,1,0,0,1,1-.92A.94.94,0,0,1,118.32,136.15Z" style="fill:#7c1f16"/><path d="M120.46,125a.93.93,0,1,1-.92-.95A.93.93,0,0,1,120.46,125Z" style="fill:#7c1f16"/><path d="M120,132.59c-5.22-1.19-9.56-6-10-10.87a12.56,12.56,0,1,0,23.49,6.18c0-.06,0-.12,0-.18C130.19,131.45,124.72,133.67,120,132.59Z" style="fill:#ca3633;opacity:0.5;mix-blend-mode:multiply"/><path d="M124.18,118.91c5,1.72,8,5,9.26,9.16,0-.06,0-.12,0-.17A12.55,12.55,0,0,0,109,124C112.47,119.42,118,116.78,124.18,118.91Z" style="fill:#ca3633;mix-blend-mode:screen"/><path d="M87.43,61a13.49,13.49,0,1,1,13.49,13.49A13.49,13.49,0,0,1,87.43,61Z" style="fill:#9d2b25"/><path d="M88.37,61.11a12.55,12.55,0,1,1,12.55,12.55A12.55,12.55,0,0,1,88.37,61.11Z" style="fill:#ca3633"/><path d="M105.18,67.23a2,2,0,1,1,2,2A2,2,0,0,1,105.18,67.23Z" style="fill:#7c1f16"/><path d="M108.7,58.41a.94.94,0,1,1,.94.93A.94.94,0,0,1,108.7,58.41Z" style="fill:#7c1f16"/><path d="M101.85,62.66a.94.94,0,1,1,1.87,0,.94.94,0,0,1-1.87,0Z" style="fill:#7c1f16"/><path d="M97.25,53.54a2,2,0,1,1-2-2A2,2,0,0,1,97.25,53.54Z" style="fill:#7c1f16"/><path d="M93.58,62.31a1,1,0,0,1-1,.92.94.94,0,1,1,1-.92Z" style="fill:#7c1f16"/><path d="M98.35,69.36a.94.94,0,0,1-1.87,0,1,1,0,0,1,1-.92A.94.94,0,0,1,98.35,69.36Z" style="fill:#7c1f16"/><path d="M100.49,58.17a.93.93,0,1,1-.92-1A.93.93,0,0,1,100.49,58.17Z" style="fill:#7c1f16"/><path d="M100,65.79c-5.22-1.18-9.56-6-10-10.86a12.41,12.41,0,0,0-1.63,6.18,12.55,12.55,0,0,0,25.1,0v-.18C110.22,64.66,104.75,66.88,100,65.79Z" style="fill:#ca3633;opacity:0.5;mix-blend-mode:multiply"/><path d="M104.21,52.12c5,1.72,8,5,9.26,9.16v-.17A12.55,12.55,0,0,0,89,57.21C92.5,52.63,98,50,104.21,52.12Z" style="fill:#ca3633;mix-blend-mode:screen"/><path d="M159.2,176.45a13.49,13.49,0,1,1,13.48,13.49A13.48,13.48,0,0,1,159.2,176.45Z" style="fill:#9d2b25"/><path d="M160.13,176.56a12.56,12.56,0,1,1,12.55,12.56A12.55,12.55,0,0,1,160.13,176.56Z" style="fill:#ca3633"/><path d="M176.94,182.68a2,2,0,1,1,2,2A2,2,0,0,1,176.94,182.68Z" style="fill:#7c1f16"/><path d="M180.47,173.86a.94.94,0,1,1,1.87,0,.94.94,0,0,1-1.87,0Z" style="fill:#7c1f16"/><path d="M173.62,178.11a.93.93,0,1,1,.93.94A.93.93,0,0,1,173.62,178.11Z" style="fill:#7c1f16"/><path d="M169,169a2,2,0,1,1-2-2A2,2,0,0,1,169,169Z" style="fill:#7c1f16"/><path d="M165.35,177.76a.94.94,0,1,1-.93-.95A.94.94,0,0,1,165.35,177.76Z" style="fill:#7c1f16"/><path d="M170.11,184.82a.93.93,0,1,1-.91-.95A.92.92,0,0,1,170.11,184.82Z" style="fill:#7c1f16"/><path d="M172.26,173.62a1,1,0,0,1-.95.92.94.94,0,0,1-.92-.95.92.92,0,0,1,1-.92A.94.94,0,0,1,172.26,173.62Z" style="fill:#7c1f16"/><path d="M171.75,181.25c-5.22-1.19-9.57-5.95-10-10.87a12.55,12.55,0,1,0,23.48,6.18c0-.06,0-.12,0-.18C182,180.12,176.51,182.33,171.75,181.25Z" style="fill:#ca3633;opacity:0.5;mix-blend-mode:multiply"/><path d="M176,167.57c5,1.72,8,5,9.25,9.16,0-.06,0-.11,0-.17a12.55,12.55,0,0,0-24.49-3.9C164.27,168.08,169.81,165.44,176,167.57Z" style="fill:#ca3633;mix-blend-mode:screen"/><path d="M80.44,169.55A13.49,13.49,0,1,1,93.92,183,13.49,13.49,0,0,1,80.44,169.55Z" style="fill:#9d2b25"/><path d="M81.37,169.66a12.56,12.56,0,1,1,12.55,12.55A12.56,12.56,0,0,1,81.37,169.66Z" style="fill:#ca3633"/><path d="M98.19,175.78a2,2,0,1,1,2,2A2,2,0,0,1,98.19,175.78Z" style="fill:#7c1f16"/><path d="M101.71,167a.94.94,0,1,1,1.87,0,.94.94,0,0,1-1.87,0Z" style="fill:#7c1f16"/><path d="M94.86,171.21a.94.94,0,1,1,.93.93A.93.93,0,0,1,94.86,171.21Z" style="fill:#7c1f16"/><path d="M90.26,162.09a2,2,0,1,1-4-.06,2,2,0,0,1,4,.06Z" style="fill:#7c1f16"/><path d="M86.59,170.86a1,1,0,0,1-1,.92.94.94,0,0,1-.92-.95.92.92,0,0,1,1-.92A.94.94,0,0,1,86.59,170.86Z" style="fill:#7c1f16"/><path d="M91.36,177.91a.94.94,0,1,1-.92-.95A.94.94,0,0,1,91.36,177.91Z" style="fill:#7c1f16"/><path d="M93.5,166.72a.93.93,0,0,1-1,.91.94.94,0,0,1-.92-.94.94.94,0,0,1,1.87,0Z" style="fill:#7c1f16"/><path d="M93,174.35c-5.22-1.19-9.56-6-10-10.87a12.55,12.55,0,1,0,23.48,6.18c0-.06,0-.12,0-.18C103.23,173.21,97.75,175.43,93,174.35Z" style="fill:#ca3633;opacity:0.5;mix-blend-mode:multiply"/><path d="M97.22,160.67c5,1.72,8,5,9.25,9.16,0-.06,0-.12,0-.17A12.55,12.55,0,0,0,82,165.76C85.51,161.18,91.05,158.54,97.22,160.67Z" style="fill:#ca3633;mix-blend-mode:screen"/><rect width="299.64" height="299.64" style="fill:none"/></g></g></g></svg>