<svg xmlns="http://www.w3.org/2000/svg" viewBox="0 0 299.64 299.64"><title>Pizza-onions</title><g id="Layer_2" data-name="Layer 2"><g id="Layer_1-2" data-name="Layer 1"><path d="M68.2,218.27a11.44,11.44,0,0,0-3.7-3.51,24.26,24.26,0,0,1-4-3.09c-6.39-6.79-17.54-1.94-18.19,7.39-.53,7.5.76,19.37,12.26,16.75,5-1.14,10.79-5.82,13.23-10.2C69.07,223.29,69.57,220.68,68.2,218.27ZM64.13,225c-1.83,3.27-6.17,6.77-9.9,7.62-8.58,2-9.55-6.91-9.16-12.51.49-7,8.82-10.6,13.6-5.52a18.1,18.1,0,0,0,3,2.3,8.5,8.5,0,0,1,2.76,2.63A5.39,5.39,0,0,1,64.13,225Z" style="fill:#fff"/><path d="M51.49,236.76h0a8.28,8.28,0,0,1-6.34-2.62C41.5,230.23,41.42,223,41.7,219a11.81,11.81,0,0,1,11.58-11.11,10.26,10.26,0,0,1,7.61,3.37,19.17,19.17,0,0,0,3.26,2.54l.68.46A12.1,12.1,0,0,1,68.7,218c1.32,2.31,1.18,5-.42,7.9-2.64,4.74-8.62,9.35-13.61,10.48A14.15,14.15,0,0,1,51.49,236.76Zm1.79-27.69a10.65,10.65,0,0,0-10.43,10c-.21,3.05-.33,10.52,3.15,14.25a7.17,7.17,0,0,0,5.49,2.25h0a13.07,13.07,0,0,0,2.92-.36c4.63-1.05,10.4-5.5,12.86-9.91,1-1.73,1.83-4.32.42-6.77a11,11,0,0,0-3.52-3.33l-.67-.45a20,20,0,0,1-3.45-2.71A9.15,9.15,0,0,0,53.28,209.07ZM52,233.52a6.35,6.35,0,0,1-4.85-2c-2.76-3-2.83-8.42-2.62-11.41a9,9,0,0,1,8.8-8.44,7.8,7.8,0,0,1,5.8,2.56,14,14,0,0,0,2.42,1.88l.5.34a9.15,9.15,0,0,1,2.93,2.82,5.92,5.92,0,0,1-.31,6,17.89,17.89,0,0,1-10.27,7.91A11,11,0,0,1,52,233.52Zm1.33-20.69a7.8,7.8,0,0,0-7.64,7.36c-.16,2.26-.25,7.8,2.31,10.54,1.41,1.52,3.48,2,6.15,1.37a16.86,16.86,0,0,0,9.51-7.34c1-1.84,1.14-3.49.32-4.91a8,8,0,0,0-2.59-2.44l-.49-.34a14.14,14.14,0,0,1-2.61-2A6.72,6.72,0,0,0,53.29,212.83Z" style="fill:#bda9a5"/><path d="M196.82,212.66a11.41,11.41,0,0,0-3.69-3.51,24.34,24.34,0,0,1-4-3.09c-6.39-6.79-17.53-1.94-18.19,7.39-.52,7.5.77,19.37,12.26,16.75,5-1.14,10.8-5.82,13.24-10.2C197.7,217.68,198.2,215.07,196.82,212.66Zm-4.07,6.77c-1.82,3.27-6.16,6.77-9.89,7.62-8.59,2-9.56-6.91-9.16-12.51.49-7,8.81-10.6,13.59-5.52a18.61,18.61,0,0,0,3,2.3,8.5,8.5,0,0,1,2.76,2.63A5.4,5.4,0,0,1,192.75,219.43Z" style="fill:#fff"/><path d="M180.12,231.15h0a8.29,8.29,0,0,1-6.34-2.61c-3.66-3.92-3.73-11.16-3.45-15.13A11.81,11.81,0,0,1,181.9,202.3a10.24,10.24,0,0,1,7.61,3.37,19.46,19.46,0,0,0,3.26,2.54l.68.46a12.13,12.13,0,0,1,3.88,3.71c1.32,2.31,1.17,5-.42,7.91-2.65,4.73-8.63,9.34-13.62,10.47A14.13,14.13,0,0,1,180.12,231.15Zm1.78-27.69a10.65,10.65,0,0,0-10.42,10c-.21,3-.34,10.52,3.14,14.26a7.23,7.23,0,0,0,5.5,2.24h0a13.47,13.47,0,0,0,2.91-.35c4.64-1.06,10.4-5.51,12.87-9.92,1-1.73,1.82-4.32.42-6.77a10.88,10.88,0,0,0-3.52-3.32l-.67-.46a20.5,20.5,0,0,1-3.46-2.71A9.11,9.11,0,0,0,181.9,203.46Zm-1.32,24.45a6.31,6.31,0,0,1-4.84-2c-2.77-3-2.83-8.42-2.62-11.41a9,9,0,0,1,8.8-8.44,7.8,7.8,0,0,1,5.79,2.56,14.36,14.36,0,0,0,2.42,1.88l.5.34a9.18,9.18,0,0,1,2.94,2.82c1,1.78.91,3.87-.31,6.06a18,18,0,0,1-10.27,7.9A11.13,11.13,0,0,1,180.58,227.91Zm1.34-20.69a7.82,7.82,0,0,0-7.65,7.36c-.15,2.26-.25,7.8,2.32,10.54,1.41,1.52,3.48,2,6.14,1.37a16.85,16.85,0,0,0,9.52-7.34c1-1.84,1.13-3.49.32-4.91A8.08,8.08,0,0,0,190,211.8l-.49-.34a14.55,14.55,0,0,1-2.62-2.05A6.68,6.68,0,0,0,181.92,207.22Z" style="fill:#bda9a5"/><path d="M203.27,258.54a11.58,11.58,0,0,0-3.7-3.52,24.63,24.63,0,0,1-4-3.08c-6.39-6.8-17.53-1.95-18.19,7.39-.53,7.49.77,19.36,12.26,16.74,5-1.13,10.8-5.82,13.24-10.19C204.14,263.55,204.65,260.94,203.27,258.54Zm-4.07,6.77c-1.82,3.27-6.16,6.77-9.89,7.62-8.59,1.95-9.56-6.92-9.16-12.52.49-7,8.81-10.6,13.59-5.52a18,18,0,0,0,3,2.3,8.75,8.75,0,0,1,2.77,2.63A5.44,5.44,0,0,1,199.2,265.31Z" style="fill:#fff"/><path d="M186.57,277h0a8.32,8.32,0,0,1-6.34-2.61c-3.65-3.92-3.73-11.16-3.45-15.12a11.81,11.81,0,0,1,11.58-11.11,10.25,10.25,0,0,1,7.61,3.36,19.46,19.46,0,0,0,3.26,2.54l.68.46a12.21,12.21,0,0,1,3.87,3.71c1.33,2.31,1.18,5.05-.42,7.91-2.64,4.74-8.62,9.34-13.61,10.48A14.69,14.69,0,0,1,186.57,277Zm1.78-27.68a10.64,10.64,0,0,0-10.42,10c-.22,3-.34,10.52,3.14,14.25a7.19,7.19,0,0,0,5.49,2.24h0a13.47,13.47,0,0,0,2.91-.35c4.63-1.06,10.4-5.5,12.86-9.91,1-1.74,1.83-4.32.43-6.78a11.09,11.09,0,0,0-3.52-3.32l-.68-.46a19.93,19.93,0,0,1-3.45-2.71A9.13,9.13,0,0,0,188.35,249.34ZM187,273.78a6.35,6.35,0,0,1-4.85-2c-2.76-3-2.82-8.42-2.61-11.41a9,9,0,0,1,8.8-8.43,7.8,7.8,0,0,1,5.79,2.55,14.4,14.4,0,0,0,2.42,1.89l.5.34a9.08,9.08,0,0,1,2.94,2.82,5.92,5.92,0,0,1-.32,6,17.92,17.92,0,0,1-10.26,7.9A11.13,11.13,0,0,1,187,273.78Zm1.34-20.69a7.82,7.82,0,0,0-7.65,7.36c-.16,2.26-.25,7.8,2.31,10.55,1.42,1.51,3.49,2,6.15,1.36a16.86,16.86,0,0,0,9.51-7.34c1-1.83,1.14-3.49.32-4.91a8.05,8.05,0,0,0-2.58-2.44l-.5-.33a15.43,15.43,0,0,1-2.61-2A6.66,6.66,0,0,0,188.37,253.09Z" style="fill:#bda9a5"/><path d="M258,188.9a11.58,11.58,0,0,0-3.7-3.52,24.76,24.76,0,0,1-4-3.08c-6.39-6.8-17.54-2-18.19,7.39-.53,7.49.77,19.36,12.26,16.74,5-1.13,10.8-5.82,13.24-10.19C258.86,193.92,259.36,191.3,258,188.9Zm-4.07,6.77c-1.83,3.27-6.16,6.77-9.89,7.62-8.59,2-9.56-6.91-9.17-12.52.49-7,8.82-10.59,13.6-5.52a18,18,0,0,0,3,2.3,8.71,8.71,0,0,1,2.76,2.63A5.41,5.41,0,0,1,253.92,195.67Z" style="fill:#fff"/><path d="M241.28,207.38h0a8.32,8.32,0,0,1-6.34-2.61c-3.65-3.92-3.73-11.16-3.45-15.12a11.81,11.81,0,0,1,11.58-11.11,10.25,10.25,0,0,1,7.61,3.36,18.68,18.68,0,0,0,3.26,2.54l.68.46a12.21,12.21,0,0,1,3.87,3.71c1.32,2.31,1.18,5-.42,7.91-2.64,4.74-8.62,9.34-13.61,10.48A14.71,14.71,0,0,1,241.28,207.38Zm1.79-27.68a10.66,10.66,0,0,0-10.43,10c-.21,3-.33,10.52,3.15,14.25a7.17,7.17,0,0,0,5.49,2.24h0a13.63,13.63,0,0,0,2.92-.35c4.63-1.06,10.4-5.5,12.86-9.92,1-1.73,1.83-4.31.43-6.77a11.13,11.13,0,0,0-3.53-3.32l-.67-.46a19.93,19.93,0,0,1-3.45-2.71A9.13,9.13,0,0,0,243.07,179.7Zm-1.32,24.44a6.35,6.35,0,0,1-4.85-2c-2.76-3-2.82-8.42-2.61-11.41a9,9,0,0,1,8.79-8.43,7.82,7.82,0,0,1,5.8,2.55,14,14,0,0,0,2.42,1.89l.5.34a9.18,9.18,0,0,1,2.94,2.82c1,1.77.9,3.86-.32,6a17.91,17.91,0,0,1-10.27,7.9A11,11,0,0,1,241.75,204.14Zm1.33-20.69a7.81,7.81,0,0,0-7.64,7.36c-.16,2.26-.25,7.8,2.31,10.55,1.41,1.51,3.49,2,6.15,1.36a16.89,16.89,0,0,0,9.51-7.33c1-1.84,1.14-3.5.32-4.92a8.09,8.09,0,0,0-2.59-2.44l-.49-.33a14.62,14.62,0,0,1-2.61-2.06A6.72,6.72,0,0,0,243.08,183.45Z" style="fill:#bda9a5"/><path d="M197.76,123.86a11.41,11.41,0,0,0-3.69-3.51,24.34,24.34,0,0,1-4-3.09c-6.39-6.79-17.53-1.94-18.19,7.39-.52,7.5.77,19.37,12.26,16.75,5-1.14,10.8-5.82,13.24-10.2C198.64,128.88,199.14,126.27,197.76,123.86Zm-4.07,6.77c-1.82,3.27-6.16,6.77-9.89,7.62-8.59,2-9.55-6.91-9.16-12.51.49-7,8.82-10.6,13.59-5.52a18.61,18.61,0,0,0,3,2.3,8.5,8.5,0,0,1,2.76,2.63A5.4,5.4,0,0,1,193.69,130.63Z" style="fill:#fff"/><path d="M181.06,142.35h0a8.28,8.28,0,0,1-6.34-2.62c-3.66-3.91-3.73-11.15-3.45-15.12a11.81,11.81,0,0,1,11.57-11.11,10.28,10.28,0,0,1,7.62,3.37,19,19,0,0,0,3.25,2.54l.68.46a12.13,12.13,0,0,1,3.88,3.71c1.32,2.31,1.17,5-.42,7.9-2.65,4.74-8.63,9.35-13.62,10.48A14.07,14.07,0,0,1,181.06,142.35Zm1.78-27.69a10.65,10.65,0,0,0-10.42,10c-.21,3-.33,10.52,3.14,14.25a7.2,7.2,0,0,0,5.5,2.25h0a13.63,13.63,0,0,0,2.92-.35c4.63-1.06,10.4-5.51,12.86-9.92,1-1.73,1.83-4.32.42-6.77a11,11,0,0,0-3.52-3.33l-.67-.45a20.5,20.5,0,0,1-3.46-2.71A9.11,9.11,0,0,0,182.84,114.66Zm-1.32,24.45a6.33,6.33,0,0,1-4.84-2c-2.77-3-2.83-8.42-2.62-11.41a9,9,0,0,1,8.8-8.44,7.8,7.8,0,0,1,5.79,2.56,14.36,14.36,0,0,0,2.42,1.88l.5.34a9.18,9.18,0,0,1,2.94,2.82,5.92,5.92,0,0,1-.31,6,18,18,0,0,1-10.27,7.91A11.13,11.13,0,0,1,181.52,139.11Zm1.34-20.69a7.8,7.8,0,0,0-7.64,7.36c-.16,2.26-.25,7.8,2.3,10.54,1.42,1.52,3.49,2,6.15,1.37a16.85,16.85,0,0,0,9.52-7.34c1-1.84,1.13-3.49.32-4.91a8.08,8.08,0,0,0-2.59-2.44l-.49-.34a14.55,14.55,0,0,1-2.62-2A6.68,6.68,0,0,0,182.86,118.42Z" style="fill:#bda9a5"/><path d="M244.55,66.67a11.58,11.58,0,0,0-3.7-3.52,24.21,24.21,0,0,1-4-3.08c-6.39-6.79-17.54-1.94-18.19,7.39-.53,7.5.76,19.36,12.26,16.75,5-1.14,10.79-5.82,13.24-10.2C245.42,71.69,245.92,69.08,244.55,66.67Zm-4.07,6.77c-1.83,3.27-6.17,6.77-9.89,7.62-8.59,2-9.56-6.91-9.17-12.51.49-7,8.82-10.6,13.6-5.53a18,18,0,0,0,3,2.31A8.5,8.5,0,0,1,240.79,68,5.4,5.4,0,0,1,240.48,73.44Z" style="fill:#fff"/><path d="M227.84,85.15h0a8.29,8.29,0,0,1-6.34-2.61c-3.65-3.92-3.73-11.15-3.45-15.12a11.81,11.81,0,0,1,11.58-11.11,10.25,10.25,0,0,1,7.61,3.36,18.72,18.72,0,0,0,3.26,2.55l.68.46a12.07,12.07,0,0,1,3.87,3.7c1.32,2.32,1.18,5.05-.42,7.91C242,79,236,83.63,231,84.77A14.11,14.11,0,0,1,227.84,85.15Zm1.79-27.68a10.65,10.65,0,0,0-10.43,10c-.21,3-.33,10.52,3.15,14.25A7.17,7.17,0,0,0,227.84,84h0a13.07,13.07,0,0,0,2.92-.36c4.63-1,10.4-5.5,12.86-9.91,1-1.74,1.83-4.32.43-6.77a11,11,0,0,0-3.53-3.33l-.67-.45a20.42,20.42,0,0,1-3.45-2.71A9.15,9.15,0,0,0,229.63,57.47Zm-1.32,24.45a6.38,6.38,0,0,1-4.85-2c-2.76-3-2.83-8.42-2.61-11.41a9,9,0,0,1,8.79-8.44,7.8,7.8,0,0,1,5.8,2.56,14,14,0,0,0,2.42,1.88l.5.34a9.18,9.18,0,0,1,2.94,2.82,5.94,5.94,0,0,1-.32,6,17.89,17.89,0,0,1-10.27,7.91A11,11,0,0,1,228.31,81.92Zm1.33-20.69A7.8,7.8,0,0,0,222,68.59c-.16,2.25-.25,7.8,2.31,10.54,1.41,1.51,3.48,2,6.15,1.37A16.86,16.86,0,0,0,240,73.16c1-1.84,1.13-3.49.32-4.92a8,8,0,0,0-2.59-2.43l-.49-.34a14.57,14.57,0,0,1-2.61-2A6.72,6.72,0,0,0,229.64,61.23Z" style="fill:#bda9a5"/><path d="M180.07,28.91a11.44,11.44,0,0,0-3.7-3.51,24.81,24.81,0,0,1-4-3.09c-6.39-6.79-17.54-1.94-18.19,7.39-.53,7.5.77,19.36,12.26,16.75,5-1.14,10.79-5.82,13.24-10.2C180.94,33.93,181.44,31.32,180.07,28.91ZM176,35.68c-1.83,3.27-6.17,6.77-9.9,7.62-8.58,2-9.55-6.91-9.16-12.51.49-7,8.82-10.6,13.6-5.53a18,18,0,0,0,3,2.31,8.5,8.5,0,0,1,2.76,2.63A5.4,5.4,0,0,1,176,35.68Z" style="fill:#fff"/><path d="M163.36,47.4h0A8.29,8.29,0,0,1,157,44.78c-3.65-3.91-3.73-11.15-3.45-15.12a11.81,11.81,0,0,1,11.58-11.11,10.28,10.28,0,0,1,7.61,3.36A18.72,18.72,0,0,0,176,24.46l.68.46a12,12,0,0,1,3.87,3.71c1.32,2.31,1.18,5-.42,7.9-2.64,4.74-8.62,9.35-13.61,10.48A14.15,14.15,0,0,1,163.36,47.4Zm1.79-27.69a10.66,10.66,0,0,0-10.43,10c-.21,3-.33,10.52,3.15,14.25a7.18,7.18,0,0,0,5.49,2.25h0a13.07,13.07,0,0,0,2.92-.36c4.63-1.05,10.4-5.5,12.86-9.91,1-1.74,1.83-4.32.43-6.77A11.16,11.16,0,0,0,176,25.87l-.67-.45a20.42,20.42,0,0,1-3.45-2.71A9.15,9.15,0,0,0,165.15,19.71Zm-1.32,24.45a6.35,6.35,0,0,1-4.85-2c-2.76-3-2.82-8.42-2.62-11.41a9,9,0,0,1,8.8-8.44,7.8,7.8,0,0,1,5.8,2.56,14,14,0,0,0,2.42,1.88l.5.34a9.28,9.28,0,0,1,2.94,2.82A5.94,5.94,0,0,1,176.5,36a17.89,17.89,0,0,1-10.27,7.91A11,11,0,0,1,163.83,44.16Zm1.33-20.69a7.8,7.8,0,0,0-7.64,7.36c-.16,2.25-.25,7.8,2.31,10.54,1.41,1.52,3.48,2,6.15,1.37a16.86,16.86,0,0,0,9.51-7.34c1-1.84,1.14-3.49.32-4.91a7.88,7.88,0,0,0-2.59-2.44l-.49-.34a14.14,14.14,0,0,1-2.61-2.05A6.72,6.72,0,0,0,165.16,23.47Z" style="fill:#bda9a5"/><path d="M90.62,54.35a11.44,11.44,0,0,0-3.7-3.51,24.26,24.26,0,0,1-4-3.09C76.5,41,65.35,45.81,64.7,55.14c-.53,7.5.76,19.37,12.26,16.75,5-1.14,10.79-5.82,13.23-10.2C91.49,59.37,92,56.76,90.62,54.35Zm-4.07,6.77c-1.83,3.27-6.17,6.77-9.9,7.63-8.59,2-9.55-6.92-9.16-12.52.49-7,8.82-10.6,13.6-5.52a18.1,18.1,0,0,0,3,2.3,8.5,8.5,0,0,1,2.76,2.63A5.42,5.42,0,0,1,86.55,61.12Z" style="fill:#fff"/><path d="M73.91,72.84h0a8.28,8.28,0,0,1-6.34-2.62c-3.65-3.91-3.73-11.15-3.45-15.12A11.81,11.81,0,0,1,75.7,44a10.25,10.25,0,0,1,7.61,3.36,18.68,18.68,0,0,0,3.26,2.54l.68.46a12.1,12.1,0,0,1,3.87,3.71c1.32,2.31,1.18,5-.42,7.9-2.64,4.74-8.62,9.35-13.61,10.48A14.15,14.15,0,0,1,73.91,72.84ZM75.7,45.15a10.65,10.65,0,0,0-10.43,10c-.21,3-.33,10.52,3.15,14.26a7.16,7.16,0,0,0,5.49,2.24h0a13.63,13.63,0,0,0,2.92-.35c4.63-1.06,10.4-5.51,12.86-9.92,1-1.73,1.83-4.32.42-6.77a11,11,0,0,0-3.52-3.33l-.67-.45a20,20,0,0,1-3.45-2.71A9.15,9.15,0,0,0,75.7,45.15ZM74.38,69.6a6.35,6.35,0,0,1-4.85-2c-2.77-3-2.83-8.42-2.62-11.41a9,9,0,0,1,8.8-8.44,7.83,7.83,0,0,1,5.8,2.56,13.5,13.5,0,0,0,2.42,1.88l.5.34a9.26,9.26,0,0,1,2.93,2.82c1,1.78.91,3.87-.31,6.06a17.91,17.91,0,0,1-10.27,7.9A11,11,0,0,1,74.38,69.6Zm1.33-20.69a7.8,7.8,0,0,0-7.64,7.36c-.16,2.26-.25,7.8,2.31,10.54,1.41,1.52,3.48,2,6.15,1.37A16.86,16.86,0,0,0,86,60.84c1-1.84,1.13-3.49.32-4.91a8.08,8.08,0,0,0-2.59-2.44l-.49-.34a14.55,14.55,0,0,1-2.62-2A6.68,6.68,0,0,0,75.71,48.91Z" style="fill:#bda9a5"/><path d="M73.83,128.11a11.47,11.47,0,0,0-3.7-3.52,24.34,24.34,0,0,1-4-3.08c-6.4-6.8-17.54-2-18.19,7.39-.53,7.49.76,19.36,12.26,16.74,5-1.13,10.79-5.82,13.23-10.19C74.7,133.12,75.2,130.51,73.83,128.11Zm-4.07,6.77c-1.83,3.27-6.17,6.77-9.9,7.62-8.59,1.95-9.55-6.92-9.16-12.52.49-7,8.82-10.59,13.59-5.52a18.06,18.06,0,0,0,3,2.3,8.71,8.71,0,0,1,2.76,2.63A5.44,5.44,0,0,1,69.76,134.88Z" style="fill:#fff"/><path d="M57.12,146.59h0A8.31,8.31,0,0,1,50.78,144c-3.65-3.92-3.73-11.16-3.45-15.12a11.81,11.81,0,0,1,11.58-11.11,10.25,10.25,0,0,1,7.61,3.36,19,19,0,0,0,3.25,2.54l.69.46a12.31,12.31,0,0,1,3.87,3.71c1.32,2.31,1.18,5.05-.42,7.91-2.64,4.74-8.62,9.34-13.62,10.48A14.62,14.62,0,0,1,57.12,146.59Zm1.79-27.68a10.65,10.65,0,0,0-10.43,10c-.21,3-.33,10.52,3.15,14.25a7.16,7.16,0,0,0,5.49,2.24h0a13.63,13.63,0,0,0,2.92-.35c4.63-1.06,10.4-5.5,12.86-9.92,1-1.73,1.83-4.31.42-6.77a11,11,0,0,0-3.52-3.32l-.67-.46a19.55,19.55,0,0,1-3.45-2.71A9.13,9.13,0,0,0,58.91,118.91Zm-1.32,24.44a6.35,6.35,0,0,1-4.85-2c-2.77-3-2.83-8.42-2.62-11.41a9,9,0,0,1,8.8-8.43,7.82,7.82,0,0,1,5.8,2.55A14.31,14.31,0,0,0,67.13,126l.5.34a9.08,9.08,0,0,1,2.94,2.82c1,1.77.91,3.86-.31,6A17.91,17.91,0,0,1,60,143.06,11,11,0,0,1,57.59,143.35Zm1.33-20.69A7.81,7.81,0,0,0,51.28,130c-.16,2.26-.25,7.8,2.31,10.54,1.41,1.52,3.48,2,6.15,1.37a16.86,16.86,0,0,0,9.51-7.34,4.77,4.77,0,0,0,.32-4.91A8.19,8.19,0,0,0,67,127.24l-.49-.33a15.06,15.06,0,0,1-2.62-2.06A6.68,6.68,0,0,0,58.92,122.66Z" style="fill:#bda9a5"/><path d="M113.25,102a11.44,11.44,0,0,0-3.7-3.51,24.26,24.26,0,0,1-4-3.09c-6.39-6.79-17.54-1.94-18.19,7.39-.53,7.5.77,19.37,12.26,16.75,5-1.14,10.79-5.82,13.23-10.2C114.12,107,114.62,104.43,113.25,102Zm-4.07,6.77c-1.83,3.27-6.17,6.77-9.9,7.63-8.58,2-9.55-6.92-9.16-12.52.49-7,8.82-10.6,13.6-5.52a18.1,18.1,0,0,0,3,2.3,8.5,8.5,0,0,1,2.76,2.63A5.39,5.39,0,0,1,109.18,108.79Z" style="fill:#fff"/><path d="M96.54,120.51h0a8.29,8.29,0,0,1-6.34-2.62c-3.65-3.91-3.73-11.15-3.45-15.12a11.81,11.81,0,0,1,11.58-11.1A10.25,10.25,0,0,1,105.94,95a18.68,18.68,0,0,0,3.26,2.54l.68.46a12.1,12.1,0,0,1,3.87,3.71c1.32,2.31,1.18,5-.42,7.91-2.64,4.74-8.62,9.34-13.61,10.47A14.15,14.15,0,0,1,96.54,120.51Zm1.79-27.69a10.66,10.66,0,0,0-10.43,10c-.21,3.05-.33,10.52,3.15,14.26a7.16,7.16,0,0,0,5.49,2.24h0a13.63,13.63,0,0,0,2.92-.35c4.63-1.06,10.4-5.51,12.86-9.92,1-1.73,1.83-4.32.43-6.77A11.16,11.16,0,0,0,109.22,99l-.67-.45a20.42,20.42,0,0,1-3.45-2.71A9.15,9.15,0,0,0,98.33,92.82ZM97,117.27a6.35,6.35,0,0,1-4.85-2c-2.76-3-2.83-8.42-2.62-11.41a9,9,0,0,1,8.8-8.44,7.83,7.83,0,0,1,5.8,2.56,13.5,13.5,0,0,0,2.42,1.88l.5.34A9.39,9.39,0,0,1,110,103a6,6,0,0,1-.32,6.06A17.91,17.91,0,0,1,99.41,117,11,11,0,0,1,97,117.27Zm1.33-20.69a7.8,7.8,0,0,0-7.64,7.36c-.16,2.26-.25,7.8,2.31,10.54,1.41,1.52,3.48,2,6.15,1.37a16.86,16.86,0,0,0,9.51-7.34c1-1.84,1.13-3.49.32-4.91a8.08,8.08,0,0,0-2.59-2.44l-.49-.34a14.55,14.55,0,0,1-2.62-2A6.68,6.68,0,0,0,98.34,96.58Z" style="fill:#bda9a5"/><path d="M143.32,69a11.47,11.47,0,0,0-3.7-3.52,24.34,24.34,0,0,1-4-3.08c-6.4-6.8-17.54-2-18.19,7.39-.53,7.49.76,19.36,12.26,16.74,5-1.14,10.79-5.82,13.23-10.19C144.19,74,144.69,71.38,143.32,69Zm-4.07,6.77c-1.83,3.26-6.17,6.77-9.9,7.62-8.59,1.95-9.55-6.92-9.16-12.52.49-7,8.82-10.6,13.6-5.52a18.1,18.1,0,0,0,3,2.3,8.71,8.71,0,0,1,2.76,2.63A5.44,5.44,0,0,1,139.25,75.75Z" style="fill:#fff"/><path d="M126.61,87.46h0a8.32,8.32,0,0,1-6.34-2.61c-3.65-3.92-3.73-11.16-3.45-15.13a11.81,11.81,0,0,1,11.58-11.1A10.25,10.25,0,0,1,136,62a18.68,18.68,0,0,0,3.26,2.54L140,65a12.1,12.1,0,0,1,3.87,3.71c1.32,2.31,1.18,5-.42,7.91-2.64,4.74-8.62,9.34-13.61,10.48A14.71,14.71,0,0,1,126.61,87.46Zm1.79-27.69a10.66,10.66,0,0,0-10.43,10c-.21,3-.33,10.52,3.15,14.25a7.16,7.16,0,0,0,5.49,2.24h0a13.63,13.63,0,0,0,2.92-.35c4.63-1.06,10.4-5.5,12.86-9.92,1-1.73,1.83-4.31.42-6.77a11,11,0,0,0-3.52-3.32l-.67-.46a19.55,19.55,0,0,1-3.45-2.71A9.15,9.15,0,0,0,128.4,59.77Zm-1.32,24.45a6.35,6.35,0,0,1-4.85-2c-2.77-3-2.83-8.42-2.62-11.41a9,9,0,0,1,8.8-8.43,7.82,7.82,0,0,1,5.8,2.55,14,14,0,0,0,2.42,1.89l.5.33A9.26,9.26,0,0,1,140.06,70c1,1.78.91,3.87-.31,6.06a17.91,17.91,0,0,1-10.27,7.9A11,11,0,0,1,127.08,84.22Zm1.33-20.69a7.81,7.81,0,0,0-7.64,7.36c-.16,2.26-.25,7.8,2.31,10.54,1.41,1.52,3.48,2,6.15,1.37a16.86,16.86,0,0,0,9.51-7.34,4.77,4.77,0,0,0,.32-4.91,8.19,8.19,0,0,0-2.59-2.44l-.49-.33a15.06,15.06,0,0,1-2.62-2.06A6.68,6.68,0,0,0,128.41,63.53Z" style="fill:#bda9a5"/><path d="M129.9,248.92a11.58,11.58,0,0,0-3.7-3.52,24.21,24.21,0,0,1-4-3.08c-6.39-6.79-17.54-1.94-18.19,7.39-.53,7.5.77,19.36,12.26,16.75,5-1.14,10.79-5.82,13.24-10.2C130.77,253.94,131.27,251.32,129.9,248.92Zm-4.07,6.77c-1.83,3.27-6.17,6.77-9.9,7.62-8.58,2-9.55-6.91-9.16-12.51.49-7,8.82-10.6,13.6-5.53a18,18,0,0,0,3,2.31,8.5,8.5,0,0,1,2.76,2.63A5.4,5.4,0,0,1,125.83,255.69Z" style="fill:#fff"/><path d="M113.19,267.4h0a8.32,8.32,0,0,1-6.34-2.61c-3.65-3.92-3.73-11.15-3.45-15.12A11.81,11.81,0,0,1,115,238.56a10.25,10.25,0,0,1,7.61,3.36,18.21,18.21,0,0,0,3.26,2.54l.68.47a12.07,12.07,0,0,1,3.87,3.7c1.32,2.32,1.18,5.05-.42,7.91-2.64,4.74-8.62,9.34-13.61,10.48A14.11,14.11,0,0,1,113.19,267.4ZM115,239.72a10.66,10.66,0,0,0-10.43,10c-.21,3-.33,10.52,3.15,14.25a7.18,7.18,0,0,0,5.49,2.25h0a13.07,13.07,0,0,0,2.92-.36c4.63-1.05,10.4-5.5,12.86-9.91,1-1.74,1.83-4.32.43-6.77a11,11,0,0,0-3.53-3.33l-.67-.46a19.87,19.87,0,0,1-3.45-2.7A9.15,9.15,0,0,0,115,239.72Zm-1.32,24.45a6.38,6.38,0,0,1-4.85-2c-2.76-3-2.83-8.42-2.62-11.41a9,9,0,0,1,8.8-8.44,7.8,7.8,0,0,1,5.8,2.56,14,14,0,0,0,2.42,1.88l.5.34a9.18,9.18,0,0,1,2.94,2.82,5.94,5.94,0,0,1-.32,6.05,17.83,17.83,0,0,1-10.27,7.9A10.43,10.43,0,0,1,113.66,264.17ZM115,243.48a7.8,7.8,0,0,0-7.64,7.36c-.16,2.25-.25,7.79,2.31,10.54,1.41,1.51,3.49,2,6.15,1.37a16.91,16.91,0,0,0,9.51-7.34c1-1.84,1.14-3.49.32-4.92a8.09,8.09,0,0,0-2.59-2.44l-.49-.33a15,15,0,0,1-2.61-2.05A6.67,6.67,0,0,0,115,243.48Z" style="fill:#bda9a5"/><path d="M118.62,180.53a10.87,10.87,0,0,0,2.56-4,21.93,21.93,0,0,1,2.1-4.26c5.07-7.09-1.39-16.44-10.07-15.35-7,.87-17.62,4.2-13.15,14.27,2,4.38,7.29,8.86,11.75,10.3C114.17,182.23,116.66,182.22,118.62,180.53Zm-7-2.52a16.35,16.35,0,0,1-8.78-7.69c-3.34-7.53,4.62-10,9.83-10.67,6.49-.81,11.32,6.17,7.52,11.47a17.76,17.76,0,0,0-1.57,3.18,8,8,0,0,1-1.91,3A5,5,0,0,1,111.67,178Z" style="fill:#fff"/><path d="M114.66,182.53h0a9.7,9.7,0,0,1-3-.52c-4.83-1.57-10.15-6.23-12.1-10.61-1.43-3.23-1.48-6.07-.14-8.43,2.61-4.62,9.73-6.15,13.75-6.66a11.08,11.08,0,0,1,11.37,5.94,9.77,9.77,0,0,1-.76,10.33A17.57,17.57,0,0,0,122,176l-.3.71A11.43,11.43,0,0,1,119,181,6.4,6.4,0,0,1,114.66,182.53Zm-.07-25.15a11.8,11.8,0,0,0-1.31.08c-3.06.39-10.44,1.74-12.89,6.08-1.14,2-1.07,4.51.2,7.39,1.8,4,6.91,8.53,11.4,10a8.6,8.6,0,0,0,2.67.47h0a5.33,5.33,0,0,0,3.58-1.29,10.34,10.34,0,0,0,2.4-3.82l.3-.7a19.1,19.1,0,0,1,1.87-3.66,8.56,8.56,0,0,0,.68-9.13A10.09,10.09,0,0,0,114.59,157.38ZM113.81,179a7.35,7.35,0,0,1-2.32-.4,16.82,16.82,0,0,1-9.13-8c-1.09-2.45-1.12-4.62-.1-6.43,2-3.51,7.36-4.67,10.39-5.05a8.44,8.44,0,0,1,8.65,4.52,7.45,7.45,0,0,1-.59,7.87,12.92,12.92,0,0,0-1.28,2.55l-.22.52a8.72,8.72,0,0,1-2.07,3.22A5,5,0,0,1,113.81,179Zm-.06-18.8a7.85,7.85,0,0,0-1,.06c-2.26.29-7.72,1.29-9.52,4.47-.83,1.48-.78,3.29.15,5.39a15.74,15.74,0,0,0,8.43,7.38,4.47,4.47,0,0,0,4.53-.58,7.54,7.54,0,0,0,1.76-2.81l.22-.51a14.43,14.43,0,0,1,1.41-2.77,6.25,6.25,0,0,0,.5-6.67A7.41,7.41,0,0,0,113.75,160.16Z" style="fill:#bda9a5"/><rect width="299.64" height="299.64" style="fill:none"/></g></g></svg>