<svg xmlns="http://www.w3.org/2000/svg" viewBox="0 0 312.44 312.44"><title>Pizza-crust</title><g style="isolation:isolate"><g id="Layer_2" data-name="Layer 2"><g id="Layer_1-2" data-name="Layer 1"><path d="M312.44,156.22A156.22,156.22,0,1,1,156.22,0,156.22,156.22,0,0,1,312.44,156.22Z" style="fill:#d8d6c9;mix-blend-mode:multiply"/><path d="M305.66,156A149.44,149.44,0,1,1,156.22,6.51,149.44,149.44,0,0,1,305.66,156Z" style="fill:#ffd364"/><path d="M156.22,306.16C73.4,306.16,6,238.77,6,156S73.4,5.74,156.22,5.74,306.43,73.12,306.43,156,239,306.16,156.22,306.16Zm0-298.88C74.25,7.28,7.56,74,7.56,156S74.25,304.61,156.22,304.61,304.88,237.92,304.88,156,238.19,7.28,156.22,7.28Z" style="fill:#cf673b"/><path d="M156.22,301.43C76,301.43,10.74,236.17,10.74,156S76,10.47,156.22,10.47,301.7,75.73,301.7,156,236.44,301.43,156.22,301.43Zm0-286.33C78.55,15.1,15.37,78.28,15.37,156S78.55,296.8,156.22,296.8,297.07,233.62,297.07,156,233.88,15.1,156.22,15.1Z" style="fill:#ffe753;mix-blend-mode:screen"/><path d="M296.2,156a140,140,0,1,1-140-140A140,140,0,0,1,296.2,156Z" style="fill:#ffd364;mix-blend-mode:multiply"/><path d="M292.22,155.43A136,136,0,1,1,155.7,20,136,136,0,0,1,292.22,155.43Z" style="fill:#ffd364"/><path d="M156.74,292.76C81.3,293,19.7,231.91,19.41,156.47S80.27,19.43,155.7,19.14,292.74,80,293,155.43,232.17,292.47,156.74,292.76Zm-1-272c-74.54.29-135,61.16-134.67,135.7s61.15,135,135.69,134.67S291.69,230,291.4,155.44,230.25,20.48,155.71,20.76Z" style="fill:#cf673b"/><rect x="6.79" y="6.51" width="299.64" height="299.64" style="fill:none"/></g></g></g></svg>