<svg xmlns="http://www.w3.org/2000/svg" viewBox="0 0 433.74 253.73"><title>PizzillaLogo</title><g id="Layer_2" data-name="Layer 2"><g id="Layer_1-2" data-name="Layer 1"><g id="Layer_1-2-2" data-name="Layer 1-2"><path d="M171.89,198.1c-.32,2.92.59,5.75-1,8.27-.56.89-.84,2.29-2.19,1.95s-.72-1.66-.78-2.59c-.1-1.56.16-3.15-.7-4.62-.71-1.21-1.32-1.46-2,0a9.59,9.59,0,0,1-3.13,4.12c-.61.42-1.26,1.12-2,.57s-.48-1.4-.11-2.07c1.75-3.13,1.58-6.37.74-9.69-.57-2.23-5.27-3.87-7-2.45-.74.6-.43,1.35-.34,2.07.79,7.2,1.85,14.39.91,21.65a47.87,47.87,0,0,1-1.19,7.63,7.46,7.46,0,0,1-5,5.14c-7.15,2.68-14.65,3.68-22.18,4.46a308.78,308.78,0,0,1-53.62.8c-7.9-.54-15.78-1.14-23.59-2.31-6.48-1-13-2-19.08-4.61-4.79-2.06-6.67-6.29-6.68-10.8s-1.66-6.89-5.54-9A53.87,53.87,0,0,1,3,195.19c-4.52-5-4-8,1.92-11.3,5.43-3.06,11.37-4.55,17.38-5.86a9.47,9.47,0,0,0,3.77-1.33c-3.07-1.7-5.93-3.13-8.7-4.7a38.34,38.34,0,0,1-8.26-6c-4-3.89-3.85-6.48.7-9.7,4.84-3.44,10.36-5.51,16-7.29l3.1-.94c.59-.18,1.56.06,1.54-.85,0-.68-.79-.93-1.44-1.18a60.18,60.18,0,0,1-12-5.89c-5.29-3.55-5.36-6.29-.09-9.87,4.23-2.87,9-4.5,13.83-6.12.51-.17,1.35.08,1.44-.68S31.53,122.42,31,122a45.61,45.61,0,0,1-7-5.62c-3.19-3.37-3.06-5.44.75-8.09a35.53,35.53,0,0,1,12.53-5.25c2.29-.53,1.89-1.27.72-2.55a41.21,41.21,0,0,1-5.54-7c-1.44-2.46-1.17-4,1.27-5.41a53.64,53.64,0,0,1,12.7-5c2-.58,2.21-1.15.74-2.53a25.23,25.23,0,0,1-4.45-5C41,72.77,41.4,70.77,44.3,69.2A39.67,39.67,0,0,1,53.67,66c1.83-.45,3.72-.38,4.31-3.39A75.55,75.55,0,0,1,71.4,32.09c3.43-4.68,8.45-6.68,13.73-7.94a228.26,228.26,0,0,0,32.65-10.51c5.76-2.32,11.67-4.33,18-4.86a10.31,10.31,0,0,1,7.47,2,32,32,0,0,1,8.83,9.7,7.32,7.32,0,0,1,.58,6.68c-1.4,3.46-2.81,6.94-5.13,9.91a3.28,3.28,0,0,0-.45,3c1.43,6.54.89,7.13-5.43,5.94-2.87-.55-2.85-.55-2.77,2.51v5.25c0,1.75-.83,2.41-2.49,2.31a14.61,14.61,0,0,1-3.95-.45c-1.51-.52-1.79.27-1.57,1.51.14.81.38,1.62.54,2.43.7,3.51-.4,5-4,5.33a12.16,12.16,0,0,1-2,.07c-1.68-.09-2.06.55-1.84,2.25.77,6,0,6.7-5.9,6.65-3.1,0-5.42,2.62-5.86,6.69-.68,6.18,2.06,10.45,7.94,12.41a8.19,8.19,0,0,1,1.18.4c2.29,1.25,4,.88,5.83-1.18,4.34-4.8,5.65-4.59,8.77,1.13,1,1.76,1.6,1.91,2.76.38.1-.12.22-.24.34-.36,3.92-4.14,4.54-4.18,7.88.3,1.21,1.62,1.65,1.22,2.62-.14,3.46-4.87,4.3-4.91,7.77.08,1.36,2,2.75,2.57,5,2,1.43-.38,3-.28,4.45-.53,2.12-.37,3.38.72,4.11,2.45,1.8,4.29,1.78,8.35-1.55,12.07-3.52,3.94-7.67,7.13-11.66,10.53-4.17,3.55-8.7,6.92-10.12,12.62a44.17,44.17,0,0,0-.83,13.42c.18,3.32.45,6.64.65,10,.11,1.81,1,2.34,2.67,1.73a47.65,47.65,0,0,1,7.15-2.09c1.79-.36,2.83-1.64,3.85-3,2.21-2.92,4.89-5.18,8.57-6,.73-.17,1.59-.48,2.08.25.62.93-.55,1.19-.92,1.75s-.84,1-1.22,1.58c-.27.39-.66.87-.23,1.33s.88,0,1.32-.21c2-.78,4-1.65,6.25-1.43.91.09,1.8.37,2,1.22.24,1.1-1,1.29-1.65,1.47a9.34,9.34,0,0,0-4,1.91c-.42.37-1,.72-.79,1.42s.82.41,1.28.54c1.18.33,2.51.23,3.51,1.13.29.26.84.47.62.94a1.5,1.5,0,0,1-1,.66,6.78,6.78,0,0,1-1.74.08,7.88,7.88,0,0,0-7.15,3.29,8.9,8.9,0,0,1-5.73,3.52c-3.64.74-6.42,3.37-9.22,5.71-1.16,1-3.36,1.6-3,3.31s2.58,1.4,4,1.88c4.1,1.36,8.19,2.72,12.27,4.13a4.53,4.53,0,0,1,1.89,1.17c3.87,4.56,7.94,9,9.56,15a10.42,10.42,0,0,1,.25,2.22c.05,1.29-.17,2.79-1.43,3.14s-1.19-1.31-1.76-2S173.42,198.63,171.89,198.1Z" style="fill:#d9463a"/><path d="M189.33,88.63a85.85,85.85,0,0,1-20.79-2.94,50,50,0,0,1-14.43-5.93c-7.32-4.53-9.1-9.69-6.23-17.8a39,39,0,0,1,9.72-14.6,9.32,9.32,0,0,1,1.58-1.21,1,1,0,0,1,1.17,0c.4.34.19.73,0,1.1-.5.84-.84,1.82,0,2.48s1.87.27,2.82-.23c4.73-2.5,8.21-6.46,11.72-10.32,5.18-5.68,7.62-13,10.9-19.73A25.89,25.89,0,0,1,197.21,7.34c.71-.37,1.51-1.07,2.26-.26s-.15,1.32-.42,2a12.49,12.49,0,0,0-1.29,3.74c-.13,1.85.05,3.53,2,4.42s3.37.23,4.77-1c2.22-2,4.52-3.94,6.69-6C215.7,6,221.22,3.84,227,2.08,235.1-.42,243.33-.48,251.66.9a40.62,40.62,0,0,0,9.48-.06c.58,0,1.21-.23,1.52.45a1.38,1.38,0,0,1-.44,1.57,14.76,14.76,0,0,1-6.63,4.22A12.44,12.44,0,0,0,251.31,9a1.24,1.24,0,0,0-.54,1.5c.21.58.75.59,1.24.63a5.53,5.53,0,0,0,4.66-1.29c5-5,11.09-6.32,17.86-5.84,2.68.19,5.21-1,7.83-1.4a11.78,11.78,0,0,1,1.2-.33c1.25,0,3.07-.95,3.53.65.41,1.43-1.59,1.54-2.58,2.09-3.21,1.77-6.4,3.53-8.66,6.55-5,6.74-12.4,9.76-20,12.45-1.23.43-3.1.68-3,2.14.16,1.62,2.18,1.5,3.47,1.69,4.38.65,7.86-1.48,11.2-3.91,2.2-1.6,4.23-3.51,7-4.13.66-.15,1.33-.42,1.8.28s-.24,1-.51,1.52a84.64,84.64,0,0,1-15,20.07,34.22,34.22,0,0,1-14.75,8.38c-4.05,1.17-8,2.6-12,4a8.6,8.6,0,0,0-1.53.81c-1.84,1.09-3.31,2.59-2.69,4.83.58,2.08,2.57,2.25,4.48,2.4,3.49.27,6.73-1.08,10.13-1.31,1.76-.11,4.18-1.15,5.07.65s-1.82,2.17-2.87,3.17c-4.45,4.25-8.83,8.6-13.92,12.12-7,4.84-14.84,7.57-23.07,9.48C202.55,87.85,195.25,88.12,189.33,88.63Z" style="fill:#d9463a"/><path d="M91.88,53.23c-1.06-.1-2.34.11-3.38-.84-1.25-1.12-2.11-2.45-1.62-4.17a4.44,4.44,0,0,1,3.67-3c3.82-.77,7.68-1.41,11.53-2,2.24-.35,2.55.1,1.78,2.23C102.38,49.53,96.83,53.2,91.88,53.23Z" style="fill:#fdf9f9"/><path d="M203,75.93a52.87,52.87,0,0,1-6.59,1.28c-1.73.11-1.88,0-1.13-1.61,1.74-3.75.33-7.52-3.15-8.24-2.76-.57-4.88,1.08-6.75,3a9.19,9.19,0,0,0-.64.76,7,7,0,0,0-1.28,5.14c.18,1.27-.39,1.83-1.66,1.84a55,55,0,0,1-13.1-1.28c-1.36-.32-1.42-1.12-.88-2.24A12.94,12.94,0,0,0,169,68.27a6.44,6.44,0,0,0-6.25-6.48c-.55,0-1.34.26-1.53-.44s.51-1,1-1.28c7.68-4.68,15-9.85,20.93-16.7,4-4.57,7.76-9.3,11.66-13.93a19.32,19.32,0,0,1,7.54-5.88c3.41-1.37,8.69.81,10.32,5.09a3.66,3.66,0,0,1-.43,2.63c-1.4,3.57-.57,8.22,4.88,8.18a3.13,3.13,0,0,1,3.11,1.9c2.11,3.81,4.49,7.46,5.88,11.67,1.12,3.4-.35,10.4-3,13-1.26,1.23-1.82,1-2.33-.6A6.07,6.07,0,0,0,214.42,61c-.93.12-.26.09-1.36.45a21.81,21.81,0,0,0-3.56,1.67c-1.89.77-1.16,3.93-.51,5.92s3.32,4.71,3.32,4.71" style="fill:#f9e066"/><path d="M162.25,60.07c-.48.79-1.23,1.49.62,1.53,3.88.08,6.32,2.71,6.39,6.53a12.34,12.34,0,0,1-1,6.29c-.66,1.26-.26,1.87,1.23,2.18a56,56,0,0,0,11.85,1c1.57,0,2.06-.62,1.92-2.07-.16-1.71,0-3.32,1.53-4.47-.69,2-1.38,4-.77,6.25.27,1-.63,1.23-1.45,1.23A61.44,61.44,0,0,1,168,77c-1.39-.32-1.27-1.12-.69-2.25,1.55-3,2.41-6.26.54-9.47-2.27-3.93-5.17-4.27-8.48-1.13-.54.51-1,1.11-1.58,1.59s-1,1.59-1.72.91a2,2,0,0,1,.08-2.56,8.73,8.73,0,0,1,3.89-3C160.79,60.78,161.31,60,162.25,60.07Z" style="fill:#edaf57"/><path d="M201.84,41.27c0,4.76-1.42,8.07-4.85,10.27a5.27,5.27,0,0,1-8.18-3,11.74,11.74,0,0,1,2.67-11.33c1.82-2.08,5.12-3.08,7.23-2A6.17,6.17,0,0,1,201.84,41.27Z" style="fill:#d9463a"/><text transform="translate(199.17 171.5)" style="isolation:isolate;font-size:70px;font-family:SigmarOne-Regular, Sigmar One">PIZ</text><text transform="translate(199.17 227.48)" style="isolation:isolate;font-size:70px;font-family:SigmarOne-Regular, Sigmar One">ZILLA</text></g></g></g></svg>