<svg xmlns="http://www.w3.org/2000/svg" viewBox="0 0 299.64 299.64"><title>Pizza-mushrooms</title><g style="isolation:isolate"><g id="Layer_2" data-name="Layer 2"><g id="Layer_1-2" data-name="Layer 1"><path d="M226.77,229.14c-2.55-2.57-2.18-5.43.58-7.54,3.78-2.9,10.16-2.71,12.58,1.85,1.12,2.11,1.58,7.21-1.2,8.49a18.17,18.17,0,0,1-3.55,1.3l-1.83,6.7-11-6Z" style="fill:#fff"/><path d="M233.35,240.51a.55.55,0,0,1-.28-.07l-11-6a.59.59,0,0,1-.3-.41.58.58,0,0,1,.15-.49l4-4.44a5.36,5.36,0,0,1-1.49-3.89,5.75,5.75,0,0,1,2.51-4.11,10.28,10.28,0,0,1,6.16-2,7.89,7.89,0,0,1,7.28,4.08A9.77,9.77,0,0,1,241,230a3.94,3.94,0,0,1-2,2.43,20.68,20.68,0,0,1-3.33,1.26l-1.74,6.37a.58.58,0,0,1-.34.38A.57.57,0,0,1,233.35,240.51Zm-10.06-6.7,9.69,5.27,1.64-6a.6.6,0,0,1,.45-.42,17.39,17.39,0,0,0,3.42-1.26,2.78,2.78,0,0,0,1.42-1.75,8.73,8.73,0,0,0-.49-5.93,6.77,6.77,0,0,0-6.26-3.48,9.13,9.13,0,0,0-5.46,1.81,4.65,4.65,0,0,0-2.06,3.27,4.5,4.5,0,0,0,1.54,3.4.58.58,0,0,1,0,.8Z" style="fill:#bda9a5"/><path d="M240.78,226.77c-1.2,2.85-5.69,3.91-8.32,3s-7.27-3.81-6.18-7.21c-1.73,2-1.68,4.35.49,6.54l-4.4,4.83.45.25c2.74-1.9,6.35-5.1,9.35-1.65a8,8,0,0,1,1.74,5.33l1.27-4.66a18.17,18.17,0,0,0,3.55-1.3C240.46,231.15,240.93,228.87,240.78,226.77Z" style="fill:#e5e5e5;mix-blend-mode:multiply"/><path d="M76.39,240.63c-2.55-2.56-2.18-5.42.58-7.53,3.78-2.9,10.16-2.71,12.58,1.85,1.12,2.11,1.58,7.21-1.2,8.49a18.17,18.17,0,0,1-3.55,1.3L83,251.43l-11-6Z" style="fill:#fff"/><path d="M83,252a.55.55,0,0,1-.28-.07l-11-6a.55.55,0,0,1-.29-.42.54.54,0,0,1,.14-.48l4-4.44a5.38,5.38,0,0,1-1.49-3.9,5.75,5.75,0,0,1,2.51-4.1,10.29,10.29,0,0,1,6.16-2,7.88,7.88,0,0,1,7.28,4.09,9.76,9.76,0,0,1,.57,6.85,3.94,3.94,0,0,1-2,2.43,21.75,21.75,0,0,1-3.33,1.26l-1.74,6.37a.56.56,0,0,1-.33.37A.48.48,0,0,1,83,252Zm-10.06-6.7,9.69,5.27,1.65-6a.56.56,0,0,1,.44-.41,17.39,17.39,0,0,0,3.42-1.26,2.78,2.78,0,0,0,1.42-1.75,8.76,8.76,0,0,0-.49-5.94,6.78,6.78,0,0,0-6.26-3.47,9.13,9.13,0,0,0-5.46,1.81,4.65,4.65,0,0,0-2.06,3.26,4.52,4.52,0,0,0,1.54,3.41.58.58,0,0,1,0,.8Z" style="fill:#bda9a5"/><path d="M90.4,238.26c-1.2,2.86-5.69,3.92-8.31,3s-7.28-3.81-6.19-7.21c-1.72,2-1.68,4.36.49,6.54L72,245.47l.45.24c2.74-1.9,6.35-5.1,9.35-1.65a8,8,0,0,1,1.74,5.33l1.27-4.65a18.17,18.17,0,0,0,3.55-1.3C90.08,242.64,90.55,240.37,90.4,238.26Z" style="fill:#e5e5e5;mix-blend-mode:multiply"/><path d="M130,197.62c3.2,1.69,3.69,4.53,1.69,7.36-2.75,3.9-8.9,5.61-12.56,2-1.69-1.67-3.65-6.41-1.38-8.45a18.12,18.12,0,0,1,3-2.3l-.24-6.94,12.26,2.43Z" style="fill:#fff"/><path d="M124.12,209.54a7.47,7.47,0,0,1-5.38-2.17,9.87,9.87,0,0,1-2.58-6.37,3.93,3.93,0,0,1,1.22-2.93,21.73,21.73,0,0,1,2.8-2.19l-.23-6.6a.6.6,0,0,1,.21-.46.59.59,0,0,1,.48-.13l12.26,2.43a.59.59,0,0,1,.41.31.61.61,0,0,1,0,.51l-2.55,5.44a5.35,5.35,0,0,1,2.59,3.27,5.77,5.77,0,0,1-1.17,4.67A10.21,10.21,0,0,1,124.12,209.54Zm-3-19.57.22,6.21a.6.6,0,0,1-.3.53,17.43,17.43,0,0,0-2.89,2.22,2.74,2.74,0,0,0-.84,2.09,8.79,8.79,0,0,0,2.23,5.52,6.31,6.31,0,0,0,4.57,1.84,9,9,0,0,0,7.12-3.73,4.63,4.63,0,0,0,1-3.73,4.47,4.47,0,0,0-2.48-2.79.59.59,0,0,1-.25-.76l2.45-5.25Z" style="fill:#bda9a5"/><path d="M117.36,204.05c.29-3.09,4.26-5.44,7-5.38s8.08,1.47,8,5c1.06-2.38.3-4.66-2.42-6.09l2.77-5.93-.5-.1c-2,2.63-4.55,6.76-8.44,4.36a8,8,0,0,1-3.25-4.57l.17,4.82a18.12,18.12,0,0,0-3,2.3C116.36,199.77,116.58,202.08,117.36,204.05Z" style="fill:#e5e5e5;mix-blend-mode:multiply"/><path d="M35.7,164.16c3.19,1.69,3.69,4.53,1.69,7.36-2.76,3.9-8.9,5.62-12.57,2-1.69-1.68-3.65-6.41-1.38-8.46a18.12,18.12,0,0,1,3-2.3l-.23-6.94,12.25,2.43Z" style="fill:#fff"/><path d="M29.8,176.08a7.49,7.49,0,0,1-5.39-2.17,9.79,9.79,0,0,1-2.57-6.37,4,4,0,0,1,1.21-2.93,21.73,21.73,0,0,1,2.8-2.19l-.22-6.6a.59.59,0,0,1,.2-.46.58.58,0,0,1,.49-.12l12.26,2.43a.56.56,0,0,1,.4.3.61.61,0,0,1,0,.51l-2.54,5.44A5.37,5.37,0,0,1,39,167.19a5.77,5.77,0,0,1-1.18,4.67A10.19,10.19,0,0,1,29.8,176.08Zm-3-19.57.21,6.21a.57.57,0,0,1-.3.53,18.2,18.2,0,0,0-2.89,2.22,2.84,2.84,0,0,0-.84,2.1,8.82,8.82,0,0,0,2.24,5.52,6.34,6.34,0,0,0,4.57,1.83,9,9,0,0,0,7.11-3.73,4.62,4.62,0,0,0,1-3.73,4.5,4.5,0,0,0-2.48-2.79.58.58,0,0,1-.26-.76l2.46-5.25Z" style="fill:#bda9a5"/><path d="M23,170.59c.29-3.09,4.27-5.43,7-5.38s8.08,1.48,8.05,5c1.06-2.38.31-4.65-2.41-6.09l2.76-5.93-.5-.1c-2.05,2.63-4.55,6.76-8.43,4.36a7.87,7.87,0,0,1-3.25-4.57l.16,4.82a18.12,18.12,0,0,0-3,2.3C22,166.31,22.25,168.62,23,170.59Z" style="fill:#e5e5e5;mix-blend-mode:multiply"/><path d="M200,187.19c-3.58.57-5.68-1.4-5.78-4.87-.15-4.77,3.73-9.83,8.85-9.13,2.36.33,6.77,2.93,6.19,5.93a18.17,18.17,0,0,1-1,3.64l4.36,5.4-11.25,5.43Z" style="fill:#fff"/><path d="M201.37,194.17a.58.58,0,0,1-.26-.06.56.56,0,0,1-.31-.4l-1.24-5.88c-3.56.35-5.79-1.77-5.9-5.49a10.23,10.23,0,0,1,2.86-7.29,7.66,7.66,0,0,1,6.65-2.43,9.81,9.81,0,0,1,5.89,3.54,4,4,0,0,1,.79,3.07,21.53,21.53,0,0,1-.93,3.43l4.15,5.14a.58.58,0,0,1,.12.49.61.61,0,0,1-.32.4l-11.25,5.43A.74.74,0,0,1,201.37,194.17ZM200,186.62a.56.56,0,0,1,.56.46l1.2,5.67,9.93-4.79-3.9-4.84a.57.57,0,0,1-.08-.6,17,17,0,0,0,1-3.51,2.78,2.78,0,0,0-.59-2.18,8.79,8.79,0,0,0-5.11-3.06,6.65,6.65,0,0,0-5.66,2.08,9.06,9.06,0,0,0-2.53,6.46c.09,3.18,2,4.81,5.11,4.31Z" style="fill:#bda9a5"/><path d="M206.27,174.44c1.62,2.64-.14,6.91-2.38,8.52s-7.35,3.68-9.47.81c.59,2.55,2.56,3.91,5.6,3.42l1.35,6.4.46-.22c.06-3.34-.43-8.14,4.12-8.55a7.84,7.84,0,0,1,5.34,1.7l-3-3.76a18.17,18.17,0,0,0,1-3.64C209.64,177.26,208.08,175.55,206.27,174.44Z" style="fill:#e5e5e5;mix-blend-mode:multiply"/><path d="M231.93,104.84c3.62.06,5.34,2.37,4.84,5.81-.7,4.71-5.4,9-10.32,7.44-2.26-.74-6.15-4.07-5-6.92a17.46,17.46,0,0,1,1.64-3.41l-3.35-6.08,12-3.38Z" style="fill:#fff"/><path d="M228.56,119a7.39,7.39,0,0,1-2.28-.36,9.82,9.82,0,0,1-5.18-4.52,3.93,3.93,0,0,1-.24-3.16,22,22,0,0,1,1.51-3.22L219.18,102a.55.55,0,0,1,0-.5.58.58,0,0,1,.38-.34l12-3.38a.58.58,0,0,1,.74.54l.19,6a5.33,5.33,0,0,1,3.79,1.75,5.74,5.74,0,0,1,1.06,4.69C236.67,115.29,232.73,119,228.56,119Zm-8-17,3,5.44a.56.56,0,0,1,0,.61,18.38,18.38,0,0,0-1.57,3.29,2.77,2.77,0,0,0,.2,2.24,8.81,8.81,0,0,0,4.49,3.92,6.37,6.37,0,0,0,1.93.3c3.62,0,7-3.26,7.64-7.28a4.69,4.69,0,0,0-.8-3.78,4.51,4.51,0,0,0-3.48-1.36.59.59,0,0,1-.57-.56l-.19-5.8Z" style="fill:#bda9a5"/><path d="M223.54,116.3c-1.14-2.88,1.35-6.77,3.84-8s7.87-2.34,9.46.86c-.13-2.61-1.84-4.3-4.91-4.35l-.21-6.54-.5.14c-.64,3.27-1,8.09-5.55,7.7a7.87,7.87,0,0,1-5-2.61l2.33,4.23a17.46,17.46,0,0,0-1.64,3.41C220.71,112.94,222,114.9,223.54,116.3Z" style="fill:#e5e5e5;mix-blend-mode:multiply"/><path d="M184.11,75.07c-3.57.57-5.68-1.41-5.78-4.87-.14-4.77,3.74-9.84,8.86-9.13,2.36.32,6.77,2.93,6.18,5.93a18.14,18.14,0,0,1-1,3.64l4.36,5.4-11.26,5.43Z" style="fill:#fff"/><path d="M185.46,82.05a.54.54,0,0,1-.25-.06.61.61,0,0,1-.32-.4l-1.23-5.88c-3.57.35-5.8-1.78-5.91-5.5a10.24,10.24,0,0,1,2.86-7.29,7.67,7.67,0,0,1,6.66-2.42A9.79,9.79,0,0,1,193.16,64a3.92,3.92,0,0,1,.78,3.07,21.1,21.1,0,0,1-.92,3.43l4.15,5.14a.56.56,0,0,1,.11.49.58.58,0,0,1-.31.39L185.71,82A.54.54,0,0,1,185.46,82.05Zm-1.35-7.56a.59.59,0,0,1,.57.46l1.19,5.68,9.94-4.79L191.9,71a.59.59,0,0,1-.07-.6,18.39,18.39,0,0,0,1-3.52,2.76,2.76,0,0,0-.59-2.17,8.78,8.78,0,0,0-5.1-3.07,6.64,6.64,0,0,0-5.67,2.09,9.06,9.06,0,0,0-2.53,6.45c.09,3.19,2,4.82,5.11,4.32Z" style="fill:#bda9a5"/><path d="M190.37,62.32c1.62,2.64-.15,6.9-2.39,8.52s-7.34,3.68-9.46.81c.58,2.54,2.55,3.9,5.59,3.42l1.35,6.4.47-.23c0-3.33-.43-8.13,4.11-8.55a8,8,0,0,1,5.35,1.7l-3-3.75a18.14,18.14,0,0,0,1-3.64C193.74,65.13,192.17,63.42,190.37,62.32Z" style="fill:#e5e5e5;mix-blend-mode:multiply"/><path d="M131.59,43.16c-2.73,2.38-5.56,1.81-7.48-1.08-2.64-4-2-10.32,2.69-12.43,2.18-1,7.3-1.09,8.39,1.76A18,18,0,0,1,136.25,35l6.56,2.28-6.69,10.56Z" style="fill:#fff"/><path d="M136.12,48.46a.55.55,0,0,1-.41-.18L131.55,44c-2.76,2.1-5.9,1.49-7.92-1.55a10.27,10.27,0,0,1-1.28-8.31,7.65,7.65,0,0,1,4.21-5,9.62,9.62,0,0,1,3.67-.67c2.83,0,4.83,1,5.5,2.75a22.2,22.2,0,0,1,1,3.41L143,36.77a.57.57,0,0,1,.35.36.59.59,0,0,1,0,.5l-6.69,10.56a.54.54,0,0,1-.43.26Zm-4.53-5.88a.56.56,0,0,1,.42.18L136,47l5.9-9.32-5.87-2a.59.59,0,0,1-.39-.47,17.56,17.56,0,0,0-1-3.5c-.71-1.87-3.55-2-4.41-2a8.5,8.5,0,0,0-3.19.57,6.46,6.46,0,0,0-3.58,4.23,9.07,9.07,0,0,0,1.13,7.35c1.77,2.65,4.25,3,6.62,1A.57.57,0,0,1,131.59,42.58Z" style="fill:#bda9a5"/><path d="M130.16,29c2.77,1.38,3.53,5.94,2.48,8.5s-4.29,7-7.6,5.69c1.84,1.85,4.23,2,6.55-.06l4.53,4.72.28-.44c-1.72-2.86-4.67-6.68-1-9.43a8,8,0,0,1,5.44-1.39L136.25,35a18,18,0,0,0-1.06-3.63C134.51,29.64,132.27,29,130.16,29Z" style="fill:#e5e5e5;mix-blend-mode:multiply"/><path d="M49.24,101.79c1.09,3.45-.55,5.82-4,6.44-4.69.84-10.27-2.26-10.33-7.42,0-2.39,1.9-7.13,5-7a17.88,17.88,0,0,1,3.75.47l4.71-5.11,7,10.34Z" style="fill:#fff"/><path d="M43.7,108.94c-4.45,0-9.29-3.11-9.34-8.13a9.93,9.93,0,0,1,2.54-6.25,4,4,0,0,1,2.86-1.32h.16a21.36,21.36,0,0,1,3.53.41l4.47-4.86a.57.57,0,0,1,.47-.19.6.6,0,0,1,.44.26l7,10.33a.58.58,0,0,1-.28.87l-5.63,2.09a5.38,5.38,0,0,1-.45,4.15,5.76,5.76,0,0,1-4.12,2.49A9.18,9.18,0,0,1,43.7,108.94ZM39.86,94.4a2.89,2.89,0,0,0-2.13,1,8.68,8.68,0,0,0-2.21,5.42c0,4.87,5.46,7.6,9.65,6.86a4.67,4.67,0,0,0,3.33-2,4.53,4.53,0,0,0,.19-3.74.58.58,0,0,1,.35-.71l5.44-2-6.2-9.12-4.21,4.57a.58.58,0,0,1-.58.17,17,17,0,0,0-3.62-.45Z" style="fill:#bda9a5"/><path d="M35.71,97.48c2.37-2,6.85-.87,8.78,1.11s4.72,6.72,2.19,9.24c2.43-1,3.49-3.11,2.56-6l6.13-2.27-.29-.43c-3.3.43-8,1.62-9.06-2.82a7.89,7.89,0,0,1,.89-5.53l-3.27,3.55a17.88,17.88,0,0,0-3.75-.47C38,93.73,36.54,95.53,35.71,97.48Z" style="fill:#e5e5e5;mix-blend-mode:multiply"/><path d="M91.18,128c-.41-3.59,1.65-5.61,5.12-5.56,4.77.06,9.66,4.15,8.74,9.24-.43,2.34-3.22,6.64-6.19,5.92a17.88,17.88,0,0,1-3.59-1.17l-5.59,4.12-4.94-11.48Z" style="fill:#fff"/><path d="M89.67,141.17a.39.39,0,0,1-.15,0,.57.57,0,0,1-.38-.33L84.2,129.34a.58.58,0,0,1,0-.5.59.59,0,0,1,.42-.3l5.92-1a5.4,5.4,0,0,1,1.22-4,5.67,5.67,0,0,1,4.4-1.69,10.3,10.3,0,0,1,7.71,3.64,7.65,7.65,0,0,1,1.72,6.28c-.4,2.2-2.91,6.48-6.09,6.48a3.57,3.57,0,0,1-.8-.09,21.16,21.16,0,0,1-3.39-1.07L90,141.06A.66.66,0,0,1,89.67,141.17Zm-4.11-11.61,4.35,10.13,5-3.69a.61.61,0,0,1,.61-.05A16.87,16.87,0,0,0,99,137.08c2.53.6,5.11-3.42,5.48-5.47a6.42,6.42,0,0,0-1.47-5.33,9,9,0,0,0-6.71-3.22h0a4.68,4.68,0,0,0-3.65,1.3,4.53,4.53,0,0,0-.88,3.62.58.58,0,0,1-.48.63Z" style="fill:#bda9a5"/><path d="M103.66,134.84c-2.71,1.51-6.9-.44-8.42-2.75s-3.36-7.5-.4-9.49c-2.57.47-4,2.39-3.66,5.44l-6.45,1.07.21.48c3.33.2,8.15-.08,8.36,4.48a7.88,7.88,0,0,1-1.93,5.27l3.89-2.87a17.88,17.88,0,0,0,3.59,1.17C100.7,138.09,102.47,136.6,103.66,134.84Z" style="fill:#e5e5e5;mix-blend-mode:multiply"/><path d="M124.55,96.38c-.42-3.6,1.65-5.62,5.11-5.57,4.77.06,9.67,4.16,8.74,9.24-.42,2.35-3.21,6.64-6.18,5.93a17.67,17.67,0,0,1-3.6-1.18L123,108.93,118.1,97.45Z" style="fill:#fff"/><path d="M123,109.5h-.16a.6.6,0,0,1-.38-.33l-4.93-11.48a.57.57,0,0,1,0-.51.56.56,0,0,1,.41-.29l5.93-1a5.38,5.38,0,0,1,1.21-4,5.69,5.69,0,0,1,4.4-1.7,10.29,10.29,0,0,1,7.71,3.64,7.58,7.58,0,0,1,1.72,6.28c-.4,2.2-2.91,6.48-6.09,6.48a3.57,3.57,0,0,1-.8-.09,21.92,21.92,0,0,1-3.39-1.07l-5.31,3.92A.53.53,0,0,1,123,109.5Zm-4.12-11.6L123.28,108l5-3.69a.55.55,0,0,1,.6,0,18.57,18.57,0,0,0,3.47,1.12c2.54.6,5.11-3.42,5.49-5.46a6.48,6.48,0,0,0-1.48-5.34,9.07,9.07,0,0,0-6.7-3.22h0A4.68,4.68,0,0,0,126,92.7a4.53,4.53,0,0,0-.88,3.61.57.57,0,0,1-.48.64Z" style="fill:#bda9a5"/><path d="M137,103.17c-2.71,1.51-6.89-.44-8.41-2.75s-3.36-7.49-.4-9.49c-2.57.48-4,2.39-3.66,5.45l-6.45,1.07.2.47c3.33.2,8.15-.08,8.37,4.48a8,8,0,0,1-1.93,5.27l3.88-2.87a17.67,17.67,0,0,0,3.6,1.18C134.06,106.42,135.84,104.93,137,103.17Z" style="fill:#e5e5e5;mix-blend-mode:multiply"/><rect width="299.64" height="299.64" style="fill:none"/></g></g></g></svg>