<svg xmlns="http://www.w3.org/2000/svg" viewBox="0 0 299.64 299.64"><title>Pizza-ham</title><g style="isolation:isolate"><g id="Layer_2" data-name="Layer 2"><g id="Layer_1-2" data-name="Layer 1"><rect x="65.67" y="168.53" width="8.84" height="14.55" transform="translate(-118.56 190.95) rotate(-72.85)" style="fill:#eb9291"/><path d="M76.26,183.14l-15.38-4.75,3.06-9.92,15.38,4.75Zm-13.45-5.77,12.42,3.84,2.16-7L65,170.4Z" style="fill:#d87a93"/><g style="mix-blend-mode:screen"><rect x="67.9" y="169.09" width="2.83" height="8.94" transform="matrix(0.29, -0.96, 0.96, 0.29, -116.97, 188.59)" style="fill:#eb9291"/></g><rect x="131.51" y="184.33" width="11.12" height="6.75" transform="translate(-59.21 63.23) rotate(-21.48)" style="fill:#eb9291"/><path d="M132.7,193.88l-3-7.72,11.78-4.63,3,7.72Zm-1-6.84,1.91,4.84,8.91-3.5-1.91-4.85Z" style="fill:#d87a93"/><g style="mix-blend-mode:screen"><rect x="132.12" y="185.66" width="6.83" height="2.16" transform="translate(-58.94 62.56) rotate(-21.47)" style="fill:#eb9291"/></g><rect x="100.7" y="231.76" width="11.12" height="6.75" transform="translate(-78.72 55.24) rotate(-21.48)" style="fill:#eb9291"/><path d="M101.89,241.32l-3-7.73L110.63,229l3,7.72Zm-1-6.85,1.91,4.84,8.91-3.5L109.76,231Z" style="fill:#d87a93"/><g style="mix-blend-mode:screen"><rect x="101.31" y="233.09" width="6.83" height="2.16" transform="translate(-78.43 54.56) rotate(-21.46)" style="fill:#eb9291"/></g><rect x="63.76" y="223.15" width="11.12" height="6.75" transform="matrix(0.93, -0.37, 0.37, 0.93, -78.12, 41.1)" style="fill:#eb9291"/><path d="M64.94,232.7l-3-7.72,11.78-4.63,3,7.72Zm-1-6.85,1.9,4.85,8.91-3.5-1.91-4.85Z" style="fill:#d87a93"/><g style="mix-blend-mode:screen"><rect x="64.36" y="224.48" width="6.83" height="2.16" transform="translate(-77.84 40.45) rotate(-21.47)" style="fill:#eb9291"/></g><rect x="100.35" y="262.61" width="6.76" height="11.12" transform="translate(-183.8 269.05) rotate(-69.03)" style="fill:#eb9291"/><path d="M108.15,274.31l-11.82-4.53,3-7.75,11.82,4.53Zm-9.83-5.42,8.94,3.42,1.87-4.86L100.19,264Z" style="fill:#d87a93"/><g style="mix-blend-mode:screen"><rect x="102.16" y="263" width="2.16" height="6.83" transform="translate(-182.48 267.44) rotate(-69.02)" style="fill:#eb9291"/></g><rect x="176.41" y="220.09" width="6.75" height="11.12" transform="translate(-95.25 312.78) rotate(-69.03)" style="fill:#eb9291"/><path d="M184.22,231.79l-11.82-4.54,3-7.74L187.19,224Zm-9.83-5.42,8.94,3.42,1.86-4.86-8.93-3.43Z" style="fill:#d87a93"/><g style="mix-blend-mode:screen"><rect x="178.23" y="220.48" width="2.16" height="6.83" transform="translate(-93.94 311.17) rotate(-69.02)" style="fill:#eb9291"/></g><rect x="212.86" y="250.13" width="11.12" height="6.75" transform="translate(-97.13 142.14) rotate(-29.81)" style="fill:#eb9291"/><path d="M215,260.25l-4.13-7.2,11-6.29L226,254Zm-2-6.63,2.59,4.52,8.31-4.76-2.6-4.52Z" style="fill:#d87a93"/><g style="mix-blend-mode:screen"><rect x="213.34" y="251.69" width="6.83" height="2.16" transform="translate(-96.94 141.1) rotate(-29.79)" style="fill:#eb9291"/></g><rect x="212.14" y="169.41" width="11.11" height="6.75" transform="translate(-57.09 131.08) rotate(-29.81)" style="fill:#eb9291"/><path d="M214.27,179.53l-4.13-7.2,11-6.29,4.12,7.2Zm-2-6.63,2.59,4.52,8.31-4.76-2.6-4.52Z" style="fill:#d87a93"/><g style="mix-blend-mode:screen"><rect x="212.62" y="170.97" width="6.83" height="2.16" transform="translate(-56.94 130.13) rotate(-29.8)" style="fill:#eb9291"/></g><rect x="248.64" y="213.89" width="6.75" height="11.12" transform="translate(-72.17 300.52) rotate(-55.09)" style="fill:#eb9291"/><path d="M254.83,226.47l-10.38-7.25,4.75-6.8,10.38,7.24Zm-8.23-7.63,7.85,5.48,3-4.27-7.85-5.48Z" style="fill:#d87a93"/><g style="mix-blend-mode:screen"><rect x="250.89" y="214.22" width="2.16" height="6.83" transform="translate(-70.71 299.67) rotate(-55.08)" style="fill:#eb9291"/></g><rect x="260.86" y="131.65" width="6.75" height="11.11" transform="translate(0.5 275.37) rotate(-55.09)" style="fill:#eb9291"/><path d="M267.05,144.24,256.67,137l4.75-6.8,10.38,7.24Zm-8.23-7.63,7.85,5.48,3-4.28-7.85-5.47Z" style="fill:#d87a93"/><g style="mix-blend-mode:screen"><rect x="263.11" y="131.98" width="2.16" height="6.83" transform="translate(1.94 274.52) rotate(-55.08)" style="fill:#eb9291"/></g><rect x="200.65" y="42.06" width="6.75" height="11.12" transform="translate(48.21 187.68) rotate(-55.09)" style="fill:#eb9291"/><path d="M206.84,54.64,196.46,47.4l4.75-6.81,10.38,7.25ZM198.61,47l7.85,5.48,3-4.27-7.85-5.48Z" style="fill:#d87a93"/><g style="mix-blend-mode:screen"><rect x="202.9" y="42.39" width="2.16" height="6.83" transform="translate(49.66 186.85) rotate(-55.08)" style="fill:#eb9291"/></g><rect x="162.84" y="93.22" width="11.12" height="6.75" transform="translate(-25.16 81.6) rotate(-25.41)" style="fill:#eb9291"/><path d="M164.46,103.06l-3.56-7.49,11.44-5.44,3.56,7.5ZM163,96.3l2.23,4.7,8.65-4.1-2.23-4.71Z" style="fill:#d87a93"/><g style="mix-blend-mode:screen"><rect x="163.39" y="94.66" width="6.83" height="2.16" transform="translate(-24.94 80.74) rotate(-25.38)" style="fill:#eb9291"/></g><rect x="106.17" y="38.81" width="11.12" height="6.75" transform="translate(-7.29 52.02) rotate(-25.41)" style="fill:#eb9291"/><path d="M107.79,48.65l-3.56-7.5,11.44-5.43,3.56,7.5Zm-1.5-6.77,2.23,4.71,8.65-4.1-2.24-4.71Z" style="fill:#d87a93"/><g style="mix-blend-mode:screen"><rect x="106.72" y="40.25" width="6.83" height="2.16" transform="translate(-7.08 51.21) rotate(-25.39)" style="fill:#eb9291"/></g><rect x="56.17" y="79.03" width="6.75" height="11.12" transform="translate(-39.75 113.59) rotate(-71.14)" style="fill:#eb9291"/><path d="M64.19,90.56l-12-4.1,2.68-7.85,12,4.09Zm-10-5.06,9,3.1,1.69-4.93-9.06-3.1Z" style="fill:#d87a93"/><g style="mix-blend-mode:screen"><rect x="57.92" y="79.44" width="2.16" height="6.83" transform="translate(-38.48 111.89) rotate(-71.13)" style="fill:#eb9291"/></g><rect x="113.9" y="89.5" width="6.75" height="11.12" transform="translate(-10.59 175.3) rotate(-71.14)" style="fill:#eb9291"/><path d="M121.92,101l-12-4.1,2.68-7.85,12,4.09Zm-10-5.06,9,3.1,1.69-4.93L113.59,91Z" style="fill:#d87a93"/><g style="mix-blend-mode:screen"><rect x="115.65" y="89.91" width="2.16" height="6.83" transform="translate(-9.33 173.6) rotate(-71.13)" style="fill:#eb9291"/></g><rect x="70.77" y="140.35" width="6.75" height="11.12" transform="translate(-87.9 168.9) rotate(-71.14)" style="fill:#eb9291"/><path d="M78.79,151.88l-12-4.09,2.68-7.85,12,4.09Zm-10-5,9.06,3.09L79.52,145l-9.06-3.09Z" style="fill:#d87a93"/><g style="mix-blend-mode:screen"><rect x="72.52" y="140.77" width="2.16" height="6.83" transform="translate(-86.63 167.2) rotate(-71.13)" style="fill:#eb9291"/></g><rect x="163.49" y="142.75" width="11.11" height="6.75" transform="translate(-46.35 86.68) rotate(-25.41)" style="fill:#eb9291"/><path d="M165.11,152.59l-3.56-7.49L173,139.67l3.56,7.49Zm-1.5-6.76,2.24,4.7,8.64-4.1-2.23-4.71Z" style="fill:#d87a93"/><g style="mix-blend-mode:screen"><rect x="164.04" y="144.19" width="6.83" height="2.16" transform="translate(-46.11 85.83) rotate(-25.39)" style="fill:#eb9291"/></g><rect width="299.64" height="299.64" style="fill:none"/></g></g></g></svg>