<svg xmlns="http://www.w3.org/2000/svg" viewBox="0 0 299.64 299.64"><title>Pizza-basil</title><g style="isolation:isolate"><g id="Layer_2" data-name="Layer 2"><g id="Layer_1-2" data-name="Layer 1"><path d="M216.15,84.05a24.29,24.29,0,0,1-.8-3.45c-.21-.85-.43-1.68-.66-2.5a27,27,0,0,0-15.3,9.39c-1.5,1.76-3.24,3.92-3.5,6.32-.42,4,1.29,7.31,1.93,11.11,0,.12.17,0,.3-.07,0,.05,0,.1,0,.15a29.58,29.58,0,0,0,9.47-3,28.69,28.69,0,0,0,4.91-4.19,14.9,14.9,0,0,0,3.52-5.64,12.44,12.44,0,0,0,.63-5.22C216.54,86,216.35,85,216.15,84.05Z" style="fill:#68a537"/><path d="M199.82,103.9c-.46.12.07-3.32.16-3.83a.76.76,0,0,0,.08.11.24.24,0,0,0,.2,0c1.72-.41,3.62-2,5-3.12a21.75,21.75,0,0,0,4.05-4c.23-.35-2.3,1.51-3.2,2.35a15.46,15.46,0,0,1-2.37,1.73c-.86.55-2.12,1.75-3.2,1.77a.7.7,0,0,0-.31.14,22.32,22.32,0,0,1,2.16-5.33c2-3.66,10.31-10,9.69-9.79a17.36,17.36,0,0,0-7.7,5.5c-.19-1.21.19-3.83,0-3.82s-1.25,3.43-.89,4.83c-.56.69-1.1,1.4-1.59,2.11-.24.34-.49.74-.74,1.16-.13-.41-.27-.82-.38-1.24a42.49,42.49,0,0,1-.42-4.4,9.48,9.48,0,0,0-.1,7.27,21,21,0,0,0-2.22,6.84c-.4-2.11-1-4.2-1.34-6.32-.73-4.86,3.75-9.11,7.12-11.91a19.3,19.3,0,0,1,9.36-4.33c.64-.09,2.06,9.11,2.1,9.53C216,97.33,206.12,102.32,199.82,103.9Z" style="fill:#98c22b"/><path d="M213.81,90.07c-2.48,1.83-6.81,4.81-10.14,4.05-4.17-1-4.81-3.78-4.06-6.87l-.22.24c-1.5,1.76-3.24,3.92-3.5,6.32-.42,4,1.29,7.31,1.93,11.11,0,.12.17,0,.3-.07,0,.05,0,.1,0,.15a29.58,29.58,0,0,0,9.47-3,28.69,28.69,0,0,0,4.91-4.19,14.9,14.9,0,0,0,3.52-5.64,12.54,12.54,0,0,0,.65-4.73A21,21,0,0,1,213.81,90.07Z" style="fill:#68a537;opacity:0.5;mix-blend-mode:multiply"/><path d="M160.36,118.35a23.67,23.67,0,0,1-.8-3.45q-.31-1.26-.66-2.49a27,27,0,0,0-15.3,9.39c-1.5,1.75-3.24,3.92-3.5,6.32-.42,4,1.29,7.3,1.94,11.11,0,.12.16.05.29-.08l0,.15a29,29,0,0,0,9.46-3,28.61,28.61,0,0,0,4.91-4.18,15,15,0,0,0,3.52-5.64,12.48,12.48,0,0,0,.63-5.23C160.75,120.3,160.56,119.33,160.36,118.35Z" style="fill:#68a537"/><path d="M144,138.21c-.46.12.07-3.33.16-3.83l.08.1a.24.24,0,0,0,.2,0c1.72-.41,3.63-2,5-3.12a21.45,21.45,0,0,0,4.05-4,17.21,17.21,0,0,0-3.2,2.36,15.46,15.46,0,0,1-2.37,1.73c-.86.55-2.12,1.74-3.2,1.77a.67.67,0,0,0-.31.13,22.85,22.85,0,0,1,2.16-5.32c2-3.66,10.31-10,9.7-9.79a17.26,17.26,0,0,0-7.71,5.5c-.19-1.21.19-3.84,0-3.82s-1.25,3.42-.89,4.82c-.56.7-1.09,1.41-1.59,2.11-.24.35-.49.75-.74,1.17-.12-.42-.27-.83-.38-1.24a38.61,38.61,0,0,1-.41-4.41,9.44,9.44,0,0,0-.11,7.27,21,21,0,0,0-2.22,6.84c-.4-2.1-1-4.19-1.34-6.31-.73-4.86,3.75-9.11,7.13-11.92A19.3,19.3,0,0,1,157.4,114c.64-.09,2.06,9.11,2.1,9.52C160.25,131.64,150.34,136.63,144,138.21Z" style="fill:#98c22b"/><path d="M158,124.38c-2.48,1.83-6.81,4.81-10.14,4-4.17-.95-4.81-3.77-4.06-6.86-.07.08-.15.15-.22.24-1.5,1.75-3.24,3.92-3.5,6.32-.42,4,1.29,7.3,1.94,11.11,0,.12.16.05.29-.08l0,.15a29,29,0,0,0,9.46-3,28.61,28.61,0,0,0,4.91-4.18,15,15,0,0,0,3.52-5.64,12.56,12.56,0,0,0,.65-4.73A21,21,0,0,1,158,124.38Z" style="fill:#68a537;opacity:0.5;mix-blend-mode:multiply"/><path d="M155.74,169.53A12.69,12.69,0,0,0,159,165.4a14.84,14.84,0,0,0,1.5-6.48,28.22,28.22,0,0,0-.5-6.43,29,29,0,0,0-4.57-8.81l-.13.08c0-.18-.06-.34-.16-.27-3.15,2.23-6.72,3.37-9.23,6.47-1.52,1.88-1.83,4.64-2,6.94a27,27,0,0,0,4.15,17.47l2.23-1.29a22.86,22.86,0,0,1,3-1.87C154.12,170.67,154.94,170.11,155.74,169.53Z" style="fill:#68a537"/><path d="M156.34,167c-.33.27-7.84,5.76-8.23,5.24a19.28,19.28,0,0,1-3.54-9.68c-.4-4.37-.55-10.55,3.41-13.46,1.72-1.27,3.64-2.3,5.42-3.51a20.91,20.91,0,0,0-3.28,6.41,9.48,9.48,0,0,0-5.08,5.2,43.91,43.91,0,0,1,3.42-2.82c.37-.21.76-.39,1.14-.6-.12.47-.22.93-.3,1.35-.15.84-.27,1.73-.37,2.62-1.25.73-2.84,4-2.79,4s1.68-2,2.67-2.73a17.31,17.31,0,0,0,1.55,9.34c.3.57-1.11-9.79.09-13.77a22.58,22.58,0,0,1,2.25-5.29.59.59,0,0,0,.12.31c.74.79.79,2.52,1,3.52a15.75,15.75,0,0,1,.44,2.9c0,1.23.51,4.34.59,3.92a21.45,21.45,0,0,0,0-5.66c-.18-1.72-.38-4.22-1.3-5.72a.21.21,0,0,0-.16-.12h-.14c.3-.42,2.36-3.23,2.6-2.82C159.16,151.21,162.62,161.75,156.34,167Z" style="fill:#98c22b"/><path d="M155.9,165.3c-.45-3.06-1.4-8.22-4.29-10-3.62-2.28-6.07-.74-7.73,2,0-.11,0-.22,0-.33.18-2.3.49-5.06,2-6.94,2.51-3.1,6.08-4.24,9.23-6.47.1-.07.15.09.16.27l.13-.08a29,29,0,0,1,4.57,8.81,28.22,28.22,0,0,1,.5,6.43,14.84,14.84,0,0,1-1.5,6.48,12.62,12.62,0,0,1-2.9,3.79A20.18,20.18,0,0,0,155.9,165.3Z" style="fill:#68a537;opacity:0.5;mix-blend-mode:multiply"/><path d="M229.49,209.56a24.78,24.78,0,0,1,2.32-2.68c.56-.67,1.1-1.34,1.63-2a27,27,0,0,0-16.6-6.83c-2.31-.18-5.08-.31-7.17.9-3.46,2-5.14,5.34-7.84,8.11-.08.08.06.16.24.2l-.1.12a29.58,29.58,0,0,0,8,5.89,28.21,28.21,0,0,0,6.28,1.5,14.87,14.87,0,0,0,6.63-.48,12.58,12.58,0,0,0,4.59-2.57C228.15,211,228.83,210.29,229.49,209.56Z" style="fill:#68a537"/><path d="M203.83,208.06c-.37-.31,2.73-1.9,3.19-2.13a.65.65,0,0,0,0,.13.27.27,0,0,0,.1.18c1.34,1.15,3.77,1.73,5.44,2.17a21.32,21.32,0,0,0,5.6.94c.41,0-2.58-1-3.79-1.2a16.31,16.31,0,0,1-2.8-.9c-.95-.36-2.65-.68-3.31-1.54a.68.68,0,0,0-.29-.17,22.63,22.63,0,0,1,5.57-1.39c4.12-.57,14.14,2.45,13.62,2.06a17.3,17.3,0,0,0-9-3c.86-.87,3.21-2.11,3.11-2.22s-3.5,1-4.42,2.13c-.89,0-1.78-.06-2.64,0-.42,0-.89,0-1.38.09.26-.34.51-.7.78-1a41.73,41.73,0,0,1,3.31-2.93,9.46,9.46,0,0,0-5.93,4.2,20.85,20.85,0,0,0-6.84,2.24c1.47-1.57,2.79-3.3,4.31-4.81,3.5-3.45,9.57-2.34,13.83-1.26a19.24,19.24,0,0,1,9,5c.46.47-6.14,7-6.45,7.31C218.7,217.29,208.82,212.22,203.83,208.06Z" style="fill:#98c22b"/><path d="M223.25,211.21c-2.95-.92-7.9-2.67-9.24-5.8-1.69-3.94.21-6.12,3.15-7.33l-.32,0c-2.31-.18-5.08-.31-7.17.9-3.46,2-5.14,5.34-7.84,8.11-.08.08.06.16.24.2l-.1.12a29.58,29.58,0,0,0,8,5.89,28.21,28.21,0,0,0,6.28,1.5,14.87,14.87,0,0,0,6.63-.48,12.42,12.42,0,0,0,4.2-2.26A20.33,20.33,0,0,1,223.25,211.21Z" style="fill:#68a537;opacity:0.5;mix-blend-mode:multiply"/><path d="M77.64,100.28a12.59,12.59,0,0,0,3.53,3.89,14.74,14.74,0,0,0,6.13,2.57,28,28,0,0,0,6.43.58,29.6,29.6,0,0,0,9.45-3,.94.94,0,0,1-.06-.15c.18,0,.34,0,.29-.11-1.68-3.48-2.2-7.19-4.84-10.19C97,92,94.3,91.27,92.06,90.7a27.1,27.1,0,0,0-17.92,1.18c.29.8.6,1.61.91,2.42a24.53,24.53,0,0,1,1.34,3.28C76.79,98.49,77.2,99.39,77.64,100.28Z" style="fill:#68a537"/><path d="M80.08,101.29c-.21-.36-4.37-8.69-3.79-9a19.22,19.22,0,0,1,10.13-1.88c4.38.34,10.49,1.22,12.7,5.61,1,1.91,1.67,4,2.56,5.92a21,21,0,0,0-5.77-4.29,9.44,9.44,0,0,0-4.29-5.88,39.79,39.79,0,0,1,2.21,3.84c.15.4.27.82.41,1.22-.45-.19-.89-.37-1.28-.51-.81-.29-1.66-.56-2.52-.8-.51-1.36-3.45-3.48-3.51-3.43s1.7,2,2.24,3.09a17.41,17.41,0,0,0-9.47,0c-.61.2,9.85.54,13.57,2.38a22.88,22.88,0,0,1,4.84,3.1.65.65,0,0,0-.33.07c-.9.6-2.62.36-3.63.41a16,16,0,0,1-2.94,0,17.61,17.61,0,0,0-4-.07,21.62,21.62,0,0,0,5.6.9c1.72.11,4.21.34,5.85-.32a.23.23,0,0,0,.15-.14s0-.09,0-.14c.36.37,2.79,2.86,2.34,3C95.13,106.7,84.16,108.36,80.08,101.29Z" style="fill:#98c22b"/><path d="M81.78,101.14c3.09.06,8.34,0,10.61-2.55,2.85-3.19,1.74-5.87-.65-8l.32.06c2.24.57,4.91,1.33,6.51,3.14,2.64,3,3.16,6.71,4.84,10.19,0,.11-.11.13-.29.11a.94.94,0,0,0,.06.15,29.6,29.6,0,0,1-9.45,3,28,28,0,0,1-6.43-.58,14.74,14.74,0,0,1-6.13-2.57,12.36,12.36,0,0,1-3.26-3.48A20.33,20.33,0,0,0,81.78,101.14Z" style="fill:#68a537;opacity:0.5;mix-blend-mode:multiply"/><path d="M94.27,211.72a12.6,12.6,0,0,0,5.23-.56,14.85,14.85,0,0,0,5.69-3.44,28.3,28.3,0,0,0,4.26-4.86,29.3,29.3,0,0,0,3.11-9.41l-.15,0c.12-.13.2-.27.08-.3-3.8-.69-7.11-2.45-11.08-2.08-2.41.22-4.6,1.93-6.37,3.4a27.05,27.05,0,0,0-9.61,15.18l2.49.69a24,24,0,0,1,3.44.85C92.33,211.35,93.3,211.56,94.27,211.72Z" style="fill:#68a537"/><path d="M96.53,210.35c-.41,0-9.59-1.6-9.49-2.24a19.26,19.26,0,0,1,4.45-9.29c2.85-3.34,7.17-7.76,12-7,2.11.35,4.19,1,6.29,1.43a20.84,20.84,0,0,0-6.87,2.13,9.44,9.44,0,0,0-7.27,0,40.29,40.29,0,0,1,4.4.48c.41.11.82.26,1.23.39-.42.25-.82.49-1.17.73-.71.48-1.43,1-2.14,1.56-1.39-.38-4.83.75-4.84.82s2.62-.2,3.83,0A17.38,17.38,0,0,0,91.36,207c-.19.61,6.24-7.64,9.93-9.56a22.85,22.85,0,0,1,5.35-2.08.67.67,0,0,0-.14.3c0,1.08-1.25,2.33-1.81,3.18a16.81,16.81,0,0,1-1.77,2.35c-.85.89-2.74,3.39-2.39,3.16a21.39,21.39,0,0,0,4-4c1.11-1.33,2.75-3.21,3.19-4.92a.26.26,0,0,0,0-.21l-.1-.08c.5-.08,4-.57,3.83-.11C109.77,201.37,104.64,211.21,96.53,210.35Z" style="fill:#98c22b"/><path d="M97.41,208.88c1.87-2.46,4.91-6.74,4.19-10.08-.9-4.18-3.71-4.86-6.81-4.16l.25-.22c1.77-1.47,4-3.18,6.37-3.4,4-.37,7.28,1.39,11.08,2.08.12,0,0,.17-.08.3l.15,0a29.3,29.3,0,0,1-3.11,9.41,28.3,28.3,0,0,1-4.26,4.86,14.85,14.85,0,0,1-5.69,3.44,12.49,12.49,0,0,1-4.73.58A20.4,20.4,0,0,0,97.41,208.88Z" style="fill:#68a537;opacity:0.5;mix-blend-mode:multiply"/><rect width="299.64" height="299.64" style="fill:none"/></g></g></g></svg>