<svg xmlns="http://www.w3.org/2000/svg" viewBox="0 0 299.64 299.64"><title>Pizza-olives</title><g id="Layer_2" data-name="Layer 2"><g id="Layer_1-2" data-name="Layer 1"><path d="M58.66,53.65a6,6,0,1,0,6.15,6A6.06,6.06,0,0,0,58.66,53.65Zm0,9.73A3.37,3.37,0,1,1,62.13,60,3.42,3.42,0,0,1,58.66,63.38Z" style="fill:#736470"/><path d="M58.66,66.38a6.75,6.75,0,1,1,6.92-6.75A6.83,6.83,0,0,1,58.66,66.38Zm0-12A5.21,5.21,0,1,0,64,59.63,5.3,5.3,0,0,0,58.66,54.42Zm0,9.74A4.15,4.15,0,1,1,62.9,60,4.2,4.2,0,0,1,58.66,64.16Zm0-6.75A2.6,2.6,0,1,0,61.35,60,2.65,2.65,0,0,0,58.66,57.41Z" style="fill:#554f43"/><path d="M55.12,91.64a6,6,0,1,0,6.14,6A6.06,6.06,0,0,0,55.12,91.64Zm0,9.73A3.37,3.37,0,1,1,58.58,98,3.42,3.42,0,0,1,55.12,101.37Z" style="fill:#736470"/><path d="M55.12,104.37A6.75,6.75,0,1,1,62,97.62,6.85,6.85,0,0,1,55.12,104.37Zm0-12a5.21,5.21,0,1,0,5.37,5.21A5.3,5.3,0,0,0,55.12,92.41Zm0,9.73A4.14,4.14,0,1,1,59.35,98,4.2,4.2,0,0,1,55.12,102.14Zm0-6.74A2.6,2.6,0,1,0,57.81,98,2.65,2.65,0,0,0,55.12,95.4Z" style="fill:#554f43"/><path d="M123.29,142a6,6,0,1,0,6.29,5.82A6.05,6.05,0,0,0,123.29,142Zm.15,9.73a3.38,3.38,0,1,1,3.46-3.38A3.42,3.42,0,0,1,123.44,151.71Z" style="fill:#736470"/><path d="M123.43,154.7a6.78,6.78,0,0,1-6.9-6.57,6.6,6.6,0,0,1,1.91-4.83,7,7,0,0,1,4.83-2.1h.18a6.79,6.79,0,0,1,6.9,6.58,6.6,6.6,0,0,1-1.91,4.83,6.94,6.94,0,0,1-4.83,2.09Zm0-11.95a5.45,5.45,0,0,0-3.91,1.63,5.11,5.11,0,0,0-1.47,3.71,5.26,5.26,0,0,0,5.36,5.07h.14a5.42,5.42,0,0,0,3.77-1.63,5.14,5.14,0,0,0,1.47-3.71A5.25,5.25,0,0,0,123.45,142.75Zm0,9.73a4.15,4.15,0,1,1,4.23-4.15A4.2,4.2,0,0,1,123.44,152.48Zm0-6.74a2.6,2.6,0,1,0,2.69,2.59A2.65,2.65,0,0,0,123.44,145.74Z" style="fill:#554f43"/><path d="M64.79,174.75a6,6,0,1,0,6.14,6A6.06,6.06,0,0,0,64.79,174.75Zm0,9.73a3.37,3.37,0,1,1,3.46-3.37A3.42,3.42,0,0,1,64.79,184.48Z" style="fill:#736470"/><path d="M64.79,187.48a6.76,6.76,0,1,1,6.91-6.75A6.85,6.85,0,0,1,64.79,187.48Zm0-12a5.21,5.21,0,1,0,5.37,5.21A5.29,5.29,0,0,0,64.79,175.52Zm0,9.73A4.15,4.15,0,1,1,69,181.11,4.2,4.2,0,0,1,64.79,185.25Zm0-6.74a2.6,2.6,0,1,0,2.69,2.6A2.64,2.64,0,0,0,64.79,178.51Z" style="fill:#554f43"/><path d="M117.92,249a6,6,0,1,0,6.15,6A6.06,6.06,0,0,0,117.92,249Zm0,9.73a3.37,3.37,0,1,1,3.47-3.37A3.42,3.42,0,0,1,117.92,258.72Z" style="fill:#736470"/><path d="M117.92,261.72a6.75,6.75,0,1,1,6.92-6.75A6.84,6.84,0,0,1,117.92,261.72Zm0-12a5.21,5.21,0,1,0,5.37,5.21A5.3,5.3,0,0,0,117.92,249.76Zm0,9.73a4.15,4.15,0,1,1,4.24-4.14A4.19,4.19,0,0,1,117.92,259.49Zm0-6.74a2.6,2.6,0,1,0,2.69,2.6A2.65,2.65,0,0,0,117.92,252.75Z" style="fill:#554f43"/><path d="M124.07,48a6,6,0,1,0,6.14,6A6.07,6.07,0,0,0,124.07,48Zm0,9.73a3.37,3.37,0,1,1,3.46-3.37A3.42,3.42,0,0,1,124.07,57.71Z" style="fill:#736470"/><path d="M124.07,60.71A6.75,6.75,0,1,1,131,54,6.84,6.84,0,0,1,124.07,60.71Zm0-12A5.21,5.21,0,1,0,129.44,54,5.29,5.29,0,0,0,124.07,48.75Zm0,9.73a4.14,4.14,0,1,1,4.23-4.14A4.2,4.2,0,0,1,124.07,58.48Zm0-6.74a2.6,2.6,0,1,0,2.69,2.6A2.65,2.65,0,0,0,124.07,51.74Z" style="fill:#554f43"/><path d="M154.71,90.47a6,6,0,1,0,6.14,6A6.07,6.07,0,0,0,154.71,90.47Zm0,9.73a3.37,3.37,0,1,1,3.46-3.37A3.42,3.42,0,0,1,154.71,100.2Z" style="fill:#736470"/><path d="M154.71,103.2a6.75,6.75,0,1,1,6.91-6.75A6.84,6.84,0,0,1,154.71,103.2Zm0-12a5.21,5.21,0,1,0,5.37,5.21A5.3,5.3,0,0,0,154.71,91.24Zm0,9.73a4.14,4.14,0,1,1,4.23-4.14A4.19,4.19,0,0,1,154.71,101Zm0-6.74a2.6,2.6,0,1,0,2.69,2.6A2.65,2.65,0,0,0,154.71,94.23Z" style="fill:#554f43"/><path d="M192.84,34.59a6,6,0,1,0,6.14,6A6.06,6.06,0,0,0,192.84,34.59Zm0,9.73A3.37,3.37,0,1,1,196.3,41,3.42,3.42,0,0,1,192.84,44.32Z" style="fill:#736470"/><path d="M192.84,47.32a6.76,6.76,0,1,1,6.91-6.75A6.84,6.84,0,0,1,192.84,47.32Zm0-12a5.21,5.21,0,1,0,5.37,5.21A5.3,5.3,0,0,0,192.84,35.36Zm0,9.73A4.15,4.15,0,1,1,197.07,41,4.2,4.2,0,0,1,192.84,45.09Zm0-6.74a2.6,2.6,0,1,0,2.69,2.6A2.65,2.65,0,0,0,192.84,38.35Z" style="fill:#554f43"/><path d="M260,121.16a6,6,0,1,0,6.14,6A6.06,6.06,0,0,0,260,121.16Zm0,9.73a3.37,3.37,0,1,1,3.46-3.37A3.43,3.43,0,0,1,260,130.89Z" style="fill:#736470"/><path d="M260,133.89a6.75,6.75,0,1,1,6.91-6.75A6.84,6.84,0,0,1,260,133.89Zm0-12a5.21,5.21,0,1,0,5.37,5.21A5.3,5.3,0,0,0,260,121.93Zm0,9.74a4.15,4.15,0,1,1,4.23-4.15A4.2,4.2,0,0,1,260,131.67Zm0-6.75a2.6,2.6,0,1,0,2.69,2.6A2.65,2.65,0,0,0,260,124.92Z" style="fill:#554f43"/><path d="M222.53,114.32a6,6,0,1,0,6.15,6A6.06,6.06,0,0,0,222.53,114.32Zm0,9.73a3.37,3.37,0,1,1,3.47-3.37A3.42,3.42,0,0,1,222.53,124.05Z" style="fill:#736470"/><path d="M222.53,127.05a6.75,6.75,0,1,1,6.92-6.75A6.84,6.84,0,0,1,222.53,127.05Zm0-12a5.21,5.21,0,1,0,5.38,5.21A5.3,5.3,0,0,0,222.53,115.09Zm0,9.73a4.14,4.14,0,1,1,4.24-4.14A4.19,4.19,0,0,1,222.53,124.82Zm0-6.74a2.6,2.6,0,1,0,2.7,2.6A2.65,2.65,0,0,0,222.53,118.08Z" style="fill:#554f43"/><path d="M149.66,180.48a6,6,0,1,0,6.14,6A6.06,6.06,0,0,0,149.66,180.48Zm0,9.73a3.38,3.38,0,1,1,3.46-3.37A3.42,3.42,0,0,1,149.66,190.21Z" style="fill:#736470"/><path d="M149.66,193.21a6.76,6.76,0,1,1,6.91-6.75A6.84,6.84,0,0,1,149.66,193.21Zm0-12a5.21,5.21,0,1,0,5.37,5.21A5.29,5.29,0,0,0,149.66,181.25Zm0,9.73a4.15,4.15,0,1,1,4.23-4.14A4.2,4.2,0,0,1,149.66,191Zm0-6.74a2.6,2.6,0,1,0,2.69,2.6A2.64,2.64,0,0,0,149.66,184.24Z" style="fill:#554f43"/><path d="M186.32,211.48a6,6,0,1,0,6.14,6A6.06,6.06,0,0,0,186.32,211.48Zm0,9.73a3.37,3.37,0,1,1,3.46-3.37A3.42,3.42,0,0,1,186.32,221.21Z" style="fill:#736470"/><path d="M186.32,224.21a6.76,6.76,0,1,1,6.91-6.75A6.84,6.84,0,0,1,186.32,224.21Zm0-12a5.21,5.21,0,1,0,5.37,5.21A5.3,5.3,0,0,0,186.32,212.25Zm0,9.73a4.15,4.15,0,1,1,4.23-4.14A4.2,4.2,0,0,1,186.32,222Zm0-6.74a2.6,2.6,0,1,0,2.69,2.6A2.64,2.64,0,0,0,186.32,215.24Z" style="fill:#554f43"/><path d="M208.81,155.24a6,6,0,1,0,6.14,6A6.06,6.06,0,0,0,208.81,155.24Zm0,9.73a3.37,3.37,0,1,1,3.46-3.37A3.42,3.42,0,0,1,208.81,165Z" style="fill:#736470"/><path d="M208.81,168a6.75,6.75,0,1,1,6.91-6.75A6.85,6.85,0,0,1,208.81,168Zm0-12a5.21,5.21,0,1,0,5.37,5.21A5.3,5.3,0,0,0,208.81,156Zm0,9.73A4.14,4.14,0,1,1,213,161.6,4.19,4.19,0,0,1,208.81,165.74Zm0-6.74a2.6,2.6,0,1,0,2.69,2.6A2.65,2.65,0,0,0,208.81,159Z" style="fill:#554f43"/><rect width="299.64" height="299.64" style="fill:none"/></g></g></svg>