<svg xmlns="http://www.w3.org/2000/svg" viewBox="0 0 245.34 226.11"><title>Pizza-pepperoni</title><g style="isolation:isolate"><g id="Layer_2" data-name="Layer 2"><g id="Layer_1-2" data-name="Layer 1"><path d="M11.07,153.22a13.49,13.49,0,1,1,13.49,13.49A13.49,13.49,0,0,1,11.07,153.22Z" style="fill:#9d2b25"/><path d="M12,153.32a12.56,12.56,0,1,1,12.55,12.56A12.55,12.55,0,0,1,12,153.32Z" style="fill:#ca3633"/><path d="M28.82,159.45a2,2,0,1,1,2,2A2,2,0,0,1,28.82,159.45Z" style="fill:#7c1f16"/><path d="M32.34,150.62a.94.94,0,1,1,.94.94A.94.94,0,0,1,32.34,150.62Z" style="fill:#7c1f16"/><path d="M25.5,154.88a.93.93,0,1,1,.93.93A.93.93,0,0,1,25.5,154.88Z" style="fill:#7c1f16"/><path d="M20.89,145.76a2,2,0,1,1-1.94-2A2,2,0,0,1,20.89,145.76Z" style="fill:#7c1f16"/><path d="M17.22,154.53a.94.94,0,1,1-1.87,0,.94.94,0,0,1,1.87,0Z" style="fill:#7c1f16"/><path d="M22,161.58a.93.93,0,0,1-.95.92.94.94,0,0,1-.92-.95,1,1,0,0,1,1-.92A.93.93,0,0,1,22,161.58Z" style="fill:#7c1f16"/><path d="M24.14,150.38a.94.94,0,1,1-1.87,0,.92.92,0,0,1,.94-.92A1,1,0,0,1,24.14,150.38Z" style="fill:#7c1f16"/><path d="M23.63,158c-5.23-1.18-9.57-5.95-10-10.86A12.4,12.4,0,0,0,12,153.32a12.56,12.56,0,1,0,25.11,0c0-.06,0-.12,0-.18C33.87,156.88,28.39,159.1,23.63,158Z" style="fill:#ca3633;opacity:0.5;mix-blend-mode:multiply"/><path d="M27.86,144.34c5,1.72,8,5,9.25,9.16,0-.06,0-.12,0-.18a12.55,12.55,0,0,0-24.49-3.89C16.14,144.85,21.69,142.21,27.86,144.34Z" style="fill:#ca3633;mix-blend-mode:screen"/><path d="M91.31,184.09a13.49,13.49,0,1,1,13.48,13.49A13.49,13.49,0,0,1,91.31,184.09Z" style="fill:#9d2b25"/><path d="M92.24,184.2a12.56,12.56,0,1,1,12.55,12.56A12.55,12.55,0,0,1,92.24,184.2Z" style="fill:#ca3633"/><path d="M109.06,190.32a2,2,0,1,1,2,2A2,2,0,0,1,109.06,190.32Z" style="fill:#7c1f16"/><path d="M112.58,181.5a.94.94,0,1,1,.94.94A.94.94,0,0,1,112.58,181.5Z" style="fill:#7c1f16"/><path d="M105.73,185.75a.94.94,0,1,1,.93.94A.93.93,0,0,1,105.73,185.75Z" style="fill:#7c1f16"/><path d="M101.13,176.64a2,2,0,1,1-1.95-2A2,2,0,0,1,101.13,176.64Z" style="fill:#7c1f16"/><path d="M97.46,185.4a.94.94,0,1,1-.92-1A1,1,0,0,1,97.46,185.4Z" style="fill:#7c1f16"/><path d="M102.23,192.46a1,1,0,0,1-1,.92.94.94,0,1,1,1-.92Z" style="fill:#7c1f16"/><path d="M104.37,181.26a.94.94,0,0,1-1.87,0,.94.94,0,0,1,1.87,0Z" style="fill:#7c1f16"/><path d="M103.86,188.89c-5.22-1.19-9.56-5.95-10-10.86a12.55,12.55,0,1,0,23.48,6.17c0-.06,0-.12,0-.18C114.1,187.76,108.62,190,103.86,188.89Z" style="fill:#ca3633;opacity:0.5;mix-blend-mode:multiply"/><path d="M108.09,175.22c5,1.71,8,5,9.25,9.15,0-.05,0-.11,0-.17a12.55,12.55,0,0,0-24.48-3.9C96.38,175.73,101.92,173.08,108.09,175.22Z" style="fill:#ca3633;mix-blend-mode:screen"/><path d="M137.66,212.62a13.49,13.49,0,1,1,13.49,13.49A13.49,13.49,0,0,1,137.66,212.62Z" style="fill:#9d2b25"/><path d="M138.6,212.73a12.56,12.56,0,1,1,12.55,12.56A12.55,12.55,0,0,1,138.6,212.73Z" style="fill:#ca3633"/><path d="M155.41,218.85a2,2,0,1,1,2,2A2,2,0,0,1,155.41,218.85Z" style="fill:#7c1f16"/><path d="M158.93,210a.94.94,0,1,1,1.87,0,.94.94,0,0,1-1.87,0Z" style="fill:#7c1f16"/><path d="M152.08,214.28a.94.94,0,1,1,.94.94A.94.94,0,0,1,152.08,214.28Z" style="fill:#7c1f16"/><path d="M147.48,205.17a2,2,0,1,1-1.94-2A2,2,0,0,1,147.48,205.17Z" style="fill:#7c1f16"/><path d="M143.81,213.93a.94.94,0,1,1-.92-1A.94.94,0,0,1,143.81,213.93Z" style="fill:#7c1f16"/><path d="M148.58,221a.94.94,0,1,1-.91-1A.93.93,0,0,1,148.58,221Z" style="fill:#7c1f16"/><path d="M150.72,209.79a.93.93,0,1,1-1.86,0,.93.93,0,1,1,1.86,0Z" style="fill:#7c1f16"/><path d="M150.21,217.42c-5.22-1.19-9.56-5.95-10-10.87a12.55,12.55,0,0,0,10.92,18.74,12.57,12.57,0,0,0,12.56-12.56c0-.06,0-.12,0-.18C160.45,216.29,155,218.5,150.21,217.42Z" style="fill:#ca3633;opacity:0.5;mix-blend-mode:multiply"/><path d="M154.44,203.74c5,1.72,8,5,9.26,9.16,0-.06,0-.11,0-.17a12.55,12.55,0,0,0-24.49-3.9C142.73,204.25,148.27,201.61,154.44,203.74Z" style="fill:#ca3633;mix-blend-mode:screen"/><path d="M210.17,135.32a13.49,13.49,0,1,1,13.48,13.49A13.48,13.48,0,0,1,210.17,135.32Z" style="fill:#9d2b25"/><path d="M211.1,135.43A12.56,12.56,0,1,1,223.65,148,12.55,12.55,0,0,1,211.1,135.43Z" style="fill:#ca3633"/><path d="M227.91,141.55a2,2,0,1,1,2,2A2,2,0,0,1,227.91,141.55Z" style="fill:#7c1f16"/><path d="M231.44,132.73a.94.94,0,1,1,.93.94A.93.93,0,0,1,231.44,132.73Z" style="fill:#7c1f16"/><path d="M224.59,137a.93.93,0,1,1,.93.93A.94.94,0,0,1,224.59,137Z" style="fill:#7c1f16"/><path d="M220,127.87a2,2,0,1,1-2-2A2,2,0,0,1,220,127.87Z" style="fill:#7c1f16"/><path d="M216.32,136.63a.94.94,0,1,1-.93-.95A.94.94,0,0,1,216.32,136.63Z" style="fill:#7c1f16"/><path d="M221.08,143.69a.93.93,0,1,1-.91-.95A.93.93,0,0,1,221.08,143.69Z" style="fill:#7c1f16"/><path d="M223.23,132.49a1,1,0,0,1-.95.92.94.94,0,1,1,.95-.92Z" style="fill:#7c1f16"/><path d="M222.72,140.12c-5.22-1.18-9.57-6-10-10.86a12.55,12.55,0,1,0,23.48,6.17c0-.06,0-.12,0-.18C233,139,227.48,141.2,222.72,140.12Z" style="fill:#ca3633;opacity:0.5;mix-blend-mode:multiply"/><path d="M227,126.45c5,1.71,8,5,9.25,9.15,0,0,0-.11,0-.17a12.55,12.55,0,0,0-24.49-3.89C215.24,127,220.78,124.32,227,126.45Z" style="fill:#ca3633;mix-blend-mode:screen"/><path d="M166.42,85.23a13.49,13.49,0,1,1,13.49,13.49A13.49,13.49,0,0,1,166.42,85.23Z" style="fill:#9d2b25"/><path d="M167.36,85.34A12.56,12.56,0,1,1,179.91,97.9,12.55,12.55,0,0,1,167.36,85.34Z" style="fill:#ca3633"/><path d="M184.17,91.46a2,2,0,1,1,2,2A2,2,0,0,1,184.17,91.46Z" style="fill:#7c1f16"/><path d="M187.7,82.64a.93.93,0,1,1,1.86,0,.93.93,0,1,1-1.86,0Z" style="fill:#7c1f16"/><path d="M180.85,86.89a.93.93,0,1,1,.93.94A.93.93,0,0,1,180.85,86.89Z" style="fill:#7c1f16"/><path d="M176.25,77.78a2,2,0,1,1-1.95-2A2,2,0,0,1,176.25,77.78Z" style="fill:#7c1f16"/><path d="M172.57,86.54a.93.93,0,0,1-.95.92.94.94,0,1,1,.95-.92Z" style="fill:#7c1f16"/><path d="M177.34,93.6a.94.94,0,0,1-1.87,0,1,1,0,0,1,1-.93A.94.94,0,0,1,177.34,93.6Z" style="fill:#7c1f16"/><path d="M179.49,82.4a1,1,0,0,1-1,.92.94.94,0,1,1,0-1.87A.94.94,0,0,1,179.49,82.4Z" style="fill:#7c1f16"/><path d="M179,90c-5.22-1.19-9.57-6-10-10.87a12.55,12.55,0,1,0,23.48,6.18c0-.06,0-.12,0-.18C189.22,88.9,183.74,91.11,179,90Z" style="fill:#ca3633;opacity:0.5;mix-blend-mode:multiply"/><path d="M183.21,76.35c5,1.72,8,5,9.25,9.16,0-.05,0-.11,0-.17A12.56,12.56,0,0,0,168,81.44C171.5,76.86,177,74.22,183.21,76.35Z" style="fill:#ca3633;mix-blend-mode:screen"/><path d="M131.29,13.49A13.49,13.49,0,1,1,144.77,27,13.49,13.49,0,0,1,131.29,13.49Z" style="fill:#9d2b25"/><path d="M132.22,13.59a12.56,12.56,0,1,1,12.55,12.56A12.56,12.56,0,0,1,132.22,13.59Z" style="fill:#ca3633"/><path d="M149,19.72a2,2,0,1,1,2,2A2,2,0,0,1,149,19.72Z" style="fill:#7c1f16"/><path d="M152.56,10.9a.94.94,0,1,1,.94.93A.94.94,0,0,1,152.56,10.9Z" style="fill:#7c1f16"/><path d="M145.71,15.15a.94.94,0,1,1,.93.93A.94.94,0,0,1,145.71,15.15Z" style="fill:#7c1f16"/><path d="M141.11,6a2,2,0,1,1-2-2A2,2,0,0,1,141.11,6Z" style="fill:#7c1f16"/><path d="M137.44,14.8a.94.94,0,1,1-1.87,0,.94.94,0,0,1,1.87,0Z" style="fill:#7c1f16"/><path d="M142.21,21.85a.94.94,0,1,1-1.87,0,1,1,0,0,1,.95-.92A.94.94,0,0,1,142.21,21.85Z" style="fill:#7c1f16"/><path d="M144.35,10.65a.93.93,0,1,1-1.86,0,.91.91,0,0,1,.94-.91A.92.92,0,0,1,144.35,10.65Z" style="fill:#7c1f16"/><path d="M143.84,18.28c-5.22-1.18-9.56-6-10-10.86a12.55,12.55,0,1,0,23.48,6.17,1.09,1.09,0,0,0,0-.18C154.08,17.15,148.61,19.37,143.84,18.28Z" style="fill:#ca3633;opacity:0.5;mix-blend-mode:multiply"/><path d="M148.07,4.61c5,1.72,8,5,9.25,9.16a1.09,1.09,0,0,0,0-.18A12.55,12.55,0,0,0,132.85,9.7C136.36,5.12,141.9,2.48,148.07,4.61Z" style="fill:#ca3633;mix-blend-mode:screen"/><path d="M218.36,60.81a13.49,13.49,0,1,1,13.49,13.48A13.49,13.49,0,0,1,218.36,60.81Z" style="fill:#9d2b25"/><path d="M219.3,60.91a12.56,12.56,0,1,1,12.55,12.56A12.55,12.55,0,0,1,219.3,60.91Z" style="fill:#ca3633"/><path d="M236.11,67a2,2,0,1,1,2,2A2,2,0,0,1,236.11,67Z" style="fill:#7c1f16"/><path d="M239.63,58.21a.94.94,0,1,1,.94.94A.94.94,0,0,1,239.63,58.21Z" style="fill:#7c1f16"/><path d="M232.79,62.47a.93.93,0,1,1,.93.93A.93.93,0,0,1,232.79,62.47Z" style="fill:#7c1f16"/><path d="M228.18,53.35a2,2,0,1,1-1.94-2A2,2,0,0,1,228.18,53.35Z" style="fill:#7c1f16"/><path d="M224.51,62.12a.94.94,0,1,1-.92-1A.94.94,0,0,1,224.51,62.12Z" style="fill:#7c1f16"/><path d="M229.28,69.17a.93.93,0,0,1-.95.92.94.94,0,1,1,0-1.87A.93.93,0,0,1,229.28,69.17Z" style="fill:#7c1f16"/><path d="M231.43,58a.94.94,0,0,1-1.87,0,.92.92,0,0,1,.94-.92A1,1,0,0,1,231.43,58Z" style="fill:#7c1f16"/><path d="M230.92,65.6c-5.23-1.18-9.57-5.95-10-10.86a12.38,12.38,0,0,0-1.63,6.17,12.56,12.56,0,1,0,25.11,0c0-.06,0-.12,0-.18C241.16,64.47,235.68,66.68,230.92,65.6Z" style="fill:#ca3633;opacity:0.5;mix-blend-mode:multiply"/><path d="M235.14,51.93c5,1.72,8,5,9.26,9.16,0-.06,0-.12,0-.18A12.55,12.55,0,0,0,219.92,57C223.43,52.44,229,49.8,235.14,51.93Z" style="fill:#ca3633;mix-blend-mode:screen"/><path d="M0,87.24a13.49,13.49,0,1,1,13.48,13.49A13.49,13.49,0,0,1,0,87.24Z" style="fill:#9d2b25"/><path d="M.93,87.35A12.56,12.56,0,1,1,13.48,99.9,12.56,12.56,0,0,1,.93,87.35Z" style="fill:#ca3633"/><path d="M17.75,93.47a2,2,0,1,1,2,2A2,2,0,0,1,17.75,93.47Z" style="fill:#7c1f16"/><path d="M21.27,84.65a.94.94,0,1,1,1.87,0,.94.94,0,0,1-1.87,0Z" style="fill:#7c1f16"/><path d="M14.42,88.9a.94.94,0,1,1,.93.93A.93.93,0,0,1,14.42,88.9Z" style="fill:#7c1f16"/><path d="M9.82,79.79a2,2,0,1,1-1.95-2A2,2,0,0,1,9.82,79.79Z" style="fill:#7c1f16"/><path d="M6.15,88.55a1,1,0,0,1-1,.92.94.94,0,1,1,1-.92Z" style="fill:#7c1f16"/><path d="M10.92,95.6a.94.94,0,1,1-.92-.95A.94.94,0,0,1,10.92,95.6Z" style="fill:#7c1f16"/><path d="M13.06,84.41a.93.93,0,0,1-1.86,0,.92.92,0,0,1,.94-.92A.93.93,0,0,1,13.06,84.41Z" style="fill:#7c1f16"/><path d="M12.55,92c-5.22-1.19-9.56-6-10-10.87A12.55,12.55,0,1,0,26,87.35a1.09,1.09,0,0,0,0-.18C22.79,90.9,17.31,93.12,12.55,92Z" style="fill:#ca3633;opacity:0.5;mix-blend-mode:multiply"/><path d="M16.78,78.36c5,1.72,8,5,9.25,9.16a1,1,0,0,0,0-.17,12.55,12.55,0,0,0-24.48-3.9C5.07,78.87,10.61,76.23,16.78,78.36Z" style="fill:#ca3633;mix-blend-mode:screen"/><path d="M84.87,87.5A13.49,13.49,0,1,1,98.35,101,13.48,13.48,0,0,1,84.87,87.5Z" style="fill:#9d2b25"/><path d="M85.8,87.6a12.56,12.56,0,1,1,12.55,12.56A12.55,12.55,0,0,1,85.8,87.6Z" style="fill:#ca3633"/><path d="M102.61,93.72a2,2,0,1,1,2,2A2,2,0,0,1,102.61,93.72Z" style="fill:#7c1f16"/><path d="M106.14,84.9a.94.94,0,1,1,.93.94A.93.93,0,0,1,106.14,84.9Z" style="fill:#7c1f16"/><path d="M99.29,89.16a.93.93,0,1,1,1.86,0,.93.93,0,1,1-1.86,0Z" style="fill:#7c1f16"/><path d="M94.69,80a2,2,0,1,1-2-2A2,2,0,0,1,94.69,80Z" style="fill:#7c1f16"/><path d="M91,88.81a.94.94,0,1,1-.93-1A1,1,0,0,1,91,88.81Z" style="fill:#7c1f16"/><path d="M95.78,95.86a.93.93,0,1,1-1.86,0,.93.93,0,1,1,1.86,0Z" style="fill:#7c1f16"/><path d="M97.93,84.66a.94.94,0,0,1-1.87,0,.92.92,0,0,1,1-.92A.94.94,0,0,1,97.93,84.66Z" style="fill:#7c1f16"/><path d="M97.42,92.29c-5.22-1.18-9.57-6-10-10.86a12.55,12.55,0,1,0,23.48,6.17c0-.06,0-.12,0-.18C107.66,91.16,102.18,93.37,97.42,92.29Z" style="fill:#ca3633;opacity:0.5;mix-blend-mode:multiply"/><path d="M101.65,78.62c5,1.72,8,5,9.25,9.16,0-.06,0-.12,0-.18a12.55,12.55,0,0,0-24.49-3.89C89.94,79.13,95.48,76.49,101.65,78.62Z" style="fill:#ca3633;mix-blend-mode:screen"/><path d="M64.9,20.7A13.49,13.49,0,1,1,78.38,34.19,13.48,13.48,0,0,1,64.9,20.7Z" style="fill:#9d2b25"/><path d="M65.83,20.81A12.56,12.56,0,1,1,78.38,33.37,12.55,12.55,0,0,1,65.83,20.81Z" style="fill:#ca3633"/><path d="M82.64,26.93a2,2,0,1,1,2,2A2,2,0,0,1,82.64,26.93Z" style="fill:#7c1f16"/><path d="M86.17,18.11a.94.94,0,1,1,.93.94A.93.93,0,0,1,86.17,18.11Z" style="fill:#7c1f16"/><path d="M79.32,22.37a.93.93,0,1,1,1.86,0,.93.93,0,0,1-1.86,0Z" style="fill:#7c1f16"/><path d="M74.72,13.25a2,2,0,1,1-2-2A2,2,0,0,1,74.72,13.25Z" style="fill:#7c1f16"/><path d="M71,22a.93.93,0,0,1-.94.92A.94.94,0,1,1,71,22Z" style="fill:#7c1f16"/><path d="M75.81,29.07a.93.93,0,1,1-.91-.95A.93.93,0,0,1,75.81,29.07Z" style="fill:#7c1f16"/><path d="M78,17.87a.94.94,0,0,1-1.87,0,.92.92,0,0,1,1-.92A1,1,0,0,1,78,17.87Z" style="fill:#7c1f16"/><path d="M77.45,25.5c-5.22-1.18-9.57-5.95-10-10.86a12.55,12.55,0,1,0,23.48,6.17c0-.06,0-.12,0-.18C87.69,24.37,82.21,26.58,77.45,25.5Z" style="fill:#ca3633;opacity:0.5;mix-blend-mode:multiply"/><path d="M81.68,11.83c5,1.71,8,5,9.25,9.15,0-.05,0-.11,0-.17a12.55,12.55,0,0,0-24.49-3.89C70,12.34,75.51,9.7,81.68,11.83Z" style="fill:#ca3633;mix-blend-mode:screen"/><path d="M136.66,136.16a13.49,13.49,0,1,1,13.48,13.49A13.49,13.49,0,0,1,136.66,136.16Z" style="fill:#9d2b25"/><path d="M137.59,136.26a12.56,12.56,0,1,1,12.55,12.56A12.56,12.56,0,0,1,137.59,136.26Z" style="fill:#ca3633"/><path d="M154.41,142.39a2,2,0,1,1,2,2A2,2,0,0,1,154.41,142.39Z" style="fill:#7c1f16"/><path d="M157.93,133.57a.94.94,0,1,1,.94.93A.94.94,0,0,1,157.93,133.57Z" style="fill:#7c1f16"/><path d="M151.08,137.82a.94.94,0,1,1,1.87,0,.94.94,0,0,1-1.87,0Z" style="fill:#7c1f16"/><path d="M146.48,128.7a2,2,0,1,1-1.94-2A2,2,0,0,1,146.48,128.7Z" style="fill:#7c1f16"/><path d="M142.81,137.47a.94.94,0,1,1-1.87,0,.94.94,0,0,1,1.87,0Z" style="fill:#7c1f16"/><path d="M147.58,144.52a.94.94,0,0,1-1.87,0,1,1,0,0,1,.95-.92A.93.93,0,0,1,147.58,144.52Z" style="fill:#7c1f16"/><path d="M149.72,133.33a.93.93,0,1,1-.92-1A.94.94,0,0,1,149.72,133.33Z" style="fill:#7c1f16"/><path d="M149.21,141c-5.22-1.18-9.56-5.95-10-10.86a12.56,12.56,0,1,0,23.49,6.17c0-.06,0-.11,0-.17C159.45,139.82,154,142,149.21,141Z" style="fill:#ca3633;opacity:0.5;mix-blend-mode:multiply"/><path d="M153.44,127.28c5,1.72,8,5,9.26,9.16,0-.06,0-.12,0-.18a12.55,12.55,0,0,0-24.49-3.89C141.73,127.79,147.27,125.15,153.44,127.28Z" style="fill:#ca3633;mix-blend-mode:screen"/><path d="M57.9,129.25a13.49,13.49,0,1,1,13.49,13.5A13.49,13.49,0,0,1,57.9,129.25Z" style="fill:#9d2b25"/><path d="M58.84,129.36a12.56,12.56,0,1,1,12.55,12.56A12.55,12.55,0,0,1,58.84,129.36Z" style="fill:#ca3633"/><path d="M75.65,135.48a2,2,0,1,1,2,2A2,2,0,0,1,75.65,135.48Z" style="fill:#7c1f16"/><path d="M79.18,126.66a.93.93,0,1,1,.93.94A.93.93,0,0,1,79.18,126.66Z" style="fill:#7c1f16"/><path d="M72.33,130.92a.93.93,0,1,1,.93.93A.93.93,0,0,1,72.33,130.92Z" style="fill:#7c1f16"/><path d="M67.72,121.8a2,2,0,1,1-1.94-2A2,2,0,0,1,67.72,121.8Z" style="fill:#7c1f16"/><path d="M64.05,130.57a.93.93,0,0,1-.94.91.94.94,0,1,1,.94-.91Z" style="fill:#7c1f16"/><path d="M68.82,137.62a.93.93,0,1,1-.91-1A.94.94,0,0,1,68.82,137.62Z" style="fill:#7c1f16"/><path d="M71,126.42a.94.94,0,0,1-1.87,0,.92.92,0,0,1,.94-.92A1,1,0,0,1,71,126.42Z" style="fill:#7c1f16"/><path d="M70.46,134.05c-5.23-1.18-9.57-6-10-10.86a12.38,12.38,0,0,0-1.63,6.17,12.56,12.56,0,1,0,25.11,0c0-.06,0-.12,0-.18C80.7,132.92,75.22,135.13,70.46,134.05Z" style="fill:#ca3633;opacity:0.5;mix-blend-mode:multiply"/><path d="M74.69,120.38c5,1.71,8,5,9.25,9.16,0-.06,0-.12,0-.18a12.55,12.55,0,0,0-24.49-3.89C63,120.89,68.52,118.25,74.69,120.38Z" style="fill:#ca3633;mix-blend-mode:screen"/></g></g></g></svg>