<svg xmlns="http://www.w3.org/2000/svg" viewBox="0 0 299.64 299.64"><title>Pizza-cheese</title><g style="isolation:isolate"><g id="Layer_2" data-name="Layer 2"><g id="Layer_1-2" data-name="Layer 1"><path d="M40.48,194.55c6,1.8,10.47,1.31,13.34,8,2,4.73.37,11.38.84,16.42.66,7,11.61,15.06,18,16.86,10.61,3,15.64,10.83,23.6,17.59,3.42,2.92,6.22,3.17,10.6,3.18,6.06,0,7.9,2.5,11.24,7,6.91,9.36,24.37,17.53,33.43,5.51,3.92-5.21,6.19-9.65,4.76-16.25a39.33,39.33,0,0,0-5-12.23c-3.38-5.42-4.56-9.74-5.27-16.15a1.31,1.31,0,0,0-.2-.58c0-6.93,1.64-13.88,2.72-21.33.51-3.48.95-8.23,0-11.68-1.68-6.36-5.78-11.72-6.72-18.26-1.13-7.91,8.36-13.48,2.24-21.11-4-4.93-13.65-4.07-19-2.59-5.85,1.62-8.61,6.48-15.53,6.46-4.86,0-10.8-2.88-15.6-3.91-8.06-1.73-17.88-3.93-24.38,2.56-5.85,5.83-10.88,9.63-18.74,4.17-3.71-2.58-5.94-5.3-10.39-6.69-5.87-1.84-12,4.95-14.37,9.24C19.12,173.17,27.12,190.55,40.48,194.55Z" style="fill:#ffd364;opacity:0.5;mix-blend-mode:screen"/><path d="M145.77,90.58c-1.15-10.92,1.23-22,3.19-32.69A29,29,0,0,0,143.2,33.8c-11.59-15.25-27-7.33-40.76.21-7.11,1.33-12.32,3.89-18.56,8.68a50.29,50.29,0,0,0-5.19,4.64,35,35,0,0,0-6.33,6.84A53.18,53.18,0,0,1,61.2,64.09c-15,9.34-26.61,19.59-27.33,37.55-.26,6.7-2.55,11.11-6.45,16.48-1.68,2.31-3.38,5.16-3.78,7.95-1,7,4.74,10.81,11.06,13.09,12.46,4.48,20.19-5.92,31-8.8,6.86-1.82,13.78,2.22,20.47,3.14,7.76,1.07,15.74.42,23.56.37a78.16,78.16,0,0,1,17.68,1.5c5.07,1.13,10.19,3.34,15.32,1.08,18.43-8.12,4.6-32.38,3.12-45.45Z" style="fill:#ffd364;opacity:0.5;mix-blend-mode:screen"/><path d="M261.17,102.27c-5.77-1.83-10.08-1.32-12.84-8.13-2-4.81-.36-11.57-.82-16.7-.63-7.18-11.18-15.33-17.3-17.17-10.23-3.06-15.07-11-22.74-17.9-3.29-3-6-3.22-10.21-3.24-5.84,0-7.61-2.54-10.82-7.13-6.66-9.54-23.48-17.85-32.2-5.62-3.78,5.3-6,9.83-4.59,16.54a41.07,41.07,0,0,0,4.81,12.45c3.25,5.52,4.39,9.92,5.07,16.44a1.23,1.23,0,0,0,.19.58c0,7.06-1.57,14.13-2.62,21.71-.49,3.54-.91,8.39,0,11.89,1.63,6.47,5.57,11.93,6.48,18.59,1.09,8-8,13.72-2.16,21.48,3.8,5,13.15,4.14,18.25,2.64,5.64-1.65,8.29-6.6,15-6.58,4.69,0,10.4,2.93,15,4,7.76,1.76,17.23,4,23.49-2.6,5.63-5.93,10.47-9.8,18-4.24,3.58,2.62,5.73,5.39,10,6.8,5.66,1.87,11.51-5,13.84-9.4C281.75,124,274,106.35,261.17,102.27Z" style="fill:#ffd364;opacity:0.5;mix-blend-mode:screen"/><path d="M154.88,197.19c1.15,12.19-1.23,24.53-3.2,36.49-1.63,10,.15,18.67,5.78,26.9,11.63,17,27.1,8.19,40.88-.23,7.13-1.49,12.36-4.35,18.63-9.69a54.11,54.11,0,0,0,5.2-5.18,38,38,0,0,0,6.35-7.64c3.33-4.08,6.77-8,11.2-11.08,15.07-10.43,26.69-21.87,27.4-41.93.27-7.48,2.56-12.4,6.48-18.4,1.68-2.58,3.38-5.75,3.79-8.87,1-7.79-4.76-12.08-11.1-14.62-12.49-5-20.25,6.61-31.06,9.82-6.88,2-13.83-2.48-20.53-3.5-7.79-1.19-15.8-.47-23.64-.42a70.49,70.49,0,0,1-17.73-1.66c-5.09-1.27-10.23-3.74-15.37-1.22-18.49,9.07-4.62,36.16-3.13,50.75C154.85,196.87,154.86,197,154.88,197.19Z" style="fill:#ffd364;opacity:0.5;mix-blend-mode:screen"/><g style="mix-blend-mode:screen"><path d="M127.06,73.19a7.5,7.5,0,0,1,0-1.71,9.12,9.12,0,0,1,.89-3.64c.1-1.06,2.45-1.86,2.33-.32-.1,1.23-.38,2.41-.43,3.66-.05,1,.42,2.12-.53,2.87A1.38,1.38,0,0,1,127.06,73.19Z" style="fill:#ffd364"/><path d="M119.13,33.85a11.07,11.07,0,0,1-.89-1.66,9.72,9.72,0,0,1-1.06-3.86c-.47-1,1.34-2.81,2-1.29.56,1.21.94,2.46,1.52,3.66.48.95,1.56,1.83,1,3A1.5,1.5,0,0,1,119.13,33.85Z" style="fill:#ffd364"/><path d="M89.62,98.89A9.38,9.38,0,0,1,89.06,97a10.64,10.64,0,0,1-.31-4.19c-.25-1.15,2-2.7,2.4-1,.32,1.34.44,2.71.81,4.06.31,1.07,1.21,2.16.44,3.25A1.59,1.59,0,0,1,89.62,98.89Z" style="fill:#ffd364"/><path d="M136.37,66.68a8.43,8.43,0,0,1,.43-1.88,10.42,10.42,0,0,1,1.76-3.86c.33-1.17,3.1-1.64,2.63,0-.36,1.34-.94,2.61-1.25,4-.26,1.1,0,2.43-1.21,3.08A1.51,1.51,0,0,1,136.37,66.68Z" style="fill:#ffd364"/><path d="M121.18,113.24v.23c-.16,1.71-.53,3.38-.6,5.09-.06,1.41.6,3-.76,4.1a1.94,1.94,0,0,1-3.26-1.22,11.85,11.85,0,0,1,0-2.45,13.74,13.74,0,0,1,1.26-5.18C118,112.35,121.2,111.25,121.18,113.24Z" style="fill:#ffd364"/><path d="M53,141.74a10.93,10.93,0,0,1-1.15-2.19,13.13,13.13,0,0,1-1.46-5.16c-.61-1.38,1.8-3.74,2.74-1.73.74,1.61,1.24,3.28,2,4.87.64,1.29,2.07,2.45,1.36,3.95A2,2,0,0,1,53,141.74Z" style="fill:#ffd364"/><path d="M108,75.83a11.81,11.81,0,0,1,0-2.45,14.09,14.09,0,0,1,1.27-5.18c.17-1.5,3.48-2.64,3.33-.45-.15,1.74-.53,3.43-.6,5.2-.09,1.41.58,3-.78,4.1A2,2,0,0,1,108,75.83Z" style="fill:#ffd364"/><path d="M114.8,94.76a13,13,0,0,1-1.18-2.2,13.41,13.41,0,0,1-1.43-5.13c-.61-1.39,1.78-3.77,2.71-1.74.76,1.62,1.24,3.28,2,4.88.64,1.26,2,2.42,1.36,4A2,2,0,0,1,114.8,94.76Z" style="fill:#ffd364"/><path d="M134.57,81.68a14.58,14.58,0,0,1-.84-6.05c-.26-1.15,2-2.68,2.4-1,.32,1.35.46,2.7.8,4,.31,1.08,1.21,2.16.45,3.26A1.61,1.61,0,0,1,134.57,81.68Z" style="fill:#ffd364"/><path d="M124.52,90.2a8.36,8.36,0,0,1,.42-1.91,10.79,10.79,0,0,1,1.77-3.85c.34-1.14,3.09-1.62,2.62.07-.37,1.33-.93,2.59-1.25,3.95-.25,1.08,0,2.41-1.21,3.09A1.5,1.5,0,0,1,124.52,90.2Z" style="fill:#ffd364"/><path d="M135.33,94a10.53,10.53,0,0,1,0-1.59,9,9,0,0,1,.86-3.4c.09-1,2.28-1.72,2.14-.28-.1,1.14-.34,2.24-.4,3.4,0,.92.41,2-.48,2.67A1.28,1.28,0,0,1,135.33,94Z" style="fill:#ffd364"/></g><g style="mix-blend-mode:screen"><path d="M127.15,35a8.82,8.82,0,0,1,.41-1.9,11.09,11.09,0,0,1,1.76-3.86c.36-1.13,3.1-1.61,2.64.07-.38,1.34-.94,2.6-1.26,3.95-.24,1.09,0,2.41-1.2,3.09A1.5,1.5,0,0,1,127.15,35Z" style="fill:#ffd364"/><path d="M138.61,41.63a9.2,9.2,0,0,1-.75-1.42,9.06,9.06,0,0,1-1-3.36c-.39-.92,1.18-2.47,1.8-1.15.49,1.06.82,2.14,1.33,3.19.43.84,1.34,1.59.9,2.57A1.32,1.32,0,0,1,138.61,41.63Z" style="fill:#ffd364"/></g><path d="M106.1,133.16a12.84,12.84,0,0,1-1,2.22,13.69,13.69,0,0,1-3.29,4.2c-.76,1.3-4.27,1-3.22-1,.86-1.53,1.92-2.93,2.7-4.49.64-1.25.7-3,2.38-3.43A2,2,0,0,1,106.1,133.16Z" style="fill:#ffd364;mix-blend-mode:screen"/><path d="M84.3,51a10.93,10.93,0,0,1-1.15-2.19,13,13,0,0,1-1.46-5.16c-.62-1.38,1.79-3.74,2.73-1.73.74,1.61,1.24,3.27,2,4.88.64,1.28,2.07,2.44,1.36,3.94A2,2,0,0,1,84.3,51Z" style="fill:#ffd364;mix-blend-mode:screen"/><path d="M107.38,33.91a9,9,0,0,1-.55-1.87,10.69,10.69,0,0,1-.31-4.17c-.25-1.17,2-2.7,2.43-1,.3,1.35.43,2.72.79,4.07.29,1.07,1.2,2.16.44,3.25A1.61,1.61,0,0,1,107.38,33.91Z" style="fill:#ffd364;mix-blend-mode:screen"/><path d="M97.86,62.49a8.32,8.32,0,0,1,.42-1.89A10.59,10.59,0,0,1,100,56.73c.36-1.15,3.1-1.63,2.64.06-.37,1.35-.92,2.6-1.26,4-.26,1.07,0,2.43-1.2,3.08A1.5,1.5,0,0,1,97.86,62.49Z" style="fill:#ffd364;mix-blend-mode:screen"/><path d="M25.59,125.78a8.93,8.93,0,0,1,.82-1.36,9.14,9.14,0,0,1,2.44-2.52,1.45,1.45,0,0,1,1.48-.34l.51.29a.63.63,0,0,1,0,.89c-.65.93-1.41,1.76-2,2.74-.49.77-.64,1.91-1.75,2.07A1.29,1.29,0,0,1,25.59,125.78Z" style="fill:#ffd364;mix-blend-mode:screen"/><path d="M25.16,143a9.41,9.41,0,0,1-.76-1.43,9.14,9.14,0,0,1-1-3.36c-.38-.92,1.18-2.46,1.8-1.14.49,1,.82,2.13,1.33,3.18.43.84,1.35,1.59.9,2.58A1.32,1.32,0,0,1,25.16,143Z" style="fill:#ffd364;mix-blend-mode:screen"/><path d="M45.38,136.13a6.37,6.37,0,0,1-.37-1.22,6.86,6.86,0,0,1-.21-2.74c-.14-.73,1.32-1.75,1.59-.63.2.87.28,1.75.53,2.65.18.69.76,1.4.3,2.12A1.06,1.06,0,0,1,45.38,136.13Z" style="fill:#ffd364;mix-blend-mode:screen"/><path d="M74.55,139.89a4,4,0,0,1,.28-1.21A7.58,7.58,0,0,1,76,136.13c.23-.72,2-1,1.73.05-.25.88-.61,1.71-.84,2.59-.16.71,0,1.59-.78,2A1,1,0,0,1,74.55,139.89Z" style="fill:#ffd364;mix-blend-mode:screen"/><g style="mix-blend-mode:screen"><path d="M78.25,60.09a11.91,11.91,0,0,1,0-1.58,9,9,0,0,1,.86-3.4c.09-1,2.29-1.73,2.14-.28-.09,1.14-.33,2.24-.39,3.4,0,.92.4,2-.48,2.67A1.29,1.29,0,0,1,78.25,60.09Z" style="fill:#ffd364"/><path d="M56.33,77.67a8.77,8.77,0,0,1-.75-1.42,9.09,9.09,0,0,1-1-3.36c-.39-.92,1.18-2.47,1.8-1.14.48,1.06.82,2.13,1.33,3.18.43.84,1.35,1.59.9,2.58A1.32,1.32,0,0,1,56.33,77.67Z" style="fill:#ffd364"/><path d="M87.47,68.29a7.61,7.61,0,0,1-.36-1.21,6.93,6.93,0,0,1-.21-2.75c-.15-.73,1.31-1.76,1.59-.63.19.87.27,1.74.53,2.65.18.69.76,1.4.3,2.12A1.07,1.07,0,0,1,87.47,68.29Z" style="fill:#ffd364"/><path d="M92.27,88a3.83,3.83,0,0,1,.27-1.21,7.42,7.42,0,0,1,1.12-2.54c.24-.73,2-1.06,1.74,0-.24.88-.61,1.71-.84,2.59-.16.71,0,1.59-.78,2A1,1,0,0,1,92.27,88Z" style="fill:#ffd364"/></g><path d="M57.82,124a9.25,9.25,0,0,1,0-1.58,9,9,0,0,1,.85-3.4c.1-1,2.29-1.73,2.15-.28-.1,1.14-.34,2.24-.39,3.4-.05.92.4,2-.49,2.66A1.28,1.28,0,0,1,57.82,124Z" style="fill:#ffd364;mix-blend-mode:screen"/><path d="M71.67,122.79a10.94,10.94,0,0,1-.76-1.43A9.07,9.07,0,0,1,70,118c-.39-.92,1.18-2.47,1.8-1.14.48,1.06.82,2.13,1.33,3.18.43.84,1.34,1.59.89,2.58A1.32,1.32,0,0,1,71.67,122.79Z" style="fill:#ffd364;mix-blend-mode:screen"/><path d="M110.73,108.17a6.59,6.59,0,0,1-.37-1.22,6.83,6.83,0,0,1-.21-2.73c-.14-.74,1.31-1.76,1.59-.64.2.87.27,1.74.53,2.65.18.68.76,1.4.3,2.12A1.06,1.06,0,0,1,110.73,108.17Z" style="fill:#ffd364;mix-blend-mode:screen"/><path d="M90.68,110.37a4,4,0,0,1,.27-1.21,7.36,7.36,0,0,1,1.13-2.54c.24-.74,2-1.07,1.74,0-.25.88-.61,1.7-.85,2.59-.16.71,0,1.59-.77,2A1,1,0,0,1,90.68,110.37Z" style="fill:#ffd364;mix-blend-mode:screen"/><g style="mix-blend-mode:screen"><path d="M42.3,78.69a9.27,9.27,0,0,1,0-1.58,9,9,0,0,1,.85-3.4c.1-1,2.29-1.73,2.15-.28-.1,1.14-.34,2.24-.39,3.4,0,.92.4,2-.49,2.67A1.28,1.28,0,0,1,42.3,78.69Z" style="fill:#ffd364"/><path d="M32.27,104.1a8.47,8.47,0,0,1-.76-1.42,8.94,8.94,0,0,1-1-3.36c-.39-.92,1.18-2.47,1.8-1.14.48,1.06.82,2.13,1.33,3.19.43.83,1.34,1.58.89,2.57A1.32,1.32,0,0,1,32.27,104.1Z" style="fill:#ffd364"/><path d="M53.06,94.84a7.65,7.65,0,0,1-.37-1.21,6.89,6.89,0,0,1-.21-2.74c-.14-.74,1.31-1.76,1.59-.64.2.87.27,1.75.53,2.65.18.69.76,1.4.3,2.12A1.06,1.06,0,0,1,53.06,94.84Z" style="fill:#ffd364"/><path d="M55.21,106.39a3.77,3.77,0,0,1,.27-1.21,7.44,7.44,0,0,1,1.13-2.54c.23-.73,2-1.06,1.73,0-.24.88-.6,1.71-.84,2.59-.16.71,0,1.59-.77,2A1,1,0,0,1,55.21,106.39Z" style="fill:#ffd364"/></g><g style="mix-blend-mode:screen"><path d="M132.9,111.44a7.84,7.84,0,0,1,1-1,7,7,0,0,1,2.81-1.51c.7-.55,2.8.61,1.76,1.42-.79.65-1.68,1.16-2.46,1.85-.62.55-1,1.54-2.06,1.32A1.4,1.4,0,0,1,132.9,111.44Z" style="fill:#ffd364"/><path d="M121.58,138.63a16.79,16.79,0,0,1-2.39-6.67c-.54-1.29,1.65-3.44,2.51-1.6.67,1.48,1.15,3,1.85,4.45.6,1.16,1.88,2.21,1.25,3.59A1.84,1.84,0,0,1,121.58,138.63Z" style="fill:#ffd364"/><path d="M135.92,128.58a11,11,0,0,1-.51-1.69,9.67,9.67,0,0,1-.29-3.82c-.2-1,1.83-2.45,2.22-.88.27,1.21.38,2.43.74,3.69.25,1,1.06,2,.41,3A1.48,1.48,0,0,1,135.92,128.58Z" style="fill:#ffd364"/><path d="M134.16,142.74a5.49,5.49,0,0,1,.38-1.69,10.45,10.45,0,0,1,1.56-3.53c.34-1,2.86-1.49,2.43,0-.34,1.23-.85,2.38-1.18,3.62-.23,1,0,2.21-1.08,2.8A1.34,1.34,0,0,1,134.16,142.74Z" style="fill:#ffd364"/></g><path d="M70.09,70.65a16.7,16.7,0,0,0-4.25,4.95c-.37.64-1.42,2.83,0,3s2.67-1.33,3.42-2.56h0c.07-.11.46-.67.43-.65l.22-.3v0l.29-.41A8.86,8.86,0,0,0,72,71.45C72.26,70,71,69.93,70.09,70.65Z" style="fill:#ffd364;mix-blend-mode:screen"/><path d="M100.26,38.93c-1.21-.66-2.79-.13-4.09.06a18,18,0,0,1-2.43.22,2.52,2.52,0,0,0-2,2.14v.14a1.22,1.22,0,0,0,0,.27v0a1,1,0,0,0,0,.17c.06.37.78.72,1.06.89a9.52,9.52,0,0,0,4.1,1c1,.07,2-.87,2.59-1.61C99.86,41.65,101.29,39.49,100.26,38.93Z" style="fill:#ffd364;mix-blend-mode:screen"/><path d="M46.65,84.46c-.6-.17-1.35.4-1.89.59a17.17,17.17,0,0,0-4.19,2.11c-.41.29-2,2.56-.58,2.36,1-.14,2.08,0,3.11,0a5.26,5.26,0,0,0,4.13-3.15C47.53,85.63,47.59,84.72,46.65,84.46Z" style="fill:#ffd364;mix-blend-mode:screen"/><path d="M45,105.56c-.57-1.17-1.36-1.48-2.3-2.31-.6-.53-2.07,1.31-1.54,1.92,1.63,1.86.49,4.71,1.78,6.67.93,1.42,3.08-1.62,3.06-2.59A8.88,8.88,0,0,0,45,105.56Z" style="fill:#ffd364;mix-blend-mode:screen"/><path d="M31.18,107.55a2.76,2.76,0,0,0-1.28,1.6c-.21.64-.38,1.3-.58,1.95a5.4,5.4,0,0,0-.39,1.62c0,.69.81.16,1,0,1.33-1.18,1.47-2.92,2-4.53C32.1,107.58,31.68,107.31,31.18,107.55Z" style="fill:#ffd364;mix-blend-mode:screen"/><path d="M49.25,121c-.35-1.26-1.82-1.58-3-1.85a5.8,5.8,0,0,0-3.94.21,2.49,2.49,0,0,0-1.1,1.21c-.08.18-.29.94.17.92,1-.06,1.89.83,2.71,1.38,1.06.71,1.71,1.41,3.06,1C48.22,123.65,49.56,122.18,49.25,121Z" style="fill:#ffd364;mix-blend-mode:screen"/><path d="M66.3,136.87l-.15,0c-.43-.1-1,.43-1.2.74a52.93,52.93,0,0,0-3.26,6.14c-.26.49-.9,1.6-.27,2.1s2.06-.68,2.44-1.2a16.41,16.41,0,0,0,1.77-3.68,9.45,9.45,0,0,0,1.05-3.54C66.67,137.13,66.58,136.93,66.3,136.87Z" style="fill:#ffd364;mix-blend-mode:screen"/><path d="M42.45,142.66a24,24,0,0,0-2.74-1.48,9.58,9.58,0,0,0-1.39-.71c-.35-.12-.9-.44-1.27-.32a2.7,2.7,0,0,0-1.38,1.18c-.15.25-.6,1.12-.17,1.35a13.62,13.62,0,0,1,.5,1.46,10,10,0,0,0,.92,1.31,3.46,3.46,0,0,0,3.17,1.06c.87-.1,1.69-1.12,2.1-1.8C42.46,144.28,43.07,143.1,42.45,142.66Z" style="fill:#ffd364;mix-blend-mode:screen"/><path d="M92.13,136.62c-1.21,0-2.26.88-3.25,1.49a32.09,32.09,0,0,0-2.48,2.17,4.65,4.65,0,0,0-1.52,1.94v0a.6.6,0,0,0,.34.85c1,.35,2.06-.31,2.94-.89a7.56,7.56,0,0,0,4-3.07C92.42,138.74,93.35,136.61,92.13,136.62Z" style="fill:#ffd364;mix-blend-mode:screen"/><path d="M72.88,102.61c-.23-.7-.64-.86-1.28-1.15a13.45,13.45,0,0,1-1.83-1.07,9.64,9.64,0,0,0-3.07-1.33c-.73-.18-1.86,1.33-1.59,2,.19.47.59.63,1,.94a11,11,0,0,1,1.34,1.3c1,1,2.41,2.08,3.83,1.59C72,104.62,73.19,103.51,72.88,102.61Z" style="fill:#ffd364;mix-blend-mode:screen"/><path d="M75.35,128.41c-1.17-.93-2.87-.59-4.26-.5-2.15.13-3.93,1.17-5.92,1.82C64.67,129.88,63,132,64,132c1.56-.05,3.06-.5,4.62-.55,1.92-.07,3.59.25,5.42-.5C74.58,130.69,76.13,129,75.35,128.41Z" style="fill:#ffd364;mix-blend-mode:screen"/><path d="M94.88,125.17c-2.52-1-5.41-.34-7.85-1.62-.69-.35-2,1.28-1.48,1.84A10.45,10.45,0,0,0,93.4,128C94.22,128,96.09,125.62,94.88,125.17Z" style="fill:#ffd364;mix-blend-mode:screen"/><path d="M83.92,106.42c-.4-1-1.84,1-1.85,1.56a21.73,21.73,0,0,1-.43,3.69,20.75,20.75,0,0,0-.88,3.31c0,1.07,1.28.24,1.61-.06A7.62,7.62,0,0,0,83.92,106.42Z" style="fill:#ffd364;mix-blend-mode:screen"/><path d="M108.28,118.93a6.9,6.9,0,0,0-1.8-1.6c-.67-.48-1.46-.69-2-1.41-.66-1-2.49,1.22-2.13,2a7.49,7.49,0,0,0,1.64,2.16c.66.67.85,1.6,1.92,1.69.67.05,1.29-.57,1.67-1S108.62,119.42,108.28,118.93Z" style="fill:#ffd364;mix-blend-mode:screen"/><path d="M116.71,142.52c-.39-1.34-2.44-1.11-3.6-1.3s-2.45-.79-3.58-.75c-.67,0-2.32,1.77-1.31,2.14.85.32,1.51,1.36,2.44,1.72,1.62.62,3.06,1.33,4.67.42C116,144.37,117,143.39,116.71,142.52Z" style="fill:#ffd364;mix-blend-mode:screen"/><path d="M130.85,123.43a5.08,5.08,0,0,0-1.71-1.2,4.26,4.26,0,0,1-1.54-1.41c-.55-.93-2.24,1.13-2,1.9.5,1.42,1.61,3.27,3.15,3.65.58.15,1.28-.6,1.59-1S131.29,124.05,130.85,123.43Z" style="fill:#ffd364;mix-blend-mode:screen"/><g style="mix-blend-mode:screen"><path d="M127.18,98.27l0,.07a.77.77,0,0,0-.07.19C127.2,98.32,127.22,98.2,127.18,98.27Z" style="fill:#ffd364"/><path d="M127.15,98.34a.15.15,0,0,1,0-.07c.36-.72.54-1.61-.47-1.19-1.23.5-1.93,1.92-2.53,3a33.28,33.28,0,0,0-2.66,4.81c-.17.49-.55,1.62.31,1.74,1,.15,2.18-1.13,2.59-1.92.62-1.16,1.19-2.35,1.74-3.55.24-.53.39-1.11.58-1.65l.27-.8.07-.2a1.79,1.79,0,0,1-.38.44A2.5,2.5,0,0,0,127.15,98.34Z" style="fill:#ffd364"/></g><path d="M144.08,100.89a4.58,4.58,0,0,0-2.51-1.58c-1-.37-2.12-.63-3.15-1-.88-.36-2.41,1.83-1.8,2.56a15.43,15.43,0,0,0,2.29,2.28c.93.74,1.35,1.59,2.69,1.3a3.23,3.23,0,0,0,1.69-1.24C143.65,102.71,144.47,101.53,144.08,100.89Z" style="fill:#ffd364;mix-blend-mode:screen"/><path d="M124.58,59.4c-.57-.08-1.16.52-1.47.91a32.29,32.29,0,0,0-3.79,6c-.17.34-.37,1,0,1.33.52.42,1.36-.28,1.7-.61,1.85-1.8,2.61-4.23,3.76-6.47C124.94,60.25,125.11,59.48,124.58,59.4Z" style="fill:#ffd364;mix-blend-mode:screen"/><path d="M122.4,74.7a3.34,3.34,0,0,0-1.14-1.25A8.92,8.92,0,0,1,120,72c-.57-.79-2.71,1.65-2.27,2.5a11.34,11.34,0,0,0,1,1.69,2,2,0,0,0,1.6,1.07C121.27,77.29,122.83,75.66,122.4,74.7Z" style="fill:#ffd364;mix-blend-mode:screen"/><path d="M105.55,89.05a5.35,5.35,0,0,0-1.5-2.48,17.72,17.72,0,0,1-2.18-1.88c-.61-.84-2.71,1.72-2.35,2.58A9,9,0,0,0,101,89.44c.7.83,1.07,1.78,2,2.35C104.19,92.45,105.83,90,105.55,89.05Z" style="fill:#ffd364;mix-blend-mode:screen"/><path d="M104.27,95.29c-.65-.2-1.73,1.25-1.46,1.83s0,.83-.36,1.22a12.52,12.52,0,0,0-1.13,1.9,25.28,25.28,0,0,0-2.45,4.12c-.45,1.3.23,2.2,1.5,1.2a14.51,14.51,0,0,0,4.15-6.42C105,97.91,106.1,95.87,104.27,95.29Z" style="fill:#ffd364;mix-blend-mode:screen"/><path d="M80.05,85.06c-1.5-1.56-4.22-.07-6-1.1-1-.59-2.85,1.79-2.15,2.68A5.21,5.21,0,0,0,74.26,88a6.51,6.51,0,0,0,3.78.29C79,88.08,81,86.07,80.05,85.06Z" style="fill:#ffd364;mix-blend-mode:screen"/><path d="M60.28,79.9c-.34-1-2.18,1.12-2,1.93a19.28,19.28,0,0,1,.42,3.39c0,1-.15,2,.55,2.82.46.53,1.49-.88,1.61-1.18C61.71,84.59,61.06,82.11,60.28,79.9Z" style="fill:#ffd364;mix-blend-mode:screen"/><path d="M62.71,55.4c-1-.56-2,.17-3,.64a30.67,30.67,0,0,1-4.07,2.2h0a3.11,3.11,0,0,0-1.33,1.64v0c0,.15.09.39.27.38A8,8,0,0,0,58,59.4a22.71,22.71,0,0,0,3.79-1.89C62.08,57.29,63.44,55.79,62.71,55.4Z" style="fill:#ffd364;mix-blend-mode:screen"/><path d="M71,54.52c-.28-.86-1.95.93-1.85,1.56l.15-.17a2.24,2.24,0,0,0-.37.74c-.24.94-.24,1.94-.49,2.88a30.92,30.92,0,0,0-.71,4.27c-.15,1.21,1.6-.12,1.81-.4,1.66-2.16,1.11-5,1.33-7.55A1.61,1.61,0,0,0,71,54.52Z" style="fill:#ffd364;mix-blend-mode:screen"/><path d="M77.38,42.81a4.66,4.66,0,0,0-4-1.45c-.75,0-2.5,2.44-1.37,2.62S74,45.13,75.14,45.6,78.13,43.79,77.38,42.81Z" style="fill:#ffd364;mix-blend-mode:screen"/><path d="M109.17,40.27c-.17-.46-.83-.16-1.07,0a6.05,6.05,0,0,0-1.45,1.45,19.66,19.66,0,0,1-1.31,2c-1,1.3-2.49,2.3-3.3,3.75-.2.35-.71,1.73.26,1.47A7.65,7.65,0,0,0,106,46.11a19.65,19.65,0,0,0,1.6-2.26,17.44,17.44,0,0,1,1.09-2.09C109,41.41,109.35,40.75,109.17,40.27Z" style="fill:#ffd364;mix-blend-mode:screen"/><path d="M97.5,29.9A4.1,4.1,0,0,0,95.72,29c-.79-.25-1.6-.2-2.39-.43-1-.3-2.91,2.5-1.73,2.82.71.19,1.43.14,2.14.31.37.09.75.21,1.12.32a3.89,3.89,0,0,0,1.4,0C96.83,31.87,98.11,30.45,97.5,29.9Z" style="fill:#ffd364;mix-blend-mode:screen"/><path d="M140.49,18.54c-2.21-.38-4.65.32-6.74,1a2.79,2.79,0,0,0-1.59,1.55c-.18.43-.28,1.23.44,1.09,2.09-.4,4.19-.24,6.28-.57C139.68,21.49,141.87,18.78,140.49,18.54Z" style="fill:#ffd364;mix-blend-mode:screen"/><path d="M122.94,41.14c-.46-.56-1.91,1.18-1.61,1.76a20.87,20.87,0,0,1,1.2,3A6.14,6.14,0,0,0,124,49c.82.67,2.31-1.45,2.22-2.15C126,44.65,124.27,42.78,122.94,41.14Z" style="fill:#ffd364;mix-blend-mode:screen"/><path d="M114.67,51.17c-.24-.68-1.23.07-1.48.32a2.32,2.32,0,0,0-.87,1.95,10.79,10.79,0,0,1,.15,2.66c0,.89-.1,1.86.7,2.4,1,.66,2.38-1.51,2.37-2.29A16,16,0,0,0,114.67,51.17Z" style="fill:#ffd364;mix-blend-mode:screen"/><path d="M145.72,48.69c-.7-1-2-.93-3.18-1.06s-2.79.19-4-.31c-.71-.27-2.15,1.62-1.54,2.19A7.64,7.64,0,0,0,140.05,51c1.49.48,2.41,1,4,.47C144.67,51.21,146.27,49.5,145.72,48.69Z" style="fill:#ffd364;mix-blend-mode:screen"/><path d="M84.37,70.32c0-.45-.42-.46-.72-.31a2.23,2.23,0,0,0-.85.79,4.31,4.31,0,0,0-.68.67A6.7,6.7,0,0,0,80.92,73c-.59,1.19-1.54,2-1.7,3.37s1.7-.09,1.93-.41c.37-.52.71-1.06,1-1.61l.43-.72c.11-.21.22-.43.34-.64a1.76,1.76,0,0,0,.09-.21,6.27,6.27,0,0,0,.38-.57l0,0,.18-.2A2.82,2.82,0,0,0,84.37,70.32Z" style="fill:#ffd364;mix-blend-mode:screen"/><path d="M101.14,77.05c-.64-1-2-1.55-3-2.23a10,10,0,0,1-3.06-2.49c-.61-1-2.5,1.21-2.1,2a11.29,11.29,0,0,0,2.62,3.1c1.12,1.06,2.13,2.39,3.82,2.06C100.09,79.38,101.65,77.85,101.14,77.05Z" style="fill:#ffd364;mix-blend-mode:screen"/><path d="M84.86,96a2,2,0,0,0-1.25-1.55,4.38,4.38,0,0,0-2.31-.55,2.56,2.56,0,0,0-1.79,2.54c.12.71.83,1,1.38,1.41a3.53,3.53,0,0,0,1.78.88C83.83,98.89,85.05,97.07,84.86,96Z" style="fill:#ffd364;mix-blend-mode:screen"/><g style="mix-blend-mode:screen"><path d="M169.35,73.15a8.12,8.12,0,0,0,0-1.71,9.22,9.22,0,0,0-.9-3.66c-.1-1.07-2.46-1.87-2.34-.32.1,1.24.38,2.42.44,3.67,0,1-.43,2.13.53,2.89A1.39,1.39,0,0,0,169.35,73.15Z" style="fill:#ffd364"/><path d="M177.31,33.64A11,11,0,0,0,178.2,32a9.71,9.71,0,0,0,1.07-3.88c.47-1-1.35-2.82-2.06-1.3-.55,1.21-.93,2.47-1.52,3.67-.48,1-1.56,1.85-1,3A1.5,1.5,0,0,0,177.31,33.64Z" style="fill:#ffd364"/><path d="M206.94,99a9.05,9.05,0,0,0,.57-1.86,10.91,10.91,0,0,0,.3-4.21c.26-1.15-2-2.71-2.41-1-.32,1.35-.44,2.72-.81,4.07-.31,1.08-1.21,2.17-.44,3.27A1.6,1.6,0,0,0,206.94,99Z" style="fill:#ffd364"/><path d="M160,66.62a8.08,8.08,0,0,0-.44-1.9,10.54,10.54,0,0,0-1.76-3.87c-.33-1.17-3.11-1.65-2.65,0,.37,1.35.95,2.62,1.27,4,.25,1.1,0,2.43,1.21,3.09A1.51,1.51,0,0,0,160,66.62Z" style="fill:#ffd364"/><path d="M175.25,113.36v.24c.16,1.72.54,3.39.61,5.11.06,1.41-.61,3,.76,4.12a2,2,0,0,0,3.27-1.23,12,12,0,0,0,0-2.46,13.9,13.9,0,0,0-1.27-5.2C178.42,112.48,175.23,111.37,175.25,113.36Z" style="fill:#ffd364"/><path d="M243.75,142a10.93,10.93,0,0,0,1.15-2.19,13.12,13.12,0,0,0,1.47-5.18c.62-1.39-1.8-3.76-2.75-1.74-.74,1.62-1.24,3.29-2,4.89-.64,1.3-2.07,2.46-1.36,4A2,2,0,0,0,243.75,142Z" style="fill:#ffd364"/><path d="M188.44,75.8a11.23,11.23,0,0,0-.05-2.46,14,14,0,0,0-1.27-5.2c-.17-1.5-3.5-2.65-3.34-.45.15,1.75.53,3.44.6,5.22.08,1.41-.59,3,.78,4.12A2,2,0,0,0,188.44,75.8Z" style="fill:#ffd364"/><path d="M181.65,94.81a12.4,12.4,0,0,0,1.19-2.2,13.62,13.62,0,0,0,1.44-5.16c.61-1.4-1.79-3.79-2.73-1.75-.76,1.63-1.24,3.3-2.05,4.9-.64,1.27-2.05,2.43-1.37,4A2,2,0,0,0,181.65,94.81Z" style="fill:#ffd364"/><path d="M161.8,81.68a12.49,12.49,0,0,0,.55-1.87,11.07,11.07,0,0,0,.3-4.2c.26-1.16-2-2.7-2.41-1-.32,1.35-.47,2.71-.81,4.06-.31,1.08-1.21,2.17-.45,3.27A1.61,1.61,0,0,0,161.8,81.68Z" style="fill:#ffd364"/><path d="M171.89,90.23a7.87,7.87,0,0,0-.42-1.91,10.88,10.88,0,0,0-1.77-3.87c-.35-1.15-3.1-1.62-2.64.07.38,1.34.94,2.6,1.27,4,.24,1.08,0,2.42,1.21,3.1A1.5,1.5,0,0,0,171.89,90.23Z" style="fill:#ffd364"/><path d="M161,94.09a8.56,8.56,0,0,0,0-1.6,8.9,8.9,0,0,0-.86-3.41c-.09-1-2.29-1.73-2.15-.28.1,1.14.34,2.25.4,3.41,0,.92-.41,2,.48,2.68A1.29,1.29,0,0,0,161,94.09Z" style="fill:#ffd364"/></g><g style="mix-blend-mode:screen"><path d="M169.25,34.81a8.78,8.78,0,0,0-.41-1.91A11,11,0,0,0,167.07,29c-.35-1.14-3.11-1.62-2.64.07.37,1.34.94,2.61,1.26,4,.24,1.09,0,2.42,1.2,3.1A1.5,1.5,0,0,0,169.25,34.81Z" style="fill:#ffd364"/><path d="M157.74,41.46A8.56,8.56,0,0,0,158.5,40a9.07,9.07,0,0,0,1-3.37c.39-.92-1.19-2.48-1.82-1.15-.48,1.06-.82,2.15-1.32,3.2-.44.84-1.35,1.59-.91,2.58A1.32,1.32,0,0,0,157.74,41.46Z" style="fill:#ffd364"/></g><path d="M190.4,133.38a11.8,11.8,0,0,0,1,2.22,13.68,13.68,0,0,0,3.3,4.22c.76,1.3,4.29,1,3.23-1-.86-1.54-1.92-2.94-2.71-4.5-.64-1.26-.7-3-2.39-3.45A2,2,0,0,0,190.4,133.38Z" style="fill:#ffd364;mix-blend-mode:screen"/><path d="M212.29,50.86a11.85,11.85,0,0,0,1.15-2.2,13.12,13.12,0,0,0,1.47-5.18c.62-1.39-1.8-3.76-2.75-1.74-.74,1.62-1.24,3.29-2,4.9-.64,1.29-2.08,2.46-1.37,4A2,2,0,0,0,212.29,50.86Z" style="fill:#ffd364;mix-blend-mode:screen"/><path d="M189.1,33.71a8.67,8.67,0,0,0,.56-1.88,10.74,10.74,0,0,0,.31-4.18c.25-1.18-2-2.72-2.43-1-.31,1.36-.44,2.73-.8,4.08-.3,1.08-1.2,2.18-.45,3.27A1.61,1.61,0,0,0,189.1,33.71Z" style="fill:#ffd364;mix-blend-mode:screen"/><path d="M198.67,62.41a8.3,8.3,0,0,0-.43-1.9,10.76,10.76,0,0,0-1.75-3.89c-.36-1.15-3.12-1.63-2.65.06.37,1.36.92,2.62,1.26,4,.26,1.07,0,2.44,1.21,3.09A1.5,1.5,0,0,0,198.67,62.41Z" style="fill:#ffd364;mix-blend-mode:screen"/><path d="M271.24,126a9.61,9.61,0,0,0-.83-1.37,9.21,9.21,0,0,0-2.45-2.53,1.43,1.43,0,0,0-1.49-.33l-.5.28a.62.62,0,0,0,0,.89c.65.94,1.41,1.77,2,2.76.5.78.64,1.92,1.76,2.08A1.3,1.3,0,0,0,271.24,126Z" style="fill:#ffd364;mix-blend-mode:screen"/><path d="M271.67,143.29a9.06,9.06,0,0,0,.76-1.44,9.16,9.16,0,0,0,1-3.37c.38-.92-1.19-2.48-1.81-1.15-.5,1.06-.83,2.14-1.34,3.2-.43.85-1.35,1.6-.9,2.59A1.33,1.33,0,0,0,271.67,143.29Z" style="fill:#ffd364;mix-blend-mode:screen"/><path d="M251.37,136.35a7.17,7.17,0,0,0,.37-1.22,7.1,7.1,0,0,0,.2-2.75c.15-.74-1.31-1.76-1.59-.64-.2.88-.28,1.76-.53,2.66-.19.7-.77,1.42-.3,2.13A1.07,1.07,0,0,0,251.37,136.35Z" style="fill:#ffd364;mix-blend-mode:screen"/><path d="M222.07,140.13a4.06,4.06,0,0,0-.27-1.22,7.51,7.51,0,0,0-1.14-2.55c-.24-.73-2-1.06-1.74,0,.25.89.61,1.72.84,2.61.17.7,0,1.59.79,2A1,1,0,0,0,222.07,140.13Z" style="fill:#ffd364;mix-blend-mode:screen"/><g style="mix-blend-mode:screen"><path d="M218.35,60a9.39,9.39,0,0,0,0-1.59,8.85,8.85,0,0,0-.86-3.41c-.09-1-2.29-1.74-2.15-.29.1,1.15.34,2.26.39,3.42.05.92-.4,2,.49,2.68A1.29,1.29,0,0,0,218.35,60Z" style="fill:#ffd364"/><path d="M240.37,77.66a10.94,10.94,0,0,0,.76-1.43,9.24,9.24,0,0,0,1-3.38c.39-.92-1.19-2.48-1.81-1.14-.49,1.06-.83,2.14-1.34,3.19-.43.85-1.35,1.6-.9,2.59A1.33,1.33,0,0,0,240.37,77.66Z" style="fill:#ffd364"/><path d="M209.1,68.23a8.58,8.58,0,0,0,.37-1.22,6.92,6.92,0,0,0,.2-2.75c.15-.74-1.31-1.77-1.59-.64-.2.88-.28,1.75-.54,2.66-.17.69-.76,1.41-.29,2.13A1.06,1.06,0,0,0,209.1,68.23Z" style="fill:#ffd364"/><path d="M204.28,88a3.83,3.83,0,0,0-.27-1.21,7.49,7.49,0,0,0-1.13-2.55c-.24-.73-2-1.07-1.75,0,.25.88.62,1.71.85,2.6.17.71,0,1.6.78,2A1,1,0,0,0,204.28,88Z" style="fill:#ffd364"/></g><path d="M238.87,124.13a8.45,8.45,0,0,0,0-1.59,8.68,8.68,0,0,0-.86-3.41c-.09-1-2.29-1.74-2.15-.28.1,1.14.34,2.25.39,3.41.05.92-.4,2,.5,2.68A1.28,1.28,0,0,0,238.87,124.13Z" style="fill:#ffd364;mix-blend-mode:screen"/><path d="M225,123a8.56,8.56,0,0,0,.76-1.43,8.82,8.82,0,0,0,1-3.37c.39-.93-1.18-2.48-1.81-1.15-.48,1.06-.82,2.14-1.33,3.2-.43.84-1.35,1.59-.9,2.59A1.32,1.32,0,0,0,225,123Z" style="fill:#ffd364;mix-blend-mode:screen"/><path d="M185.75,108.27a8.45,8.45,0,0,0,.37-1.21,6.92,6.92,0,0,0,.2-2.75c.15-.75-1.31-1.77-1.59-.65-.2.88-.27,1.76-.54,2.67-.17.69-.76,1.4-.29,2.12A1.06,1.06,0,0,0,185.75,108.27Z" style="fill:#ffd364;mix-blend-mode:screen"/><path d="M205.88,110.48a3.73,3.73,0,0,0-.28-1.21,7.41,7.41,0,0,0-1.13-2.55c-.24-.74-2.05-1.07-1.74,0,.25.88.61,1.71.85,2.6.16.71,0,1.59.77,2A1,1,0,0,0,205.88,110.48Z" style="fill:#ffd364;mix-blend-mode:screen"/><g style="mix-blend-mode:screen"><path d="M254.46,78.68a9.37,9.37,0,0,0,0-1.59,9.13,9.13,0,0,0-.86-3.42c-.09-1-2.29-1.73-2.15-.28.09,1.15.34,2.25.39,3.42.05.92-.4,2,.49,2.67A1.29,1.29,0,0,0,254.46,78.68Z" style="fill:#ffd364"/><path d="M264.53,104.19a8.88,8.88,0,0,0,.76-1.42,9.24,9.24,0,0,0,1-3.38c.39-.92-1.19-2.48-1.81-1.15-.48,1.07-.83,2.14-1.33,3.2-.43.84-1.35,1.6-.9,2.59A1.32,1.32,0,0,0,264.53,104.19Z" style="fill:#ffd364"/><path d="M243.66,94.89a8.58,8.58,0,0,0,.37-1.22,7.11,7.11,0,0,0,.2-2.75c.15-.74-1.31-1.76-1.59-.64-.2.88-.28,1.75-.54,2.67-.18.68-.76,1.4-.29,2.12A1.06,1.06,0,0,0,243.66,94.89Z" style="fill:#ffd364"/><path d="M241.49,106.49a3.83,3.83,0,0,0-.27-1.22,7.49,7.49,0,0,0-1.13-2.55c-.24-.73-2.05-1.07-1.74,0,.24.89.61,1.72.84,2.61.17.71,0,1.59.78,2A1,1,0,0,0,241.49,106.49Z" style="fill:#ffd364"/></g><g style="mix-blend-mode:screen"><path d="M163.48,111.56a6.9,6.9,0,0,0-1-1,7.06,7.06,0,0,0-2.82-1.51c-.69-.55-2.8.62-1.77,1.43.81.64,1.69,1.16,2.48,1.86.62.54,1,1.54,2.07,1.32A1.41,1.41,0,0,0,163.48,111.56Z" style="fill:#ffd364"/><path d="M174.85,138.86a16.89,16.89,0,0,0,2.4-6.7c.54-1.29-1.65-3.45-2.52-1.6-.68,1.48-1.16,3-1.86,4.47-.6,1.16-1.89,2.22-1.26,3.6A1.85,1.85,0,0,0,174.85,138.86Z" style="fill:#ffd364"/><path d="M160.45,128.77a11,11,0,0,0,.51-1.69,9.8,9.8,0,0,0,.29-3.84c.2-1-1.83-2.46-2.22-.89-.28,1.22-.39,2.44-.75,3.71-.25,1-1.07,2-.42,3A1.49,1.49,0,0,0,160.45,128.77Z" style="fill:#ffd364"/><path d="M162.22,143a5.49,5.49,0,0,0-.38-1.69,10.29,10.29,0,0,0-1.57-3.55c-.34-1-2.87-1.5-2.44.05.34,1.24.85,2.39,1.18,3.63.23,1,0,2.23,1.09,2.82A1.35,1.35,0,0,0,162.22,143Z" style="fill:#ffd364"/></g><path d="M224.68,71.4a8.94,8.94,0,0,0,1.7,3.28l.29.4s0,0,0,0l.22.3s.36.54.43.66l0,0c.76,1.24,2,2.78,3.44,2.57s.4-2.41,0-3.05a16.57,16.57,0,0,0-4.27-5C225.6,69.88,224.37,70,224.68,71.4Z" style="fill:#ffd364;mix-blend-mode:screen"/><path d="M196.26,38.75c1.21-.66,2.8-.13,4.1.06a18.13,18.13,0,0,0,2.44.22,2.52,2.52,0,0,1,2.06,2.15.57.57,0,0,1,0,.13,2.61,2.61,0,0,1,0,.28l0,0a1,1,0,0,1,0,.17c-.06.38-.79.73-1.06.9a9.59,9.59,0,0,1-4.11.95c-1,.07-2-.87-2.61-1.62C196.66,41.48,195.22,39.31,196.26,38.75Z" style="fill:#ffd364;mix-blend-mode:screen"/><path d="M250.09,84.46c.6-.16,1.36.41,1.9.61a17,17,0,0,1,4.21,2.11c.41.29,2,2.57.58,2.37-1-.14-2.09,0-3.13-.06a5.27,5.27,0,0,1-4.14-3.15C249.21,85.64,249.15,84.72,250.09,84.46Z" style="fill:#ffd364;mix-blend-mode:screen"/><path d="M251.76,105.66c.58-1.18,1.37-1.5,2.31-2.32.6-.53,2.09,1.31,1.55,1.92-1.63,1.87-.49,4.73-1.78,6.7-.94,1.43-3.1-1.62-3.08-2.6A9.08,9.08,0,0,1,251.76,105.66Z" style="fill:#ffd364;mix-blend-mode:screen"/><path d="M265.62,107.66a2.69,2.69,0,0,1,1.28,1.6c.22.65.39,1.3.59,2a5.39,5.39,0,0,1,.39,1.63c0,.68-.81.16-1,0-1.34-1.18-1.48-2.93-2-4.55C264.7,107.69,265.12,107.41,265.62,107.66Z" style="fill:#ffd364;mix-blend-mode:screen"/><path d="M247.48,121.2c.35-1.26,1.82-1.58,3-1.86a5.79,5.79,0,0,1,4,.22,2.4,2.4,0,0,1,1.1,1.21c.08.18.29,1-.17.92-1.05-.06-1.9.84-2.72,1.38-1.07.72-1.71,1.42-3.08,1C248.51,123.82,247.16,122.35,247.48,121.2Z" style="fill:#ffd364;mix-blend-mode:screen"/><path d="M230.35,137.09l.16,0c.43-.1,1,.44,1.2.74A54.31,54.31,0,0,1,235,144c.26.5.9,1.61.27,2.11s-2.07-.68-2.45-1.2a16.59,16.59,0,0,1-1.78-3.7,9.45,9.45,0,0,1-1.06-3.56C230,137.36,230.07,137.16,230.35,137.09Z" style="fill:#ffd364;mix-blend-mode:screen"/><path d="M254.3,142.91a22.86,22.86,0,0,1,2.76-1.49,9.2,9.2,0,0,1,1.4-.71c.34-.12.9-.45,1.27-.32a2.6,2.6,0,0,1,1.38,1.19c.15.24.61,1.12.18,1.35a14.29,14.29,0,0,0-.51,1.46,8,8,0,0,1-.92,1.32,3.48,3.48,0,0,1-3.18,1.07c-.87-.1-1.7-1.13-2.11-1.81C254.3,144.54,253.69,143.35,254.3,142.91Z" style="fill:#ffd364;mix-blend-mode:screen"/><path d="M204.42,136.84c1.21,0,2.27.89,3.27,1.5s1.61,1.5,2.49,2.17a4.69,4.69,0,0,1,1.52,2v0a.61.61,0,0,1-.34.86c-1,.34-2.07-.32-3-.9a7.65,7.65,0,0,1-4-3.09C204.13,139,203.2,136.84,204.42,136.84Z" style="fill:#ffd364;mix-blend-mode:screen"/><path d="M223.75,102.69c.23-.69.64-.86,1.29-1.15a13.52,13.52,0,0,0,1.83-1.08A9.75,9.75,0,0,1,230,99.13c.73-.18,1.87,1.34,1.59,2-.19.47-.59.63-1,.94a9.75,9.75,0,0,0-1.34,1.31c-1,1-2.43,2.08-3.85,1.59C224.61,104.71,223.44,103.6,223.75,102.69Z" style="fill:#ffd364;mix-blend-mode:screen"/><path d="M221.27,128.6c1.17-.94,2.88-.6,4.28-.51,2.16.14,3.94,1.18,5.95,1.83.5.16,2.15,2.28,1.17,2.25-1.56-.06-3.07-.51-4.63-.56-1.93-.07-3.61.26-5.44-.5C222.05,130.89,220.49,129.23,221.27,128.6Z" style="fill:#ffd364;mix-blend-mode:screen"/><path d="M201.66,125.34c2.53-1,5.43-.33,7.88-1.62.69-.36,2.05,1.28,1.48,1.84a10.43,10.43,0,0,1-7.87,2.63C202.32,128.13,200.44,125.8,201.66,125.34Z" style="fill:#ffd364;mix-blend-mode:screen"/><path d="M212.66,106.52c.4-1,1.85,1.06,1.86,1.57a20.89,20.89,0,0,0,.44,3.7,20.66,20.66,0,0,1,.87,3.33c0,1.07-1.28.24-1.61-.07A7.65,7.65,0,0,1,212.66,106.52Z" style="fill:#ffd364;mix-blend-mode:screen"/><path d="M188.21,119.08a6.78,6.78,0,0,1,1.8-1.61c.67-.48,1.47-.69,2-1.41.66-1,2.49,1.22,2.14,2.06a7.39,7.39,0,0,1-1.65,2.16c-.66.68-.86,1.61-1.93,1.7-.67,0-1.3-.57-1.68-1S187.87,119.58,188.21,119.08Z" style="fill:#ffd364;mix-blend-mode:screen"/><path d="M179.74,142.77c.39-1.34,2.45-1.12,3.61-1.3s2.46-.8,3.6-.76c.67,0,2.33,1.77,1.31,2.15-.85.32-1.51,1.37-2.45,1.73-1.62.62-3.07,1.33-4.69.42C180.45,144.63,179.49,143.64,179.74,142.77Z" style="fill:#ffd364;mix-blend-mode:screen"/><path d="M165.54,123.6a5,5,0,0,1,1.72-1.21A4.2,4.2,0,0,0,168.8,121c.56-.93,2.26,1.14,2,1.92-.5,1.42-1.62,3.28-3.16,3.66-.58.15-1.29-.6-1.59-1S165.1,124.22,165.54,123.6Z" style="fill:#ffd364;mix-blend-mode:screen"/><g style="mix-blend-mode:screen"><path d="M169.23,98.33l0,.07.07.19C169.21,98.39,169.18,98.27,169.23,98.33Z" style="fill:#ffd364"/><path d="M169.26,98.4a.13.13,0,0,1,0-.07c-.37-.72-.54-1.61.47-1.19,1.23.5,1.93,1.93,2.54,3a34.55,34.55,0,0,1,2.67,4.83c.17.49.55,1.63-.31,1.75-1,.15-2.19-1.14-2.6-1.92-.62-1.17-1.19-2.37-1.75-3.58-.24-.52-.39-1.1-.58-1.65l-.28-.81c0-.08,0-.14-.06-.2a2,2,0,0,0,.38.45A2.2,2.2,0,0,1,169.26,98.4Z" style="fill:#ffd364"/></g><path d="M152.25,101a4.6,4.6,0,0,1,2.52-1.58c1-.37,2.13-.63,3.17-1.06.88-.36,2.41,1.84,1.81,2.58a16.06,16.06,0,0,1-2.3,2.29c-.94.74-1.36,1.59-2.7,1.3a3.27,3.27,0,0,1-1.7-1.24C152.69,102.79,151.86,101.61,152.25,101Z" style="fill:#ffd364;mix-blend-mode:screen"/><path d="M171.84,59.31c.57-.09,1.16.51,1.47.91a32,32,0,0,1,3.81,6c.17.35.37,1,0,1.34-.52.42-1.37-.28-1.71-.61-1.86-1.82-2.62-4.25-3.78-6.5C171.47,60.15,171.3,59.38,171.84,59.31Z" style="fill:#ffd364;mix-blend-mode:screen"/><path d="M174,74.67a3.39,3.39,0,0,1,1.15-1.26A8.47,8.47,0,0,0,176.46,72c.58-.8,2.72,1.65,2.29,2.51a14.12,14.12,0,0,1-1.05,1.7,2,2,0,0,1-1.62,1.07C175.16,77.26,173.59,75.63,174,74.67Z" style="fill:#ffd364;mix-blend-mode:screen"/><path d="M190.94,89.08a5.27,5.27,0,0,1,1.51-2.49,17.17,17.17,0,0,0,2.19-1.89c.62-.85,2.73,1.72,2.36,2.59a9.08,9.08,0,0,1-1.52,2.18c-.7.83-1.07,1.79-2,2.36C192.31,92.49,190.66,90.06,190.94,89.08Z" style="fill:#ffd364;mix-blend-mode:screen"/><path d="M192.23,95.35c.65-.21,1.73,1.25,1.47,1.83s0,.84.36,1.23a13.46,13.46,0,0,1,1.14,1.9,25.46,25.46,0,0,1,2.45,4.14c.46,1.3-.23,2.21-1.5,1.2A14.66,14.66,0,0,1,192,99.21C191.5,98,190.4,95.93,192.23,95.35Z" style="fill:#ffd364;mix-blend-mode:screen"/><path d="M216.56,85.07c1.5-1.57,4.23-.07,6-1.1,1-.59,2.87,1.8,2.16,2.69a5.26,5.26,0,0,1-2.36,1.4,6.58,6.58,0,0,1-3.8.29C217.66,88.11,215.58,86.09,216.56,85.07Z" style="fill:#ffd364;mix-blend-mode:screen"/><path d="M236.4,79.89c.34-1,2.19,1.12,2,1.94a19.39,19.39,0,0,0-.42,3.4c0,1,.15,2-.55,2.83-.47.54-1.5-.88-1.62-1.19C235,84.6,235.62,82.11,236.4,79.89Z" style="fill:#ffd364;mix-blend-mode:screen"/><path d="M234,55.28c1-.55,2,.18,3,.65A31,31,0,0,0,241,58.14h0a3.12,3.12,0,0,1,1.34,1.65v0c0,.15-.08.38-.26.38a8,8,0,0,1-3.41-.89,23.3,23.3,0,0,1-3.81-1.89C234.59,57.18,233.23,55.68,234,55.28Z" style="fill:#ffd364;mix-blend-mode:screen"/><path d="M225.64,54.4c.29-.85,2,.94,1.86,1.57l-.14-.17a2.24,2.24,0,0,1,.37.74c.24,1,.23,2,.49,2.89a31.21,31.21,0,0,1,.71,4.29c.15,1.21-1.6-.12-1.81-.39-1.67-2.18-1.12-5-1.34-7.59A1.67,1.67,0,0,1,225.64,54.4Z" style="fill:#ffd364;mix-blend-mode:screen"/><path d="M219.23,42.64a4.73,4.73,0,0,1,4.05-1.45c.75,0,2.51,2.45,1.38,2.63s-2.07,1.15-3.18,1.63S218.48,43.63,219.23,42.64Z" style="fill:#ffd364;mix-blend-mode:screen"/><path d="M187.31,40.1c.18-.47.83-.16,1.08,0a6.28,6.28,0,0,1,1.45,1.46,18.34,18.34,0,0,0,1.32,2c1,1.3,2.5,2.31,3.31,3.76.2.36.71,1.74-.26,1.48A7.64,7.64,0,0,1,190.54,46a17,17,0,0,1-1.61-2.27,17.59,17.59,0,0,0-1.1-2.1C187.54,41.24,187.13,40.58,187.31,40.1Z" style="fill:#ffd364;mix-blend-mode:screen"/><path d="M199,29.69a4.12,4.12,0,0,1,1.79-1c.79-.24,1.6-.2,2.4-.43,1-.3,2.91,2.51,1.73,2.84-.71.19-1.43.13-2.14.31-.38.09-.76.21-1.13.32a3.67,3.67,0,0,1-1.4,0C199.7,31.66,198.42,30.23,199,29.69Z" style="fill:#ffd364;mix-blend-mode:screen"/><path d="M155.86,18.28c2.22-.38,4.67.32,6.77,1a2.79,2.79,0,0,1,1.59,1.55c.19.44.28,1.24-.44,1.1-2.09-.4-4.21-.24-6.3-.57C156.67,21.24,154.48,18.51,155.86,18.28Z" style="fill:#ffd364;mix-blend-mode:screen"/><path d="M173.49,41c.45-.55,1.91,1.19,1.61,1.78a20.55,20.55,0,0,0-1.2,3,6.12,6.12,0,0,1-1.53,3c-.82.67-2.32-1.45-2.23-2.16C170.42,44.49,172.14,42.61,173.49,41Z" style="fill:#ffd364;mix-blend-mode:screen"/><path d="M181.78,51c.24-.69,1.24.07,1.5.32a2.37,2.37,0,0,1,.87,2A11.42,11.42,0,0,0,184,56c0,.89.11,1.87-.7,2.41-1,.67-2.38-1.52-2.37-2.3A16.14,16.14,0,0,1,181.78,51Z" style="fill:#ffd364;mix-blend-mode:screen"/><path d="M150.61,48.55c.7-1,2-.94,3.19-1.06,1.33-.15,2.8.18,4.06-.31.71-.28,2.16,1.62,1.55,2.19a7.74,7.74,0,0,1-3.11,1.49c-1.5.48-2.41,1-4,.47C151.67,51.08,150.05,49.36,150.61,48.55Z" style="fill:#ffd364;mix-blend-mode:screen"/><path d="M212.22,70.27c0-.45.41-.47.72-.31a2.17,2.17,0,0,1,.85.8,4.78,4.78,0,0,1,.69.66,7.36,7.36,0,0,1,1.2,1.56c.59,1.2,1.54,2,1.7,3.39s-1.7-.1-1.93-.42c-.38-.52-.71-1.06-1-1.61-.14-.24-.29-.48-.43-.73l-.34-.64a2.28,2.28,0,0,0-.1-.21c-.13-.19-.26-.38-.37-.57l0,0-.19-.2A2.78,2.78,0,0,1,212.22,70.27Z" style="fill:#ffd364;mix-blend-mode:screen"/><path d="M195.37,77c.64-1,2-1.56,3-2.24a10,10,0,0,0,3.08-2.51c.61-1,2.51,1.22,2.11,2A11.37,11.37,0,0,1,201,77.43c-1.13,1.06-2.14,2.4-3.84,2.07C196.43,79.37,194.86,77.83,195.37,77Z" style="fill:#ffd364;mix-blend-mode:screen"/><path d="M211.73,96.1A1.94,1.94,0,0,1,213,94.54a4.35,4.35,0,0,1,2.32-.55,2.59,2.59,0,0,1,1.81,2.55c-.13.71-.84,1-1.39,1.41a3.41,3.41,0,0,1-1.79.88C212.75,99,211.54,97.13,211.73,96.1Z" style="fill:#ffd364;mix-blend-mode:screen"/><g style="mix-blend-mode:screen"><path d="M127.06,225.85a7.5,7.5,0,0,0,0,1.71,9.12,9.12,0,0,0,.89,3.64c.1,1.06,2.45,1.86,2.33.32-.1-1.23-.38-2.41-.43-3.66-.05-1,.42-2.12-.53-2.87A1.38,1.38,0,0,0,127.06,225.85Z" style="fill:#ffd364"/><path d="M119.13,265.2a10.5,10.5,0,0,0-.89,1.65,9.72,9.72,0,0,0-1.06,3.86c-.47,1,1.34,2.81,2,1.3.56-1.22.94-2.47,1.52-3.66.48-1,1.56-1.84,1-3A1.5,1.5,0,0,0,119.13,265.2Z" style="fill:#ffd364"/><path d="M89.62,200.15a9.59,9.59,0,0,0-.56,1.85,10.64,10.64,0,0,0-.31,4.19c-.25,1.15,2,2.7,2.4,1,.32-1.34.44-2.71.81-4.06.31-1.07,1.21-2.16.44-3.25A1.59,1.59,0,0,0,89.62,200.15Z" style="fill:#ffd364"/><path d="M136.37,232.36a8.64,8.64,0,0,0,.43,1.89,10.45,10.45,0,0,0,1.76,3.85c.33,1.17,3.1,1.64,2.63,0-.36-1.34-.94-2.61-1.25-4-.26-1.1,0-2.43-1.21-3.08A1.51,1.51,0,0,0,136.37,232.36Z" style="fill:#ffd364"/><path d="M121.18,185.8v-.23c-.16-1.71-.53-3.38-.6-5.09-.06-1.41.6-3-.76-4.1a1.94,1.94,0,0,0-3.26,1.22,11.85,11.85,0,0,0,0,2.45,13.74,13.74,0,0,0,1.26,5.18C118,186.69,121.2,187.79,121.18,185.8Z" style="fill:#ffd364"/><path d="M53,157.3a10.93,10.93,0,0,0-1.15,2.19,13.13,13.13,0,0,0-1.46,5.16c-.61,1.38,1.8,3.74,2.74,1.73.74-1.61,1.24-3.28,2-4.87.64-1.29,2.07-2.45,1.36-3.95A2,2,0,0,0,53,157.3Z" style="fill:#ffd364"/><path d="M108,223.21a11.92,11.92,0,0,0,0,2.46,14.09,14.09,0,0,0,1.27,5.17c.17,1.5,3.48,2.65,3.33.45-.15-1.74-.53-3.43-.6-5.2-.09-1.4.58-3-.78-4.1A2,2,0,0,0,108,223.21Z" style="fill:#ffd364"/><path d="M114.8,204.28a13,13,0,0,0-1.18,2.2,13.46,13.46,0,0,0-1.43,5.13c-.61,1.4,1.78,3.77,2.71,1.74.76-1.62,1.24-3.28,2-4.88.64-1.26,2-2.42,1.36-3.94A2,2,0,0,0,114.8,204.28Z" style="fill:#ffd364"/><path d="M134.57,217.36a14.58,14.58,0,0,0-.84,6c-.26,1.15,2,2.68,2.4,1,.32-1.35.46-2.7.8-4,.31-1.08,1.21-2.16.45-3.26A1.61,1.61,0,0,0,134.57,217.36Z" style="fill:#ffd364"/><path d="M124.52,208.84a8.36,8.36,0,0,0,.42,1.91,10.79,10.79,0,0,0,1.77,3.85c.34,1.14,3.09,1.62,2.62-.07-.37-1.33-.93-2.59-1.25-3.95-.25-1.07,0-2.41-1.21-3.08A1.5,1.5,0,0,0,124.52,208.84Z" style="fill:#ffd364"/><path d="M135.33,205a10.53,10.53,0,0,0,0,1.59,9,9,0,0,0,.86,3.4c.09,1,2.28,1.72,2.14.28-.1-1.14-.34-2.24-.4-3.4,0-.92.41-2-.48-2.67A1.28,1.28,0,0,0,135.33,205Z" style="fill:#ffd364"/></g><g style="mix-blend-mode:screen"><path d="M127.15,264a8.82,8.82,0,0,0,.41,1.9,11.09,11.09,0,0,0,1.76,3.86c.36,1.14,3.1,1.61,2.64-.07-.38-1.34-.94-2.6-1.26-4-.24-1.09,0-2.41-1.2-3.09A1.5,1.5,0,0,0,127.15,264Z" style="fill:#ffd364"/><path d="M138.61,257.41a9.68,9.68,0,0,0-.75,1.42,9.06,9.06,0,0,0-1,3.37c-.39.91,1.18,2.46,1.8,1.14.49-1.06.82-2.14,1.33-3.19.43-.84,1.34-1.58.9-2.57A1.32,1.32,0,0,0,138.61,257.41Z" style="fill:#ffd364"/></g><path d="M106.1,165.88a12.84,12.84,0,0,0-1-2.22,13.69,13.69,0,0,0-3.29-4.2c-.76-1.3-4.27-1-3.22.95.86,1.53,1.92,2.93,2.7,4.49.64,1.25.7,3,2.38,3.43A2,2,0,0,0,106.1,165.88Z" style="fill:#ffd364;mix-blend-mode:screen"/><path d="M84.3,248.05a10.93,10.93,0,0,0-1.15,2.19,13,13,0,0,0-1.46,5.16c-.62,1.38,1.79,3.74,2.73,1.73.74-1.61,1.24-3.27,2-4.87.64-1.29,2.07-2.45,1.36-3.95A2,2,0,0,0,84.3,248.05Z" style="fill:#ffd364;mix-blend-mode:screen"/><path d="M107.38,265.13a9.15,9.15,0,0,0-.55,1.87,10.69,10.69,0,0,0-.31,4.17c-.25,1.17,2,2.71,2.43,1,.3-1.35.43-2.72.79-4.07.29-1.07,1.2-2.16.44-3.25A1.61,1.61,0,0,0,107.38,265.13Z" style="fill:#ffd364;mix-blend-mode:screen"/><path d="M97.86,236.55a8.32,8.32,0,0,0,.42,1.89,10.59,10.59,0,0,0,1.75,3.87c.36,1.15,3.1,1.63,2.64-.06-.37-1.35-.92-2.6-1.26-4-.26-1.07,0-2.43-1.2-3.08A1.5,1.5,0,0,0,97.86,236.55Z" style="fill:#ffd364;mix-blend-mode:screen"/><path d="M25.59,173.26a8.93,8.93,0,0,0,.82,1.36,9.14,9.14,0,0,0,2.44,2.52,1.45,1.45,0,0,0,1.48.34l.51-.29a.63.63,0,0,0,0-.89c-.65-.93-1.41-1.76-2-2.74-.49-.77-.64-1.91-1.75-2.07A1.29,1.29,0,0,0,25.59,173.26Z" style="fill:#ffd364;mix-blend-mode:screen"/><path d="M25.16,156a9.41,9.41,0,0,0-.76,1.43,9.14,9.14,0,0,0-1,3.37c-.38.91,1.18,2.46,1.8,1.13.49-1.05.82-2.13,1.33-3.18.43-.84,1.35-1.59.9-2.58A1.32,1.32,0,0,0,25.16,156Z" style="fill:#ffd364;mix-blend-mode:screen"/><path d="M45.38,162.91a6.37,6.37,0,0,0-.37,1.22,6.86,6.86,0,0,0-.21,2.74c-.14.73,1.32,1.75,1.59.63.2-.87.28-1.75.53-2.65.18-.69.76-1.4.3-2.12A1.06,1.06,0,0,0,45.38,162.91Z" style="fill:#ffd364;mix-blend-mode:screen"/><path d="M74.55,159.15a4,4,0,0,0,.28,1.21A7.58,7.58,0,0,0,76,162.91c.23.72,2,1.05,1.73,0-.25-.88-.61-1.71-.84-2.59-.16-.71,0-1.59-.78-2A1,1,0,0,0,74.55,159.15Z" style="fill:#ffd364;mix-blend-mode:screen"/><g style="mix-blend-mode:screen"><path d="M78.25,239a11.91,11.91,0,0,0,0,1.58,9,9,0,0,0,.86,3.4c.09,1,2.29,1.73,2.14.28-.09-1.14-.33-2.24-.39-3.4,0-.92.4-2-.48-2.67A1.29,1.29,0,0,0,78.25,239Z" style="fill:#ffd364"/><path d="M56.33,221.37a8.77,8.77,0,0,0-.75,1.42,9.09,9.09,0,0,0-1,3.36c-.39.92,1.18,2.47,1.8,1.14.48-1.06.82-2.13,1.33-3.18.43-.84,1.35-1.59.9-2.58A1.32,1.32,0,0,0,56.33,221.37Z" style="fill:#ffd364"/><path d="M87.47,230.75a7.42,7.42,0,0,0-.36,1.22,6.86,6.86,0,0,0-.21,2.74c-.15.74,1.31,1.76,1.59.63.19-.87.27-1.74.53-2.65.18-.69.76-1.4.3-2.12A1.07,1.07,0,0,0,87.47,230.75Z" style="fill:#ffd364"/><path d="M92.27,211.07a3.83,3.83,0,0,0,.27,1.21,7.42,7.42,0,0,0,1.12,2.54c.24.73,2,1.06,1.74,0-.24-.88-.61-1.71-.84-2.59-.16-.71,0-1.59-.78-2A1,1,0,0,0,92.27,211.07Z" style="fill:#ffd364"/></g><path d="M57.82,175.08a9.25,9.25,0,0,0,0,1.58,9,9,0,0,0,.85,3.4c.1,1,2.29,1.73,2.15.28-.1-1.14-.34-2.24-.39-3.4-.05-.92.4-2-.49-2.66A1.28,1.28,0,0,0,57.82,175.08Z" style="fill:#ffd364;mix-blend-mode:screen"/><path d="M71.67,176.26a10.23,10.23,0,0,0-.76,1.42A9.07,9.07,0,0,0,70,181c-.39.92,1.18,2.47,1.8,1.14.48-1.06.82-2.13,1.33-3.18.43-.84,1.34-1.59.89-2.58A1.32,1.32,0,0,0,71.67,176.26Z" style="fill:#ffd364;mix-blend-mode:screen"/><path d="M110.73,190.87a6.59,6.59,0,0,0-.37,1.22,6.83,6.83,0,0,0-.21,2.73c-.14.75,1.31,1.76,1.59.64.2-.87.27-1.74.53-2.65.18-.69.76-1.4.3-2.12A1.06,1.06,0,0,0,110.73,190.87Z" style="fill:#ffd364;mix-blend-mode:screen"/><path d="M90.68,188.67a4.12,4.12,0,0,0,.27,1.22,7.39,7.39,0,0,0,1.13,2.53c.24.74,2,1.07,1.74,0-.25-.88-.61-1.7-.85-2.59-.16-.71,0-1.59-.77-2A1,1,0,0,0,90.68,188.67Z" style="fill:#ffd364;mix-blend-mode:screen"/><g style="mix-blend-mode:screen"><path d="M42.3,220.35a9.27,9.27,0,0,0,0,1.58,9,9,0,0,0,.85,3.4c.1,1,2.29,1.73,2.15.28-.1-1.14-.34-2.24-.39-3.4,0-.92.4-2-.49-2.67A1.28,1.28,0,0,0,42.3,220.35Z" style="fill:#ffd364"/><path d="M32.27,194.94a8.47,8.47,0,0,0-.76,1.42,8.94,8.94,0,0,0-1,3.36c-.39.92,1.18,2.47,1.8,1.14.48-1.06.82-2.13,1.33-3.18.43-.84,1.34-1.59.89-2.58A1.32,1.32,0,0,0,32.27,194.94Z" style="fill:#ffd364"/><path d="M53.06,204.2a7.46,7.46,0,0,0-.37,1.22,6.83,6.83,0,0,0-.21,2.73c-.14.74,1.31,1.76,1.59.64.2-.87.27-1.74.53-2.65.18-.69.76-1.4.3-2.12A1.06,1.06,0,0,0,53.06,204.2Z" style="fill:#ffd364"/><path d="M55.21,192.65a3.89,3.89,0,0,0,.27,1.22,7.48,7.48,0,0,0,1.13,2.53c.23.73,2,1.06,1.73,0-.24-.88-.6-1.7-.84-2.59-.16-.71,0-1.59-.77-2A1,1,0,0,0,55.21,192.65Z" style="fill:#ffd364"/></g><g style="mix-blend-mode:screen"><path d="M132.9,187.6a7.84,7.84,0,0,0,1,1,7,7,0,0,0,2.81,1.51c.7.55,2.8-.61,1.76-1.42-.79-.65-1.68-1.16-2.46-1.85-.62-.55-1-1.54-2.06-1.32A1.4,1.4,0,0,0,132.9,187.6Z" style="fill:#ffd364"/><path d="M121.58,160.41a16.79,16.79,0,0,0-2.39,6.67c-.54,1.29,1.65,3.44,2.51,1.6.67-1.48,1.15-3,1.85-4.45.6-1.16,1.88-2.21,1.25-3.59A1.84,1.84,0,0,0,121.58,160.41Z" style="fill:#ffd364"/><path d="M135.92,170.46a11,11,0,0,0-.51,1.69,9.67,9.67,0,0,0-.29,3.82c-.2,1,1.83,2.45,2.22.89.27-1.22.38-2.44.74-3.7.25-1,1.06-1.95.41-3A1.48,1.48,0,0,0,135.92,170.46Z" style="fill:#ffd364"/><path d="M134.16,156.3a5.49,5.49,0,0,0,.38,1.69,10.45,10.45,0,0,0,1.56,3.53c.34,1,2.86,1.49,2.43-.05-.34-1.23-.85-2.38-1.18-3.62-.23-1,0-2.21-1.08-2.8A1.34,1.34,0,0,0,134.16,156.3Z" style="fill:#ffd364"/></g><path d="M72,227.59a8.94,8.94,0,0,0-1.7-3.26c-.05-.08-.24-.34-.29-.4a0,0,0,0,0,0,0l-.22-.3s-.36-.54-.43-.65h0c-.75-1.23-2-2.76-3.42-2.56s-.4,2.4,0,3a16.57,16.57,0,0,0,4.25,4.95C71,229.11,72.26,229,72,227.59Z" style="fill:#ffd364;mix-blend-mode:screen"/><path d="M100.26,260.11c-1.21.66-2.79.13-4.09-.06a18,18,0,0,0-2.43-.22,2.52,2.52,0,0,1-2-2.14v-.13a1.29,1.29,0,0,1,0-.28v0a1,1,0,0,1,0-.17c.06-.37.78-.72,1.06-.89a9.52,9.52,0,0,1,4.1-.95c1-.07,2,.87,2.59,1.61C99.86,257.39,101.29,259.55,100.26,260.11Z" style="fill:#ffd364;mix-blend-mode:screen"/><path d="M46.65,214.58c-.6.17-1.35-.4-1.89-.59a17.17,17.17,0,0,1-4.19-2.11c-.41-.29-2-2.55-.58-2.36,1,.14,2.08,0,3.11.06a5.23,5.23,0,0,1,4.13,3.14C47.53,213.41,47.59,214.33,46.65,214.58Z" style="fill:#ffd364;mix-blend-mode:screen"/><path d="M45,193.48c-.57,1.17-1.36,1.49-2.3,2.31-.6.53-2.07-1.31-1.54-1.92,1.63-1.86.49-4.71,1.78-6.67.93-1.42,3.08,1.62,3.06,2.59A8.88,8.88,0,0,1,45,193.48Z" style="fill:#ffd364;mix-blend-mode:screen"/><path d="M31.18,191.49a2.76,2.76,0,0,1-1.28-1.6c-.21-.64-.38-1.3-.58-1.95a5.4,5.4,0,0,1-.39-1.62c0-.69.81-.16,1,0,1.33,1.18,1.47,2.92,2,4.53C32.1,191.46,31.68,191.73,31.18,191.49Z" style="fill:#ffd364;mix-blend-mode:screen"/><path d="M49.25,178c-.35,1.26-1.82,1.58-3,1.86a5.86,5.86,0,0,1-3.94-.22,2.45,2.45,0,0,1-1.1-1.21c-.08-.18-.29-.94.17-.92,1,.06,1.89-.83,2.71-1.38,1.06-.71,1.71-1.41,3.06-1C48.22,175.39,49.56,176.86,49.25,178Z" style="fill:#ffd364;mix-blend-mode:screen"/><path d="M66.3,162.17l-.15,0c-.43.1-1-.43-1.2-.74a52.93,52.93,0,0,1-3.26-6.14c-.26-.49-.9-1.6-.27-2.1s2.06.68,2.44,1.2a16.41,16.41,0,0,1,1.77,3.68,9.45,9.45,0,0,1,1.05,3.54C66.67,161.91,66.58,162.11,66.3,162.17Z" style="fill:#ffd364;mix-blend-mode:screen"/><path d="M42.45,156.38a24,24,0,0,1-2.74,1.48,9.58,9.58,0,0,1-1.39.71c-.35.12-.9.44-1.27.32a2.7,2.7,0,0,1-1.38-1.18c-.15-.24-.6-1.12-.17-1.35a13.62,13.62,0,0,0,.5-1.46,10,10,0,0,1,.92-1.31,3.46,3.46,0,0,1,3.17-1.06c.87.1,1.69,1.13,2.1,1.8C42.46,154.76,43.07,155.94,42.45,156.38Z" style="fill:#ffd364;mix-blend-mode:screen"/><path d="M92.13,162.42c-1.21,0-2.26-.88-3.25-1.49s-1.61-1.5-2.48-2.16a4.73,4.73,0,0,1-1.52-2v0a.6.6,0,0,1,.34-.85c1-.35,2.06.31,2.94.89a7.61,7.61,0,0,1,4,3.07C92.42,160.3,93.35,162.43,92.13,162.42Z" style="fill:#ffd364;mix-blend-mode:screen"/><path d="M72.88,196.43c-.23.69-.64.86-1.28,1.15a13.45,13.45,0,0,0-1.83,1.07A9.64,9.64,0,0,1,66.7,200c-.73.18-1.86-1.33-1.59-2,.19-.47.59-.63,1-.94a11,11,0,0,0,1.34-1.3c1-1,2.41-2.08,3.83-1.59C72,194.42,73.19,195.53,72.88,196.43Z" style="fill:#ffd364;mix-blend-mode:screen"/><path d="M75.35,170.63c-1.17.93-2.87.59-4.26.5-2.15-.13-3.93-1.17-5.92-1.81-.5-.16-2.15-2.28-1.18-2.24,1.56.06,3.06.5,4.62.55,1.92.07,3.59-.25,5.42.5C74.58,168.35,76.13,170,75.35,170.63Z" style="fill:#ffd364;mix-blend-mode:screen"/><path d="M94.88,173.87c-2.52.95-5.41.34-7.85,1.62-.69.36-2-1.28-1.48-1.84A10.45,10.45,0,0,1,93.4,171C94.22,171.1,96.09,173.42,94.88,173.87Z" style="fill:#ffd364;mix-blend-mode:screen"/><path d="M83.92,192.62c-.4.95-1.84-1.05-1.85-1.56a21.85,21.85,0,0,0-.43-3.69,20.47,20.47,0,0,1-.88-3.31c0-1.07,1.28-.24,1.61.06A7.62,7.62,0,0,1,83.92,192.62Z" style="fill:#ffd364;mix-blend-mode:screen"/><path d="M108.28,180.11a6.9,6.9,0,0,1-1.8,1.6c-.67.48-1.46.69-2,1.41-.66,1-2.49-1.22-2.13-2.05a7.32,7.32,0,0,1,1.64-2.15c.66-.68.85-1.61,1.92-1.7.67-.05,1.29.57,1.67,1S108.62,179.62,108.28,180.11Z" style="fill:#ffd364;mix-blend-mode:screen"/><path d="M116.71,156.52c-.39,1.34-2.44,1.11-3.6,1.3s-2.45.79-3.58.75c-.67,0-2.32-1.76-1.31-2.14.85-.32,1.51-1.36,2.44-1.72,1.62-.62,3.06-1.32,4.67-.42C116,154.67,117,155.65,116.71,156.52Z" style="fill:#ffd364;mix-blend-mode:screen"/><path d="M130.85,175.61a5.08,5.08,0,0,1-1.71,1.2,4.26,4.26,0,0,0-1.54,1.41c-.55.93-2.24-1.13-2-1.9.5-1.41,1.61-3.27,3.15-3.65.58-.15,1.28.6,1.59,1S131.29,175,130.85,175.61Z" style="fill:#ffd364;mix-blend-mode:screen"/><g style="mix-blend-mode:screen"><path d="M127.18,200.77l0-.07a.77.77,0,0,1-.07-.19C127.2,200.72,127.22,200.84,127.18,200.77Z" style="fill:#ffd364"/><path d="M127.15,200.7a.15.15,0,0,0,0,.07c.36.72.54,1.61-.47,1.19-1.23-.5-1.93-1.92-2.53-3a33.28,33.28,0,0,1-2.66-4.81c-.17-.49-.55-1.62.31-1.74,1-.15,2.18,1.13,2.59,1.92.62,1.16,1.19,2.36,1.74,3.55.24.53.39,1.11.58,1.65l.27.8.07.2a1.79,1.79,0,0,0-.38-.44A2.5,2.5,0,0,1,127.15,200.7Z" style="fill:#ffd364"/></g><path d="M144.08,198.15a4.52,4.52,0,0,1-2.51,1.58c-1,.37-2.12.63-3.15,1.05-.88.36-2.41-1.83-1.8-2.56a15.43,15.43,0,0,1,2.29-2.28c.93-.74,1.35-1.59,2.69-1.3a3.23,3.23,0,0,1,1.69,1.24C143.65,196.33,144.47,197.51,144.08,198.15Z" style="fill:#ffd364;mix-blend-mode:screen"/><path d="M124.58,239.64c-.57.08-1.16-.52-1.47-.91a32.29,32.29,0,0,1-3.79-6c-.17-.34-.37-1,0-1.33.52-.42,1.36.28,1.7.61,1.85,1.81,2.61,4.23,3.76,6.47C124.94,238.8,125.11,239.56,124.58,239.64Z" style="fill:#ffd364;mix-blend-mode:screen"/><path d="M122.4,224.34a3.34,3.34,0,0,1-1.14,1.25A8.92,8.92,0,0,0,120,227c-.57.79-2.71-1.65-2.27-2.5a11.87,11.87,0,0,1,1-1.69,2,2,0,0,1,1.6-1.07C121.27,221.75,122.83,223.38,122.4,224.34Z" style="fill:#ffd364;mix-blend-mode:screen"/><path d="M105.55,210a5.35,5.35,0,0,1-1.5,2.48,17.72,17.72,0,0,0-2.18,1.88c-.61.84-2.71-1.72-2.35-2.58A9,9,0,0,1,101,209.6c.7-.83,1.07-1.78,2-2.35C104.19,206.59,105.83,209,105.55,210Z" style="fill:#ffd364;mix-blend-mode:screen"/><path d="M104.27,203.75c-.65.2-1.73-1.25-1.46-1.83s0-.84-.36-1.22a12.52,12.52,0,0,1-1.13-1.9,25.28,25.28,0,0,1-2.45-4.12c-.45-1.29.23-2.2,1.5-1.2a14.51,14.51,0,0,1,4.15,6.42C105,201.13,106.1,203.17,104.27,203.75Z" style="fill:#ffd364;mix-blend-mode:screen"/><path d="M80.05,214c-1.5,1.57-4.22.07-6,1.1-1,.59-2.85-1.79-2.15-2.68a5.21,5.21,0,0,1,2.36-1.4,6.51,6.51,0,0,1,3.78-.29C79,211,81,213,80.05,214Z" style="fill:#ffd364;mix-blend-mode:screen"/><path d="M60.28,219.14c-.34,1-2.18-1.12-2-1.93a19.28,19.28,0,0,0,.42-3.39c0-1-.15-2,.55-2.82.46-.53,1.49.88,1.61,1.18C61.71,214.45,61.06,216.93,60.28,219.14Z" style="fill:#ffd364;mix-blend-mode:screen"/><path d="M62.71,243.65c-1,.55-2-.18-3-.65a30.67,30.67,0,0,0-4.07-2.2h0a3.08,3.08,0,0,1-1.33-1.64v0c0-.15.09-.39.27-.38a8,8,0,0,1,3.39.88,22.71,22.71,0,0,1,3.79,1.89C62.08,241.75,63.44,243.25,62.71,243.65Z" style="fill:#ffd364;mix-blend-mode:screen"/><path d="M71,244.52c-.28.86-1.95-.93-1.85-1.56l.15.17a2.24,2.24,0,0,1-.37-.74c-.24-.94-.24-1.94-.49-2.88a30.92,30.92,0,0,1-.71-4.27c-.15-1.21,1.6.12,1.81.4,1.66,2.16,1.11,5,1.33,7.55A1.61,1.61,0,0,1,71,244.52Z" style="fill:#ffd364;mix-blend-mode:screen"/><path d="M77.38,256.23a4.69,4.69,0,0,1-4,1.46c-.75-.05-2.5-2.45-1.37-2.63s2.06-1.15,3.16-1.62S78.13,255.25,77.38,256.23Z" style="fill:#ffd364;mix-blend-mode:screen"/><path d="M109.17,258.77c-.17.46-.83.16-1.07,0a6.2,6.2,0,0,1-1.45-1.44,19.8,19.8,0,0,0-1.31-2c-1-1.3-2.49-2.3-3.3-3.75-.2-.35-.71-1.73.26-1.47a7.65,7.65,0,0,1,3.66,2.92,19.65,19.65,0,0,1,1.6,2.26,17.44,17.44,0,0,0,1.09,2.09C109,257.63,109.35,258.29,109.17,258.77Z" style="fill:#ffd364;mix-blend-mode:screen"/><path d="M97.5,269.14a4.23,4.23,0,0,1-1.78,1c-.79.24-1.6.19-2.39.43-1,.29-2.91-2.51-1.73-2.83.71-.19,1.43-.14,2.14-.31.37-.09.75-.21,1.12-.32a3.89,3.89,0,0,1,1.4,0C96.83,267.17,98.11,268.59,97.5,269.14Z" style="fill:#ffd364;mix-blend-mode:screen"/><path d="M140.49,280.5c-2.21.38-4.65-.32-6.74-1a2.79,2.79,0,0,1-1.59-1.55c-.18-.43-.28-1.23.44-1.09,2.09.4,4.19.24,6.28.57C139.68,277.55,141.87,280.26,140.49,280.5Z" style="fill:#ffd364;mix-blend-mode:screen"/><path d="M122.94,257.9c-.46.56-1.91-1.18-1.61-1.76a20.43,20.43,0,0,0,1.2-3,6.14,6.14,0,0,1,1.51-3c.82-.67,2.31,1.45,2.22,2.15C126,254.39,124.27,256.26,122.94,257.9Z" style="fill:#ffd364;mix-blend-mode:screen"/><path d="M114.67,247.87c-.24.68-1.23-.07-1.48-.32a2.32,2.32,0,0,1-.87-2,10.79,10.79,0,0,0,.15-2.66c0-.89-.1-1.86.7-2.4,1-.66,2.38,1.51,2.37,2.29A16,16,0,0,1,114.67,247.87Z" style="fill:#ffd364;mix-blend-mode:screen"/><path d="M145.72,250.35c-.7,1.05-2,.93-3.18,1.06s-2.79-.19-4,.31c-.71.28-2.15-1.62-1.54-2.19a7.77,7.77,0,0,1,3.09-1.48c1.49-.47,2.41-1.05,4-.47C144.67,247.83,146.27,249.54,145.72,250.35Z" style="fill:#ffd364;mix-blend-mode:screen"/><path d="M84.37,228.72c0,.45-.42.46-.72.31a2.23,2.23,0,0,1-.85-.79,4.72,4.72,0,0,1-.68-.66,6.92,6.92,0,0,1-1.2-1.55c-.59-1.2-1.54-2-1.7-3.38s1.7.1,1.93.41c.37.52.71,1.06,1,1.61l.43.72c.11.21.22.43.34.64a1.76,1.76,0,0,1,.09.21,6.27,6.27,0,0,1,.38.57l0,.05.18.2A2.82,2.82,0,0,1,84.37,228.72Z" style="fill:#ffd364;mix-blend-mode:screen"/><path d="M101.14,222c-.64,1-2,1.55-3,2.23a10,10,0,0,0-3.06,2.49c-.61.95-2.5-1.21-2.1-2a11.29,11.29,0,0,1,2.62-3.1c1.12-1.06,2.13-2.39,3.82-2.06C100.09,219.66,101.65,221.19,101.14,222Z" style="fill:#ffd364;mix-blend-mode:screen"/><path d="M84.86,203a2,2,0,0,1-1.25,1.55,4.29,4.29,0,0,1-2.31.55,2.56,2.56,0,0,1-1.79-2.54c.12-.71.83-1,1.38-1.41a3.53,3.53,0,0,1,1.78-.88C83.83,200.16,85.05,202,84.86,203Z" style="fill:#ffd364;mix-blend-mode:screen"/><g style="mix-blend-mode:screen"><path d="M169.78,225.85a8.85,8.85,0,0,1-.05,1.71,9.13,9.13,0,0,1-.9,3.64c-.1,1.06-2.45,1.86-2.32.32.1-1.23.37-2.41.43-3.66,0-1-.43-2.12.53-2.87A1.38,1.38,0,0,1,169.78,225.85Z" style="fill:#ffd364"/><path d="M177.7,265.2a9.08,9.08,0,0,1,.89,1.65,9.58,9.58,0,0,1,1.07,3.86c.46,1-1.35,2.81-2,1.3-.56-1.22-.93-2.47-1.52-3.66-.48-1-1.55-1.84-1-3A1.49,1.49,0,0,1,177.7,265.2Z" style="fill:#ffd364"/><path d="M207.22,200.15a9.59,9.59,0,0,1,.56,1.85,10.82,10.82,0,0,1,.3,4.19c.26,1.15-2,2.7-2.4,1-.32-1.34-.43-2.71-.81-4.06-.3-1.07-1.2-2.16-.43-3.25A1.59,1.59,0,0,1,207.22,200.15Z" style="fill:#ffd364"/><path d="M160.47,232.36a8.12,8.12,0,0,1-.44,1.89,10.43,10.43,0,0,1-1.75,3.85c-.34,1.17-3.1,1.64-2.64,0,.37-1.34.94-2.61,1.26-4,.25-1.1,0-2.43,1.2-3.08A1.51,1.51,0,0,1,160.47,232.36Z" style="fill:#ffd364"/><path d="M175.66,185.8v-.23c.16-1.71.53-3.38.6-5.09.06-1.41-.6-3,.76-4.1a1.94,1.94,0,0,1,3.26,1.22,11.86,11.86,0,0,1-.05,2.45,13.55,13.55,0,0,1-1.26,5.18C178.82,186.69,175.64,187.79,175.66,185.8Z" style="fill:#ffd364"/><path d="M243.87,157.3a10.93,10.93,0,0,1,1.15,2.19,13.14,13.14,0,0,1,1.47,5.16c.61,1.38-1.8,3.74-2.74,1.73-.74-1.61-1.24-3.28-2-4.87-.65-1.29-2.07-2.45-1.37-3.95A2,2,0,0,1,243.87,157.3Z" style="fill:#ffd364"/><path d="M188.79,223.21a11.26,11.26,0,0,1,0,2.46,13.89,13.89,0,0,1-1.27,5.17c-.17,1.5-3.48,2.65-3.32.45.15-1.74.53-3.43.6-5.2.08-1.4-.59-3,.77-4.1A2,2,0,0,1,188.79,223.21Z" style="fill:#ffd364"/><path d="M182,204.28a12.4,12.4,0,0,1,1.19,2.2,13.45,13.45,0,0,1,1.42,5.13c.62,1.4-1.78,3.77-2.71,1.74-.75-1.62-1.24-3.28-2-4.88-.64-1.26-2-2.42-1.37-3.94A2,2,0,0,1,182,204.28Z" style="fill:#ffd364"/><path d="M162.26,217.36a11,11,0,0,1,.54,1.86,10.83,10.83,0,0,1,.31,4.19c.26,1.15-2,2.68-2.41,1-.31-1.35-.46-2.7-.8-4-.31-1.08-1.2-2.16-.44-3.26A1.6,1.6,0,0,1,162.26,217.36Z" style="fill:#ffd364"/><path d="M172.31,208.84a7.87,7.87,0,0,1-.42,1.91,10.77,10.77,0,0,1-1.76,3.85c-.35,1.14-3.09,1.62-2.63-.07.38-1.33.94-2.59,1.26-3.95.24-1.07,0-2.41,1.2-3.08A1.5,1.5,0,0,1,172.31,208.84Z" style="fill:#ffd364"/><path d="M161.51,205a10.53,10.53,0,0,1,0,1.59,9,9,0,0,1-.86,3.4c-.09,1-2.28,1.72-2.15.28.1-1.14.35-2.24.4-3.4,0-.92-.4-2,.48-2.67A1.29,1.29,0,0,1,161.51,205Z" style="fill:#ffd364"/></g><g style="mix-blend-mode:screen"><path d="M169.68,264a8.26,8.26,0,0,1-.41,1.9,10.73,10.73,0,0,1-1.76,3.86c-.35,1.14-3.1,1.61-2.64-.07.38-1.34.95-2.6,1.26-4,.25-1.09,0-2.41,1.2-3.09A1.49,1.49,0,0,1,169.68,264Z" style="fill:#ffd364"/><path d="M158.22,257.41a8.88,8.88,0,0,1,.76,1.42,9.25,9.25,0,0,1,1,3.37c.38.91-1.18,2.46-1.81,1.14-.48-1.06-.82-2.14-1.32-3.19-.43-.84-1.34-1.58-.9-2.57A1.31,1.31,0,0,1,158.22,257.41Z" style="fill:#ffd364"/></g><path d="M190.74,165.88a12.14,12.14,0,0,1,1-2.22,13.66,13.66,0,0,1,3.28-4.2c.76-1.3,4.28-1,3.22.95-.85,1.53-1.91,2.93-2.7,4.49-.63,1.25-.69,3-2.38,3.43A1.94,1.94,0,0,1,190.74,165.88Z" style="fill:#ffd364;mix-blend-mode:screen"/><path d="M212.54,248.05a11.46,11.46,0,0,1,1.15,2.19,13.18,13.18,0,0,1,1.46,5.16c.62,1.38-1.79,3.74-2.73,1.73-.75-1.61-1.24-3.27-2-4.87-.64-1.29-2.07-2.45-1.36-3.95A2,2,0,0,1,212.54,248.05Z" style="fill:#ffd364;mix-blend-mode:screen"/><path d="M189.45,265.13A9.17,9.17,0,0,1,190,267a11.08,11.08,0,0,1,.31,4.17c.24,1.17-2,2.71-2.43,1-.3-1.35-.44-2.72-.8-4.07-.29-1.07-1.19-2.16-.44-3.25A1.61,1.61,0,0,1,189.45,265.13Z" style="fill:#ffd364;mix-blend-mode:screen"/><path d="M199,236.55a8.34,8.34,0,0,1-.43,1.89,10.43,10.43,0,0,1-1.75,3.87c-.35,1.15-3.09,1.63-2.64-.06.38-1.35.92-2.6,1.26-4,.26-1.07,0-2.43,1.2-3.08A1.5,1.5,0,0,1,199,236.55Z" style="fill:#ffd364;mix-blend-mode:screen"/><path d="M271.25,173.26a9.82,9.82,0,0,1-.82,1.36,9.14,9.14,0,0,1-2.44,2.52,1.46,1.46,0,0,1-1.49.34l-.5-.29a.62.62,0,0,1,0-.89c.65-.93,1.41-1.76,2-2.74.5-.77.64-1.91,1.76-2.07A1.29,1.29,0,0,1,271.25,173.26Z" style="fill:#ffd364;mix-blend-mode:screen"/><path d="M271.68,156a10.32,10.32,0,0,1,.75,1.43,9,9,0,0,1,1,3.37c.38.91-1.19,2.46-1.81,1.13-.49-1.05-.82-2.13-1.32-3.18-.43-.84-1.35-1.59-.9-2.58A1.32,1.32,0,0,1,271.68,156Z" style="fill:#ffd364;mix-blend-mode:screen"/><path d="M251.46,162.91a7.17,7.17,0,0,1,.37,1.22,7,7,0,0,1,.2,2.74c.14.73-1.31,1.75-1.59.63-.19-.87-.27-1.75-.53-2.65-.18-.69-.76-1.4-.29-2.12A1.06,1.06,0,0,1,251.46,162.91Z" style="fill:#ffd364;mix-blend-mode:screen"/><path d="M222.28,159.15a4,4,0,0,1-.27,1.21,7.58,7.58,0,0,1-1.13,2.55c-.24.72-2,1.05-1.74,0,.25-.88.61-1.71.85-2.59.16-.71,0-1.59.77-2A1,1,0,0,1,222.28,159.15Z" style="fill:#ffd364;mix-blend-mode:screen"/><g style="mix-blend-mode:screen"><path d="M218.58,239a10.42,10.42,0,0,1,0,1.58,8.8,8.8,0,0,1-.86,3.4c-.09,1-2.28,1.73-2.14.28.09-1.14.34-2.24.39-3.4.05-.92-.4-2,.49-2.67A1.28,1.28,0,0,1,218.58,239Z" style="fill:#ffd364"/><path d="M240.5,221.37a8.1,8.1,0,0,1,.76,1.42,8.89,8.89,0,0,1,1,3.36c.39.92-1.17,2.47-1.8,1.14-.48-1.06-.82-2.13-1.33-3.18-.42-.84-1.34-1.59-.89-2.58A1.32,1.32,0,0,1,240.5,221.37Z" style="fill:#ffd364"/><path d="M209.36,230.75a7.46,7.46,0,0,1,.37,1.22,6.86,6.86,0,0,1,.2,2.74c.15.74-1.3,1.76-1.58.63-.2-.87-.28-1.74-.54-2.65-.17-.69-.76-1.4-.29-2.12A1.06,1.06,0,0,1,209.36,230.75Z" style="fill:#ffd364"/><path d="M204.57,211.07a4.13,4.13,0,0,1-.27,1.21,7.44,7.44,0,0,1-1.13,2.54c-.24.73-2,1.06-1.74,0,.25-.88.61-1.71.85-2.59.16-.71,0-1.59.77-2A1,1,0,0,1,204.57,211.07Z" style="fill:#ffd364"/></g><path d="M239,175.08a10.4,10.4,0,0,1,0,1.58,9,9,0,0,1-.86,3.4c-.09,1-2.28,1.73-2.14.28.09-1.14.34-2.24.39-3.4,0-.92-.4-2,.49-2.66A1.28,1.28,0,0,1,239,175.08Z" style="fill:#ffd364;mix-blend-mode:screen"/><path d="M225.16,176.26a8.47,8.47,0,0,1,.76,1.42,8.89,8.89,0,0,1,1,3.36c.39.92-1.17,2.47-1.79,1.14-.49-1.06-.83-2.13-1.33-3.18-.43-.84-1.35-1.59-.9-2.58A1.32,1.32,0,0,1,225.16,176.26Z" style="fill:#ffd364;mix-blend-mode:screen"/><path d="M186.11,190.87a8.58,8.58,0,0,1,.37,1.22,7,7,0,0,1,.2,2.73c.15.75-1.31,1.76-1.58.64-.2-.87-.28-1.74-.54-2.65-.18-.69-.76-1.4-.29-2.12A1.06,1.06,0,0,1,186.11,190.87Z" style="fill:#ffd364;mix-blend-mode:screen"/><path d="M206.15,188.67a3.58,3.58,0,0,1-.27,1.22,7.37,7.37,0,0,1-1.12,2.53c-.24.74-2,1.07-1.74,0,.25-.88.61-1.7.85-2.59.16-.71,0-1.59.77-2A1,1,0,0,1,206.15,188.67Z" style="fill:#ffd364;mix-blend-mode:screen"/><g style="mix-blend-mode:screen"><path d="M254.54,220.35a10.42,10.42,0,0,1,0,1.58,9,9,0,0,1-.86,3.4c-.09,1-2.28,1.73-2.14.28.1-1.14.34-2.24.39-3.4,0-.92-.4-2,.49-2.67A1.29,1.29,0,0,1,254.54,220.35Z" style="fill:#ffd364"/><path d="M264.57,194.94a10.23,10.23,0,0,1,.76,1.42,9.32,9.32,0,0,1,.95,3.36c.39.92-1.18,2.47-1.8,1.14-.48-1.06-.82-2.13-1.33-3.18-.43-.84-1.35-1.59-.9-2.58A1.33,1.33,0,0,1,264.57,194.94Z" style="fill:#ffd364"/><path d="M243.78,204.2a8.58,8.58,0,0,1,.37,1.22,7,7,0,0,1,.2,2.73c.15.74-1.31,1.76-1.58.64-.2-.87-.28-1.74-.54-2.65-.18-.69-.76-1.4-.29-2.12A1.06,1.06,0,0,1,243.78,204.2Z" style="fill:#ffd364"/><path d="M241.63,192.65a3.91,3.91,0,0,1-.28,1.22,7.27,7.27,0,0,1-1.12,2.53c-.24.73-2,1.06-1.74,0,.24-.88.61-1.7.85-2.59.16-.71,0-1.59.77-2A1,1,0,0,1,241.63,192.65Z" style="fill:#ffd364"/></g><g style="mix-blend-mode:screen"><path d="M163.93,187.6a6.76,6.76,0,0,1-1,1,7,7,0,0,1-2.81,1.51c-.69.55-2.79-.61-1.76-1.42.8-.65,1.68-1.16,2.46-1.85.62-.55,1-1.54,2.07-1.32A1.39,1.39,0,0,1,163.93,187.6Z" style="fill:#ffd364"/><path d="M175.26,160.41a12.65,12.65,0,0,1,1.05,2,12.44,12.44,0,0,1,1.33,4.68c.55,1.29-1.64,3.44-2.51,1.6-.67-1.48-1.14-3-1.85-4.45-.6-1.16-1.87-2.21-1.25-3.59A1.85,1.85,0,0,1,175.26,160.41Z" style="fill:#ffd364"/><path d="M160.91,170.46a10,10,0,0,1,.51,1.69,9.49,9.49,0,0,1,.29,3.82c.21,1-1.82,2.45-2.21.89-.28-1.22-.38-2.44-.75-3.7-.25-1-1.06-1.95-.41-3A1.47,1.47,0,0,1,160.91,170.46Z" style="fill:#ffd364"/><path d="M162.68,156.3a5.49,5.49,0,0,1-.38,1.69,10.28,10.28,0,0,1-1.57,3.53c-.33,1-2.85,1.49-2.42-.05.34-1.23.84-2.38,1.17-3.62.23-1,0-2.21,1.08-2.8A1.35,1.35,0,0,1,162.68,156.3Z" style="fill:#ffd364"/></g><path d="M226.75,228.39a16.57,16.57,0,0,0,4.25-4.95c.36-.64,1.41-2.83,0-3s-2.68,1.33-3.43,2.56h0c-.07.11-.45.67-.43.65l-.22.3a0,0,0,0,1,0,0l-.29.4a8.91,8.91,0,0,0-1.69,3.26C224.58,229,225.79,229.11,226.75,228.39Z" style="fill:#ffd364;mix-blend-mode:screen"/><path d="M196.58,260.11c1.21.66,2.78.13,4.08-.06a18.13,18.13,0,0,1,2.43-.22,2.53,2.53,0,0,0,2.06-2.14s0-.09,0-.13a1.31,1.31,0,0,0,0-.28,0,0,0,0,0,0,0c0-.06,0-.11,0-.17-.07-.37-.79-.72-1.07-.89a9.47,9.47,0,0,0-4.09-.95c-1-.07-2,.87-2.6,1.61C197,257.39,195.55,259.55,196.58,260.11Z" style="fill:#ffd364;mix-blend-mode:screen"/><path d="M250.18,214.58c.6.17,1.36-.4,1.9-.59a17.35,17.35,0,0,0,4.19-2.11c.41-.29,2-2.55.58-2.36-1,.14-2.08,0-3.11.06a5.21,5.21,0,0,0-4.13,3.14C249.3,213.41,249.25,214.33,250.18,214.58Z" style="fill:#ffd364;mix-blend-mode:screen"/><path d="M251.85,193.48c.57,1.17,1.37,1.49,2.3,2.31.6.53,2.08-1.31,1.54-1.92-1.62-1.86-.48-4.71-1.77-6.67-.93-1.42-3.09,1.62-3.06,2.59A9,9,0,0,0,251.85,193.48Z" style="fill:#ffd364;mix-blend-mode:screen"/><path d="M265.65,191.49a2.72,2.72,0,0,0,1.28-1.6c.22-.64.39-1.3.58-1.95a5.4,5.4,0,0,0,.39-1.62c0-.69-.8-.16-1,0-1.34,1.18-1.48,2.92-2,4.53C264.74,191.46,265.16,191.73,265.65,191.49Z" style="fill:#ffd364;mix-blend-mode:screen"/><path d="M247.59,178c.35,1.26,1.81,1.58,2.95,1.86a5.86,5.86,0,0,0,3.94-.22,2.47,2.47,0,0,0,1.09-1.21c.08-.18.29-.94-.16-.92-1,.06-1.89-.83-2.71-1.38-1.06-.71-1.71-1.41-3.07-1C248.61,175.39,247.27,176.86,247.59,178Z" style="fill:#ffd364;mix-blend-mode:screen"/><path d="M230.53,162.17l.16,0c.43.1,1-.43,1.19-.74a51.51,51.51,0,0,0,3.27-6.14c.26-.49.89-1.6.27-2.1s-2.07.68-2.44,1.2a16.45,16.45,0,0,0-1.78,3.68,9.45,9.45,0,0,0-1,3.54C230.17,161.91,230.25,162.11,230.53,162.17Z" style="fill:#ffd364;mix-blend-mode:screen"/><path d="M254.38,156.38a24.15,24.15,0,0,0,2.75,1.48,9.1,9.1,0,0,0,1.39.71c.35.12.89.44,1.26.32a2.68,2.68,0,0,0,1.39-1.18c.14-.24.6-1.12.17-1.35a13.48,13.48,0,0,1-.51-1.46,8.36,8.36,0,0,0-.92-1.31,3.44,3.44,0,0,0-3.16-1.06c-.87.1-1.69,1.13-2.11,1.8C254.38,154.76,253.77,155.94,254.38,156.38Z" style="fill:#ffd364;mix-blend-mode:screen"/><path d="M204.71,162.42c1.2,0,2.26-.88,3.25-1.49s1.6-1.5,2.48-2.16a4.82,4.82,0,0,0,1.52-2v0a.61.61,0,0,0-.34-.85c-1-.35-2.07.31-2.94.89a7.61,7.61,0,0,0-4,3.07C204.42,160.3,203.49,162.43,204.71,162.42Z" style="fill:#ffd364;mix-blend-mode:screen"/><path d="M224,196.43c.24.69.65.86,1.29,1.15a13.34,13.34,0,0,1,1.82,1.07,9.84,9.84,0,0,0,3.07,1.33c.73.18,1.87-1.33,1.6-2-.2-.47-.59-.63-1-.94a11,11,0,0,1-1.34-1.3c-1-1-2.42-2.08-3.83-1.59C224.81,194.42,223.64,195.53,224,196.43Z" style="fill:#ffd364;mix-blend-mode:screen"/><path d="M221.49,170.63c1.16.93,2.86.59,4.26.5,2.15-.13,3.92-1.17,5.92-1.81.5-.16,2.14-2.28,1.17-2.24-1.56.06-3.06.5-4.62.55-1.92.07-3.59-.25-5.41.5C222.26,168.35,220.71,170,221.49,170.63Z" style="fill:#ffd364;mix-blend-mode:screen"/><path d="M202,173.87c2.52.95,5.4.34,7.85,1.62.68.36,2-1.28,1.47-1.84a10.44,10.44,0,0,0-7.84-2.61C202.61,171.1,200.74,173.42,202,173.87Z" style="fill:#ffd364;mix-blend-mode:screen"/><path d="M212.91,192.62c.4.95,1.84-1.05,1.86-1.56a20.87,20.87,0,0,1,.43-3.69,21.52,21.52,0,0,0,.87-3.31c0-1.07-1.27-.24-1.61.06A7.63,7.63,0,0,0,212.91,192.62Z" style="fill:#ffd364;mix-blend-mode:screen"/><path d="M188.56,180.11a6.7,6.7,0,0,0,1.79,1.6c.67.48,1.47.69,2,1.41.66,1,2.48-1.22,2.13-2.05a7.35,7.35,0,0,0-1.65-2.15c-.65-.68-.85-1.61-1.92-1.7-.66-.05-1.29.57-1.67,1S188.22,179.62,188.56,180.11Z" style="fill:#ffd364;mix-blend-mode:screen"/><path d="M180.13,156.52c.39,1.34,2.43,1.11,3.6,1.3s2.45.79,3.58.75c.67,0,2.31-1.76,1.31-2.14s-1.51-1.36-2.45-1.72c-1.61-.62-3-1.32-4.66-.42C180.83,154.67,179.88,155.65,180.13,156.52Z" style="fill:#ffd364;mix-blend-mode:screen"/><path d="M166,175.61a5,5,0,0,0,1.71,1.2,4.15,4.15,0,0,1,1.53,1.41c.55.93,2.25-1.13,2-1.9-.5-1.41-1.62-3.27-3.15-3.65-.59-.15-1.29.6-1.59,1S165.55,175,166,175.61Z" style="fill:#ffd364;mix-blend-mode:screen"/><g style="mix-blend-mode:screen"><path d="M169.66,200.77l0-.07a1.67,1.67,0,0,0,.07-.19C169.63,200.72,169.61,200.84,169.66,200.77Z" style="fill:#ffd364"/><path d="M169.69,200.7a.26.26,0,0,0,0,.07c-.37.72-.54,1.61.47,1.19,1.23-.5,1.92-1.92,2.53-3a35.31,35.31,0,0,0,2.66-4.81c.17-.49.55-1.62-.31-1.74-1-.15-2.18,1.13-2.6,1.92-.61,1.16-1.18,2.36-1.73,3.55a17,17,0,0,0-.58,1.65c-.1.27-.19.54-.28.8a1.67,1.67,0,0,1-.06.2,2,2,0,0,1,.37-.44A2.51,2.51,0,0,0,169.69,200.7Z" style="fill:#ffd364"/></g><path d="M152.75,198.15a4.55,4.55,0,0,0,2.51,1.58c1.05.37,2.12.63,3.15,1.05.88.36,2.41-1.83,1.81-2.56a15.92,15.92,0,0,0-2.29-2.28c-.94-.74-1.35-1.59-2.69-1.3a3.29,3.29,0,0,0-1.7,1.24C153.18,196.33,152.36,197.51,152.75,198.15Z" style="fill:#ffd364;mix-blend-mode:screen"/><path d="M172.26,239.64c.57.08,1.15-.52,1.46-.91a31.82,31.82,0,0,0,3.8-6c.17-.34.37-1,0-1.33s-1.36.28-1.7.61c-1.84,1.81-2.6,4.23-3.76,6.47C171.89,238.8,171.72,239.56,172.26,239.64Z" style="fill:#ffd364;mix-blend-mode:screen"/><path d="M174.43,224.34a3.28,3.28,0,0,0,1.15,1.25,8.42,8.42,0,0,1,1.28,1.45c.58.79,2.71-1.65,2.28-2.5a14,14,0,0,0-1-1.69,2,2,0,0,0-1.61-1.07C175.56,221.75,174,223.38,174.43,224.34Z" style="fill:#ffd364;mix-blend-mode:screen"/><path d="M191.28,210a5.35,5.35,0,0,0,1.5,2.48,17,17,0,0,1,2.18,1.88c.62.84,2.72-1.72,2.35-2.58a9,9,0,0,0-1.51-2.17c-.69-.83-1.06-1.78-2-2.35C192.64,206.59,191,209,191.28,210Z" style="fill:#ffd364;mix-blend-mode:screen"/><path d="M192.56,203.75c.65.2,1.73-1.25,1.47-1.83s0-.84.36-1.22a14.42,14.42,0,0,0,1.13-1.9,26,26,0,0,0,2.44-4.12c.46-1.29-.23-2.2-1.5-1.2a14.68,14.68,0,0,0-4.15,6.42C191.83,201.13,190.74,203.17,192.56,203.75Z" style="fill:#ffd364;mix-blend-mode:screen"/><path d="M216.79,214c1.5,1.57,4.22.07,6,1.1,1,.59,2.86-1.79,2.15-2.68a5.23,5.23,0,0,0-2.35-1.4,6.52,6.52,0,0,0-3.78-.29C217.89,211,215.82,213,216.79,214Z" style="fill:#ffd364;mix-blend-mode:screen"/><path d="M236.56,219.14c.33,1,2.18-1.12,2-1.93a19.28,19.28,0,0,1-.42-3.39c0-1,.14-2-.55-2.82-.47-.53-1.5.88-1.61,1.18C235.12,214.45,235.78,216.93,236.56,219.14Z" style="fill:#ffd364;mix-blend-mode:screen"/><path d="M234.12,243.65c1,.55,2-.18,3-.65a30.17,30.17,0,0,1,4.08-2.2h0a3.1,3.1,0,0,0,1.34-1.64v0c0-.15-.09-.39-.27-.38a8,8,0,0,0-3.39.88,23.1,23.1,0,0,0-3.79,1.89C234.75,241.75,233.39,243.25,234.12,243.65Z" style="fill:#ffd364;mix-blend-mode:screen"/><path d="M225.84,244.52c.29.86,1.95-.93,1.85-1.56l-.15.17a2.08,2.08,0,0,0,.38-.74c.24-.94.23-1.94.48-2.88a29.49,29.49,0,0,0,.71-4.27c.15-1.21-1.59.12-1.8.4-1.66,2.16-1.11,5-1.34,7.55A1.65,1.65,0,0,0,225.84,244.52Z" style="fill:#ffd364;mix-blend-mode:screen"/><path d="M219.46,256.23a4.67,4.67,0,0,0,4,1.46c.76-.05,2.5-2.45,1.38-2.63s-2.07-1.15-3.16-1.62S218.71,255.25,219.46,256.23Z" style="fill:#ffd364;mix-blend-mode:screen"/><path d="M187.67,258.77c.17.46.82.16,1.07,0a6.6,6.6,0,0,0,1.45-1.44,19.72,19.72,0,0,1,1.3-2c1-1.3,2.5-2.3,3.31-3.75.2-.35.71-1.73-.26-1.47a7.65,7.65,0,0,0-3.66,2.92,18.49,18.49,0,0,0-1.6,2.26,16.07,16.07,0,0,1-1.1,2.09C187.89,257.63,187.48,258.29,187.67,258.77Z" style="fill:#ffd364;mix-blend-mode:screen"/><path d="M199.33,269.14a4.27,4.27,0,0,0,1.79,1c.79.24,1.59.19,2.39.43,1,.29,2.9-2.51,1.72-2.83-.71-.19-1.42-.14-2.13-.31-.38-.09-.75-.21-1.12-.32a3.88,3.88,0,0,0-1.4,0C200,267.17,198.73,268.59,199.33,269.14Z" style="fill:#ffd364;mix-blend-mode:screen"/><path d="M156.35,280.5c2.2.38,4.64-.32,6.73-1a2.79,2.79,0,0,0,1.59-1.55c.19-.43.28-1.23-.44-1.09-2.08.4-4.19.24-6.27.57C157.15,277.55,155,280.26,156.35,280.5Z" style="fill:#ffd364;mix-blend-mode:screen"/><path d="M173.9,257.9c.45.56,1.9-1.18,1.6-1.76a20.39,20.39,0,0,1-1.19-3,6.08,6.08,0,0,0-1.52-3c-.82-.67-2.31,1.45-2.22,2.15C170.85,254.39,172.56,256.26,173.9,257.9Z" style="fill:#ffd364;mix-blend-mode:screen"/><path d="M182.16,247.87c.24.68,1.23-.07,1.49-.32a2.34,2.34,0,0,0,.87-2,11.3,11.3,0,0,1-.16-2.66c0-.89.1-1.86-.7-2.4-1-.66-2.37,1.51-2.36,2.29A16,16,0,0,0,182.16,247.87Z" style="fill:#ffd364;mix-blend-mode:screen"/><path d="M151.11,250.35c.71,1.05,2,.93,3.18,1.06,1.33.14,2.8-.19,4.05.31.71.28,2.15-1.62,1.54-2.19a7.84,7.84,0,0,0-3.09-1.48c-1.5-.47-2.41-1.05-4-.47C152.17,247.83,150.56,249.54,151.11,250.35Z" style="fill:#ffd364;mix-blend-mode:screen"/><path d="M212.47,228.72c0,.45.41.46.72.31a2.3,2.3,0,0,0,.85-.79,5.3,5.3,0,0,0,.68-.66,6.88,6.88,0,0,0,1.19-1.55c.59-1.2,1.54-2,1.71-3.38s-1.7.1-1.93.41c-.38.52-.71,1.06-1.05,1.61l-.42.72c-.12.21-.23.43-.34.64a1.11,1.11,0,0,0-.1.21,6.12,6.12,0,0,0-.37.57.13.13,0,0,0,0,.05l-.19.2A2.75,2.75,0,0,0,212.47,228.72Z" style="fill:#ffd364;mix-blend-mode:screen"/><path d="M195.69,222c.64,1,2,1.55,3,2.23a10,10,0,0,1,3.07,2.49c.6.95,2.5-1.21,2.1-2a11.16,11.16,0,0,0-2.63-3.1c-1.11-1.06-2.13-2.39-3.82-2.06C196.75,219.66,195.19,221.19,195.69,222Z" style="fill:#ffd364;mix-blend-mode:screen"/><path d="M212,203a1.93,1.93,0,0,0,1.24,1.55,4.31,4.31,0,0,0,2.31.55,2.56,2.56,0,0,0,1.8-2.54c-.12-.71-.84-1-1.38-1.41a3.56,3.56,0,0,0-1.79-.88C213,200.16,211.79,202,212,203Z" style="fill:#ffd364;mix-blend-mode:screen"/><rect width="299.64" height="299.64" style="fill:none"/></g></g></g></svg>